<?xml version="1.0" encoding="utf-8"?>
<!-- Generator: Adobe Illustrator 20.0.0, SVG Export Plug-In . SVG Version: 6.00 Build 0)  -->
<svg version="1.1"
	 id="svg3193" xmlns:cc="http://creativecommons.org/ns#" xmlns:dc="http://purl.org/dc/elements/1.1/" xmlns:rdf="http://www.w3.org/1999/02/22-rdf-syntax-ns#" xmlns:svg="http://www.w3.org/2000/svg"
	 xmlns="http://www.w3.org/2000/svg" xmlns:xlink="http://www.w3.org/1999/xlink" x="0px" y="0px" viewBox="0 0 538.6 569.4"
	 style="enable-background:new 0 0 538.6 569.4;" xml:space="preserve">
<style type="text/css">
	.st0{fill:#FFFFFF;}
</style>
<g id="layer1" transform="translate(-120.66153,-257.90619)">
	<g id="g3306" transform="matrix(8.3333696,0,0,8.3333696,-2958.47,-3845.786)">
		<g id="g3033" transform="matrix(1.25,0,0,-1.25,383.90037,521.0509)">
			<path id="path3035" class="st0" d="M0,0c0,0,1.3,2.5,2.9,2.7C4.5,3,6.1,1.9,6.1,1.9S5.9-0.2,3.3-0.9C1.4-1.4,0,0,0,0"/>
		</g>
		<g id="g3037" transform="matrix(1.25,0,0,-1.25,394.47675,496.43415)">
			<path id="path3039" class="st0" d="M0,0c1.5-1,2.2-1.9,2.9-3.6c0.7-1.8,0.3-4.8,0.3-4.8S0.3-6.9-0.4-5.1C-1.2-3.3-1-1.7,0,0"/>
		</g>
		<g id="g3041" transform="matrix(1.25,0,0,-1.25,391.28837,506.0564)">
			<path id="path3043" class="st0" d="M0,0c1.6,0.1,2.5,0.1,3.9-1.5C5.3-3,5-7,5-7S2.2-6.4,0.8-4.6S-0.5-1.8,0,0"/>
		</g>
		<g id="g3045" transform="matrix(1.25,0,0,-1.25,385.02824,501.84177)">
			<path id="path3047" class="st0" d="M0,0c1.1-0.2,1.7-0.5,2.4-1.3c0.9-0.9,1.1-3.1,1.1-3.1S1.6-3.9,0.8-3C0.1-2.1-0.2-1.2,0,0"/>
		</g>
		<g id="g3049" transform="matrix(1.25,0,0,-1.25,386.96287,497.20552)">
			<path id="path3051" class="st0" d="M0,0c-0.4-1.6-0.4-2.7,0.8-4.2c1.5-1.9,4.1-2,4.1-2s-0.3,2.6-1.3,4C2.5-0.9,1.6-0.4,0,0"/>
		</g>
		<g id="g3053" transform="matrix(1.25,0,0,-1.25,384.27237,507.23452)">
			<path id="path3055" class="st0" d="M0,0c1.4,0.2,2.3-0.1,3.4-0.9c1.3-0.9,2.1-3.3,2.1-3.3S2.5-4.3,1.3-3.1C0.4-2.2,0-1.3,0,0"/>
		</g>
		<g id="g3057" transform="matrix(1.25,0,0,-1.25,390.61737,494.33577)">
			<path id="path3059" class="st0" d="M0,0c0.9-0.3,1.5-0.9,1.7-1.8C2-2.7,1.3-4,1.3-4S0-3.3-0.3-2.5C-0.6-1.6-0.5-0.8,0,0"/>
		</g>
		<g id="g3061" transform="matrix(1.25,0,0,-1.25,402.06937,492.85965)">
			<path id="path3063" class="st0" d="M0,0c0,0,0.9-0.7,1-1.4c0.1-0.8-0.9-1.8-0.9-1.8S-1-2.3-1-1.5C-0.9-0.8,0,0,0,0"/>
		</g>
		<g id="g3065" transform="matrix(1.25,0,0,-1.25,407.32549,500.53165)">
			<path id="path3067" class="st0" d="M0,0c0,0,2.5,0.4,3.5,1c1,0.6,1.4,3.1,1.4,3.1S2.7,4.3,1.6,3.4C0.6,2.6,0,0,0,0"/>
		</g>
		<g id="g3069" transform="matrix(1.25,0,0,-1.25,414.32637,500.26327)">
			<path id="path3071" class="st0" d="M0,0c0.3-2.1-0.1-3.6-1.4-5.3c-1.4-1.8-5.3-2.8-5.3-2.8s-0.1,3.9,1.3,5.7
				C-3.9-0.6-2.3,0.1,0,0"/>
		</g>
		<g id="g3073" transform="matrix(1.25,0,0,-1.25,413.47737,498.7679)">
			<path id="path3075" class="st0" d="M0,0c0,0,1.3-0.3,2,0c0.7,0.3,1.3,1.2,1.4,1.5C3.1,1.5,2.2,1.8,1.5,1.5C0.7,1.3,0,0,0,0"/>
		</g>
		<g id="g3077" transform="matrix(1.25,0,0,-1.25,405.01575,519.38627)">
			<path id="path3079" class="st0" d="M0,0c0.4,0,4,1.1,5.6,3C7.1,4.8,7,5.6,7,7.3c-2.3,0.4-4.2-0.2-5.7-2C-0.1,3.7-0.2,1.2,0,0"/>
		</g>
		<g id="g3081" transform="matrix(1.25,0,0,-1.25,413.0325,517.76215)">
			<path id="path3083" class="st0" d="M0,0c0-0.1,0.3,2.4,1.3,3.5c1.6,1.8,2.4,1.6,4,1.4c0.1-1.6-0.4-2.7-1.6-3.8C2.6,0.2,0.1,0,0,0
				"/>
		</g>
		<g id="g3085" transform="matrix(1.25,0,0,-1.25,413.11924,522.57277)">
			<path id="path3087" class="st0" d="M0,0c-0.7-0.1-1.3-0.3-1.9-0.5C-2-1.1-2-2.8-2-4c0-2.3,0.1-4.3,0.4-6.6
				c0.4,2.4,0.3,4.3,0.8,6.8C-0.6-2.6-0.2-0.7,0,0 M-7.9,0.7c2.1,0.8,3.7,1,6.2,1.6c2.4,0.5,3.8,0.7,6.3,0.8L4.6,0.9
				c0,0-0.9-0.3-1.9-0.4C2.4-0.3,1.5-3,1.1-5.3c-0.4-2.4-0.4-3.9-0.4-6.4c0-1.3,0.1-3.2,0.1-3.2l-3.9-1.3c0,0-1,5.1-1,7.7
				c0,2.4-0.2,6.4-0.2,7.2c-0.6-0.3-1-0.2-1.6-0.4C-6.7-2-7.3-2.4-7.8-2.6c0.2-6.7,1.5-13.7,1.5-13.7s-2.2-0.2-3.1-0.2
				c-1.3,0-3,0.5-3,0.5s-0.2,4.4-0.1,7.1c0.2,4.5,0.5,7.8,0.7,11c-0.5,0.3-1.9,1-1.9,1c-0.7-1.5-1-2.2-1.5-3.8
				c-0.7-2.4-0.7-3.9-1-6.4c-0.4-3.3-0.6-8.5-0.6-8.5l-3.1,1.3c0,0,0.3,3.9,0.8,7.2c0.7,3.8,1.2,6.8,2.5,11
				c-0.9,0.5-1.5,0.8-2.5,1.1c-1.7,0.5-3.3,0.5-3.9,0.6l0.1,2.3c2.8-0.5,4.4-0.9,7.1-1.6c1.6-0.4,2.8-0.7,4.1-1.2
				c0.3,2.3,0.7,4.4,1.3,7.3c0.1,0.7,0.3,1.9,0.6,3.1c-0.3,0.8-0.6,1.1-1.1,1.9c-1.6,2.6-4.5,6.3-4.5,6.3l3.2-0.1
				c1.1-1.2,1.2-1.6,2-2.6c0.6-0.8,1.4-1.5,1.7-2c1,2.8,2,4.8,2,4.8l2.4-0.3c0,0-1.9-3.3-2.7-7.7C-7.6,11-8.1,4.3-7.9,0.7"/>
		</g>
		<g id="g3089" transform="matrix(1.25,0,0,-1.25,415.02287,511.1289)">
			<path id="path3091" class="st0" d="M0,0c0,0-0.7,2.4,0,3.6C0.8,5,2,5.6,3.5,5.4C3.7,4,3.5,3.1,2.7,2C2,0.9,0,0,0,0"/>
		</g>
		<g id="g3093" transform="matrix(1.25,0,0,-1.25,374.06562,555.1269)">
			<path id="path3095" class="st0" d="M0,0c0,0.5-0.4,1.1-1.4,1.1c-0.5,0-1.2,0-1.9,0V0.8c0.1,0,0.1,0,0.2,0s0.1,0,0.3,0l0-4.6h-0.4
				V-4h0.6c2,0,2.8,0.7,2.8,1.4c0,0.7-0.6,1.1-1.2,1.4C-0.3-0.9,0-0.5,0,0 M-0.8-0.2c0-0.5-0.4-0.9-0.7-1.1
				c-0.3-0.2-0.4-0.2-0.4-0.3c0-0.1,0.1-0.1,0.4-0.2c0.7-0.3,0.9-0.7,0.9-1.1c0-0.6-0.4-0.8-1.5-0.9l0.1,4.6h0.2
				C-1.3,0.8-0.8,0.4-0.8-0.2"/>
		</g>
		<g id="g3097" transform="matrix(1.25,0,0,-1.25,382.152,560.07202)">
			<path id="path3099" class="st0" d="M0,0c0,0.2-0.1,0.4-0.2,0.5l-1.6,3.3c-0.2,0.3-0.4,0.9-0.5,1.2C-2.6,5-2.7,5-3,5
				c-0.8-1.8-2.2-3.4-3.1-5.1h0.7l1.3,2.2c0,0.1,0.1,0.2,0.3,0.2h0.9c0.2,0,0.7,0,0.8,0.1l1.3-2.6C-0.6-0.1-0.2,0,0,0 M-2.1,2.6
				c-0.3-0.1-0.8-0.1-1.2-0.1c-0.3,0-0.5,0-0.5,0.1c0,0.1,0.5,0.9,0.9,1.6C-2.8,4.3-2.1,2.6-2.1,2.6z"/>
		</g>
		<g id="g3101" transform="matrix(1.25,0,0,-1.25,382.76412,553.79852)">
			<path id="path3103" class="st0" d="M0,0l0.7,0.1c0.8-1.3,2.7-2.8,3.9-4.2c0,0.4,0,1.2,0,2.4c0,0.5,0,1,0,1.5C4.8,0,5.1,0,5.3,0.1
				c0-1.2-0.1-2.7-0.1-3.3c0-0.7,0-1.3,0.2-1.7C5.2-5,5-5.1,4.8-5.2C3.4-3.7,1.8-2.4,0.7-1c0-0.2,0-0.4,0-0.7c0-1.1-0.1-2.3-0.1-3.4
				c-0.2,0-0.4-0.1-0.6-0.2C0-4,0.1-2.8,0.1-1.5C0.1-0.7,0.1-0.3,0,0"/>
		</g>
		<g id="g3105" transform="matrix(1.25,0,0,-1.25,393.44512,560.18877)">
			<path id="path3107" class="st0" d="M0,0c-0.2,0-0.3,0-0.4,0c0,0.2,0,0.9,0,1.4c0,0.4,0,0.6,0,0.8c-0.9,0.9-1.7,1.9-2.4,2.9
				C-2.5,5.2-2.2,5.3-2,5.4c0.6-0.9,1.4-1.9,2.1-2.7c0.7,0.5,1.5,1.5,2,2.5c0.2,0,0.4,0,0.6,0C2.3,4.3,1.1,2.9,0.4,2.3
				c0-0.4,0-0.6,0-1.1c0-0.3,0-0.9,0-1.3C0.3,0,0.2,0,0,0"/>
		</g>
		<g id="g3109" transform="matrix(1.25,0,0,-1.25,403.44412,560.07202)">
			<path id="path3111" class="st0" d="M0,0c0,0.2-0.1,0.4-0.2,0.5l-1.6,3.3c-0.2,0.3-0.4,0.9-0.5,1.2C-2.6,5-2.7,5-3,5
				c-0.8-1.8-2.2-3.4-3.1-5.1h0.7l1.3,2.2c0,0.1,0.1,0.2,0.3,0.2h0.9c0.2,0,0.7,0,0.8,0.1l1.3-2.6C-0.6-0.1-0.2,0,0,0 M-2.1,2.6
				c-0.3-0.1-0.8-0.1-1.2-0.1c-0.3,0-0.5,0-0.5,0.1c0,0.1,0.5,0.9,0.9,1.6C-2.8,4.3-2.1,2.6-2.1,2.6z"/>
		</g>
		<g id="g3113" transform="matrix(1.25,0,0,-1.25,404.05612,553.79852)">
			<path id="path3115" class="st0" d="M0,0l0.7,0.1c0.8-1.3,2.7-2.8,3.9-4.2c0,0.4,0,1.2,0,2.4c0,0.5,0,1,0,1.5C4.8,0,5.1,0,5.3,0.1
				c0-1.2-0.1-2.7-0.1-3.3c0-0.7,0-1.3,0.2-1.7C5.2-5,5-5.1,4.8-5.2C3.4-3.7,1.8-2.4,0.7-1c0-0.2,0-0.4,0-0.7c0-1.1-0.1-2.3-0.1-3.4
				c-0.2,0-0.4-0.1-0.6-0.2C0-4,0.1-2.8,0.1-1.5C0.1-0.7,0.1-0.3,0,0"/>
		</g>
		<g id="g3117" transform="matrix(1.25,0,0,-1.25,413.47912,554.12153)">
			<path id="path3119" class="st0" d="M0,0l0.2,0.4c0.1-0.1,1.7-0.2,2.1-0.2c0.4,0,1.6,0,2.2,0.2C4.4,0.2,4.4,0.1,4.3-0.1
				c-0.3,0-0.7,0-1.1,0c-0.2,0-0.4,0-0.5,0c0-0.9,0-1.9,0-2.8c0-0.7,0-1.2,0-2c-0.2,0-0.5,0-0.8,0c0,0.4,0.1,1,0.1,1.8
				c0,0.7,0,2,0,2.9C1.4-0.1,0.5-0.1,0,0"/>
		</g>
		<g id="g3121" transform="matrix(1.25,0,0,-1.25,419.29437,554.06765)">
			<path id="path3123" class="st0" d="M0,0v0.2c0.2,0,1,0.1,1.6,0.1c1.1,0,2-0.3,2-1.1c0-0.6-0.8-1.5-1.4-1.8C2.5-3,3.6-4,4.5-4.6
				L3.8-5C2.9-4.4,2-3.5,1.2-2.7c0.7,0.1,1.5,0.6,1.5,1.4c0,0.4-0.3,1-0.9,1.2C1.6,0,1.4,0,1.2,0C1.1-1,1.1-3.1,1.1-4.9
				c-0.4,0-0.6,0-0.8,0c0.1,1.1,0.1,2.2,0.1,3.3V0H0z"/>
		</g>
		<g id="g3125" transform="matrix(1.25,0,0,-1.25,429.04175,559.60552)">
			<path id="path3127" class="st0" d="M0,0l-0.5-0.5c-0.3,0-0.6,0.1-1.1,0.1c-0.5,0-1.1,0-1.5-0.1c0.1,0.9,0.2,2,0.2,3.1
				c0,0.7,0,1.5-0.1,2.1c0.6,0,1.1-0.1,1.4-0.1c0.6,0,0.9,0,1.4,0.1l0-0.2l-0.4-0.3c-0.3,0-0.6,0-0.8,0c-0.2,0-0.5,0-0.7,0l0-1.9H-1
				c0.5,0,0.8,0.1,1,0.1l-0.4-0.6C-0.7,2-1,2-1.2,2h-0.9c0-0.6,0-1.4-0.1-2.1h1c0.5,0,1,0.1,1.2,0.2L0,0z"/>
		</g>
		<g id="g3129" transform="matrix(1.25,0,0,-1.25,433.69862,559.60552)">
			<path id="path3131" class="st0" d="M0,0l-0.5-0.5c-0.3,0-0.6,0.1-1.1,0.1c-0.5,0-1.1,0-1.5-0.1c0.1,0.9,0.2,2,0.2,3.1
				c0,0.7,0,1.5-0.1,2.1c0.6,0,1.1-0.1,1.4-0.1c0.6,0,0.9,0,1.4,0.1l0-0.2l-0.4-0.3c-0.3,0-0.6,0-0.8,0c-0.2,0-0.5,0-0.7,0l0-1.9H-1
				c0.5,0,0.8,0.1,1,0.1l-0.4-0.6C-0.7,2-1,2-1.2,2h-0.9c0-0.6,0-1.4-0.1-2.1h1c0.5,0,1,0.1,1.2,0.2L0,0z"/>
		</g>
	</g>
</g>
</svg>
