<?xml version="1.0" encoding="utf-8"?>
<!-- Generator: Adobe Illustrator 20.0.0, SVG Export Plug-In . SVG Version: 6.00 Build 0)  -->
<svg version="1.1"
	 id="svg2" xmlns:cc="http://creativecommons.org/ns#" xmlns:dc="http://purl.org/dc/elements/1.1/" xmlns:inkscape="http://www.inkscape.org/namespaces/inkscape" xmlns:rdf="http://www.w3.org/1999/02/22-rdf-syntax-ns#" xmlns:sodipodi="http://sodipodi.sourceforge.net/DTD/sodipodi-0.dtd" xmlns:svg="http://www.w3.org/2000/svg"
	 xmlns="http://www.w3.org/2000/svg" xmlns:xlink="http://www.w3.org/1999/xlink" x="0px" y="0px" viewBox="0 0 819 193"
	 style="enable-background:new 0 0 819 193;" xml:space="preserve">
<style type="text/css">
	.st0{fill:#FFFFFF;}
</style>
<path id="path6080" class="st0" d="M489.8,191.8L420.6,28.3c-0.3-0.6-0.6-1.2-1.3-1.9l-1.2,0.9c-5.3,14.4-19.1,48.8-19.1,48.8
	l-45.2,115.3h-14l47-109.9l34.1-80.2c0.9-1.9,3.8-1.3,5.6-1.3l3.1,5.6l12.5,27.6l70.1,158.4L489.8,191.8L489.8,191.8z"/>
<path id="path6084" class="st0" d="M581.3,147.1l-0.1-133.3l-47.5,0.1l0-9l114.6,0c0,3.8,0,6.6-0.3,9.1l-47.5,0l-0.1,133.1
	L581.3,147.1L581.3,147.1z"/>
<path id="path6088" class="st0" d="M752.1,147.1L752,13.8l-47.5,0.1l-0.1-9l114.6,0c0,3.8,0,6.6-0.3,9.1l-47.6,0l-0.1,133.1
	L752.1,147.1L752.1,147.1z"/>
<path id="path6094" class="st0" d="M218.9,4.8c15,24.4,28.8,49.2,44.2,73.3h0.9c16.3-24.7,30.1-50,46.1-73.5h13.1l-0.9,1.5l-51.4,78
	l0,63.2c-6.6,0.1-13.3-0.2-18.8,0L252,86.2L198.5,4.6L218.9,4.8L218.9,4.8z"/>
<path id="path6098" class="st0" d="M0,147.3L0,4.6l18.1,0.2L18.1,66h81.1V4.6l18.4,0.2l0,142.5l-17.9-0.1l-0.3-70.7l-2.5,0
	l-78.9,0.3l0,70.5L0,147.3L0,147.3z"/>
<path id="path6102" class="st0" d="M452.5,117.2c-22.1,0.3-63.9-0.2-63.9-0.2c1.9-6.9,5-13.6,7.6-20.2c20.3-0.6,48.5,0,48.5,0
	L452.5,117.2L452.5,117.2z"/>
<path id="path6106" class="st0" d="M276.2,112.2c31-7.8,63.9-12.5,97.4-14.1c0,0-5.3,14.4-8.8,21.3c-30.1,1.9-58.9,6.9-87.7,11.6
	l-0.9-0.3L276.2,112.2L276.2,112.2z"/>
<path id="path6110" class="st0" d="M575.5,115.7l0.2,18.1l-2.4-0.3c-28.5-6.9-57.9-10.3-87.7-13.8c-3.4-6.6-6.3-13.8-8.4-21
	c12.8,0.3,26,2.5,38.8,4.1C536.1,106.3,556.1,110,575.5,115.7"/>
<path id="path6114" class="st0" d="M246.7,137.3c-56.4,12.8-110.8,31.3-162.5,55.7l-0.6-0.6c49.8-32.6,104-56.7,161.3-72.6l1.8-0.5
	L246.7,137.3L246.7,137.3z"/>
<path id="path6118" class="st0" d="M605.9,125.1c47.9,15,93,37.9,135.9,64.8v0.6l-1.6,0.3c-42.9-21.3-88.3-36.3-134.3-49.8V125.1
	L605.9,125.1z"/>
<path id="path6122" class="st0" d="M803.1,139.1v-3h2.5c1.1,0,2.7,0,2.7,1.2c0,1.5-0.8,1.8-2.1,1.8H803.1z M807.5,140.9
	c2.1-0.2,3.2-1,3.2-3.2c0-3.1-1.8-3.6-4.6-3.6h-5.7v11.7h2.6v-4.9h1.8l2.6,4.9h2.8L807.5,140.9L807.5,140.9z M805,151.4
	c6.3,0,11.3-5,11.3-11.2c0-6.3-5-11.3-11.3-11.3c-6.3,0-11.3,5-11.3,11.3C793.7,146.4,798.7,151.4,805,151.4 M805,148.7
	c-4.9,0-8.6-3.6-8.6-8.6c0-5.1,3.7-8.6,8.6-8.6c4.8,0,8.6,3.6,8.6,8.6C813.5,145.1,809.8,148.7,805,148.7"/>
</svg>
