<?xml version="1.0" encoding="utf-8"?>
<!-- Generator: Adobe Illustrator 20.0.0, SVG Export Plug-In . SVG Version: 6.00 Build 0)  -->
<svg version="1.1" id="Layer_1" xmlns="http://www.w3.org/2000/svg" xmlns:xlink="http://www.w3.org/1999/xlink" x="0px" y="0px"
	 viewBox="0 0 318.2 122.8" style="enable-background:new 0 0 318.2 122.8;" xml:space="preserve">
<style type="text/css">
	.st0{fill:#FFFFFF;}
</style>
<g>
	<g>
		<g>
			<g>
				<path class="st0" d="M315.5,91.6c0.5,0,0.9,0.1,1.3,0.4c0.4,0.2,0.8,0.6,1,1c0.2,0.4,0.4,0.9,0.4,1.3c0,0.5-0.1,0.9-0.4,1.3
					c-0.2,0.4-0.6,0.7-1,1c-0.4,0.2-0.9,0.4-1.3,0.4c-0.5,0-0.9-0.1-1.3-0.4c-0.4-0.2-0.7-0.6-1-1c-0.2-0.4-0.4-0.9-0.4-1.3
					c0-0.5,0.1-0.9,0.4-1.3c0.2-0.4,0.6-0.7,1-1C314.5,91.7,315,91.6,315.5,91.6z M315.5,92.1c-0.6,0-1.1,0.2-1.6,0.7
					c-0.4,0.4-0.7,1-0.7,1.6c0,0.6,0.2,1.1,0.7,1.6c0.4,0.4,1,0.6,1.6,0.6c0.6,0,1.1-0.2,1.6-0.7c0.4-0.4,0.7-1,0.7-1.6
					s-0.2-1.1-0.7-1.6C316.6,92.3,316.1,92.1,315.5,92.1z M314.9,95.7h-0.5v-2.9h1c0.4,0,0.6,0,0.7,0.1c0.1,0.1,0.3,0.2,0.4,0.3
					c0.1,0.1,0.1,0.3,0.1,0.4c0,0.2-0.1,0.4-0.2,0.6c-0.2,0.1-0.4,0.2-0.6,0.3c0.1,0.1,0.2,0.1,0.3,0.2c0.1,0.1,0.2,0.3,0.4,0.5
					l0.4,0.6h-0.6l-0.3-0.4c-0.2-0.3-0.3-0.5-0.4-0.6c-0.1-0.1-0.3-0.1-0.4-0.1h-0.3L314.9,95.7L314.9,95.7z M314.9,93.3v0.9h0.6
					c0.2,0,0.4,0,0.5-0.1c0.1-0.1,0.2-0.2,0.2-0.3c0-0.2-0.1-0.3-0.2-0.3c-0.1-0.1-0.3-0.1-0.6-0.1L314.9,93.3L314.9,93.3z"/>
			</g>
		</g>
	</g>
</g>
<path class="st0" d="M287.8,88.3c0.1,0,0.2,0.1,0.2,0.2l1.9,6.8c0.1,0.4,0,0.7-0.2,0.7c-0.2,0-0.3,0.1-0.3,0.3
	c0,0.2,0.3,0.2,0.7,0.3c1.9,0.1,3.6,0.1,4.4,0.1c0.9,0,1.1-0.1,1.1-0.3c0-0.2-0.1-0.3-0.3-0.3c-0.3,0-0.6,0-1-0.1
	c-0.5-0.2-1.2-0.6-2.1-3.5c-1.5-4.9-5.2-17.9-5.8-19.7c-0.2-0.7-0.4-1-0.6-1c-0.2,0-0.4,0.4-0.7,1.3l-5.9,20.1
	c-0.5,1.6-0.9,2.7-2,2.9c-0.2,0-0.5,0.1-0.7,0.1c-0.2,0-0.3,0.1-0.3,0.3c0,0.3,0.1,0.3,0.4,0.3c1.2,0,2.5-0.1,2.8-0.1
	c0.7,0,1.7,0.1,2.5,0.1c0.3,0,0.4-0.1,0.4-0.3c0-0.2-0.1-0.3-0.3-0.3h-0.4c-0.7,0-0.9-0.4-0.9-1c0-0.4,0.1-1.2,0.4-2l1.3-4.6
	c0.1-0.2,0.1-0.3,0.2-0.3L287.8,88.3L287.8,88.3z M283.1,86.7c-0.1,0-0.1-0.1-0.1-0.2l2.1-7.9c0-0.1,0.1-0.3,0.1-0.3
	c0.1,0,0.1,0.2,0.1,0.3l2.1,7.9c0,0.1,0,0.2-0.1,0.2L283.1,86.7L283.1,86.7z"/>
<path class="st0" d="M144.8,78.9L144.8,78.9c0.5,0.6,3.1,4.6,5.6,8.1c2.4,3.3,5.4,7.5,6.9,9.4c0.3,0.4,0.5,0.7,0.8,0.7
	c0.2,0,0.3-0.3,0.3-1l0.3-20.2c0-1.8,0.2-2.5,0.9-2.7c0.3-0.1,0.5-0.1,0.7-0.1c0.3,0,0.4-0.1,0.4-0.3c0-0.3-0.2-0.3-0.5-0.3
	c-1.1,0-2,0.1-2.3,0.1c-0.5,0-1.6-0.1-2.8-0.1c-0.4,0-0.6,0-0.6,0.3c0,0.2,0.1,0.3,0.4,0.3c0.3,0,0.9,0,1.2,0.2
	c0.6,0.3,0.8,0.9,0.8,2.9l0.2,14.4h-0.1c-0.4-0.5-3.5-5.1-5.1-7.3c-3.4-4.6-7-9.8-7.2-10.3c-0.4-0.6-0.6-1-0.9-1
	c-0.2,0-0.3,0.5-0.3,1.1L143.2,92c0,2.8-0.1,3.7-0.7,4c-0.3,0.1-0.7,0.2-1.1,0.2c-0.2,0-0.4,0.1-0.4,0.3c0,0.3,0.2,0.3,0.5,0.3
	c1.2,0,2.3-0.1,2.5-0.1c0.4,0,1.4,0.1,2.9,0.1c0.3,0,0.5-0.1,0.5-0.3c0-0.2-0.1-0.3-0.4-0.3c-0.4,0-0.8,0-1.2-0.2
	c-0.5-0.2-0.8-1.1-0.8-3.5L144.8,78.9L144.8,78.9z"/>
<path class="st0" d="M170.5,87.4c0,2.9,0,5.5-0.1,6.8c-0.1,0.9-0.2,1.6-0.7,1.8c-0.2,0.1-0.5,0.1-0.8,0.1c-0.3,0-0.4,0.1-0.4,0.3
	c0,0.2,0.2,0.3,0.5,0.3c0.9,0,2.4-0.1,2.9-0.1c0.6,0,2.1,0.1,3.7,0.1c0.3,0,0.4-0.1,0.4-0.3c0-0.2-0.1-0.3-0.4-0.3
	c-0.3,0-0.9-0.1-1.2-0.1c-0.7-0.1-0.8-0.8-0.9-1.7c-0.1-1.4-0.1-3.9-0.1-6.8V74.3l2.9,0.1c2.1,0.1,2.7,1,2.8,1.8l0,0.4
	c0,0.5,0.1,0.6,0.3,0.6c0.1,0,0.2-0.2,0.2-0.5c0-0.8,0.1-3,0.1-3.7c0-0.5,0-0.7-0.2-0.7c-0.2,0-0.7,0.3-2.2,0.3H168
	c-0.8,0-1.7-0.1-2.3-0.2c-0.6-0.1-0.8-0.4-1-0.4c-0.1,0-0.2,0.2-0.3,0.6c0,0.3-0.5,3.2-0.5,3.7c0,0.3,0,0.5,0.2,0.5
	c0.1,0,0.2-0.1,0.3-0.4c0-0.3,0.2-0.6,0.4-1.1c0.4-0.7,0.9-0.9,2.3-0.9l3.5-0.1L170.5,87.4L170.5,87.4z"/>
<path class="st0" d="M186.7,87.4c0,3.1,0,5.6-0.1,7c-0.1,0.9-0.2,1.5-0.7,1.6c-0.2,0.1-0.5,0.1-0.8,0.1c-0.3,0-0.4,0.1-0.4,0.3
	c0,0.2,0.2,0.3,0.5,0.3c0.9,0,2.4-0.1,2.9-0.1c0.6,0,2.1,0.1,3.6,0.1c0.3,0,0.4-0.1,0.4-0.3c0-0.2-0.1-0.3-0.4-0.3
	c-0.3,0-0.9-0.1-1.2-0.1c-0.7-0.1-0.9-0.7-0.9-1.6c-0.1-1.4-0.1-3.9-0.1-7v-5.6c0-4.9,0-5.8,0-6.8c0.1-1.1,0.2-1.7,0.9-1.8
	c0.3-0.1,0.5-0.1,0.7-0.1c0.2,0,0.4-0.1,0.4-0.3c0-0.2-0.2-0.3-0.5-0.3c-0.9,0-2.3,0.1-2.8,0.1c-0.7,0-2.1-0.1-3-0.1
	c-0.4,0-0.6,0.1-0.6,0.3c0,0.3,0.1,0.3,0.4,0.3c0.3,0,0.6,0,0.8,0.1c0.5,0.2,0.7,0.7,0.8,1.8c0.1,1,0.1,1.9,0.1,6.8L186.7,87.4
	L186.7,87.4z"/>
<path class="st0" d="M200,78.9L200,78.9c0.5,0.6,3.1,4.6,5.6,8.1c2.4,3.3,5.4,7.5,6.9,9.4c0.3,0.4,0.5,0.7,0.8,0.7
	c0.2,0,0.3-0.3,0.3-1l0.3-20.2c0-1.8,0.2-2.5,0.9-2.7c0.3-0.1,0.5-0.1,0.7-0.1c0.3,0,0.4-0.1,0.4-0.3c0-0.3-0.2-0.3-0.5-0.3
	c-1.1,0-2,0.1-2.3,0.1c-0.5,0-1.6-0.1-2.8-0.1c-0.4,0-0.6,0-0.6,0.3c0,0.2,0.1,0.3,0.4,0.3c0.3,0,0.9,0,1.2,0.2
	c0.6,0.3,0.8,0.9,0.8,2.9l0.2,14.4h-0.1c-0.4-0.5-3.6-5.1-5.1-7.3c-3.4-4.6-7-9.8-7.2-10.3c-0.4-0.6-0.6-1-0.9-1
	c-0.2,0-0.3,0.5-0.3,1.1L198.3,92c0,2.8-0.1,3.7-0.7,4c-0.3,0.1-0.7,0.2-1.1,0.2c-0.2,0-0.4,0.1-0.4,0.3c0,0.3,0.2,0.3,0.5,0.3
	c1.2,0,2.3-0.1,2.5-0.1c0.4,0,1.4,0.1,2.9,0.1c0.3,0,0.5-0.1,0.5-0.3c0-0.2-0.1-0.3-0.4-0.3c-0.4,0-0.8,0-1.2-0.2
	c-0.5-0.2-0.8-1.1-0.8-3.5L200,78.9L200,78.9z"/>
<path class="st0" d="M222.6,87.4c0,2.9,0,5.5-0.1,6.8c-0.1,0.9-0.2,1.6-0.7,1.8c-0.2,0.1-0.5,0.1-0.8,0.1c-0.3,0-0.4,0.1-0.4,0.3
	c0,0.2,0.2,0.3,0.5,0.3c0.9,0,2.4-0.1,2.9-0.1c1.4,0,4.2,0.2,7.8,0.2c0.9,0,1.1,0,1.3-0.8c0.1-0.6,0.3-2.8,0.3-3.5
	c0-0.3,0-0.6-0.2-0.6c-0.2,0-0.2,0.1-0.3,0.5c-0.2,1.3-0.4,2-1,2.4c-0.6,0.4-2.9,0.4-3.5,0.4c-2.4,0-2.7-0.5-2.8-2.7
	c0-0.9,0-3.9,0-5v-2.5c0-0.2,0-0.3,0.1-0.3c0.6,0,4.2,0,4.6,0.1c0.9,0.1,1.2,0.6,1.3,1.3c0.1,0.4,0.1,0.8,0.1,1.1
	c0,0.2,0,0.3,0.2,0.3c0.2,0,0.2-0.4,0.2-0.6c0-0.2,0-1.5,0.1-2.1c0.1-1.6,0.2-2.1,0.2-2.3c0-0.2-0.1-0.3-0.2-0.3
	c-0.1,0-0.2,0.2-0.4,0.4c-0.2,0.3-0.6,0.4-1.1,0.5c-0.5,0.1-4.5,0.1-5,0.1c-0.1,0-0.2-0.1-0.2-0.3v-8.1c0-0.2,0.1-0.3,0.2-0.3
	c0.5,0,4.2,0.1,4.6,0.1c1.2,0.2,1.4,0.6,1.6,1.1c0.1,0.4,0.1,0.9,0.1,1.2c0,0.3,0,0.4,0.2,0.4c0.2,0,0.2-0.2,0.2-0.3
	c0.1-0.4,0.1-1.8,0.1-2.1c0.1-1.5,0.2-1.9,0.2-2.1c0-0.2,0-0.3-0.1-0.3c-0.1,0-0.3,0.1-0.4,0.1c-0.2,0.1-0.6,0.1-1,0.2
	c-0.4,0-6.4,0-7.1,0c-0.7,0-2.1-0.1-3.4-0.1c-0.4,0-0.5,0.1-0.5,0.3c0,0.2,0.1,0.3,0.4,0.3c0.3,0,0.7,0,0.9,0.1c0.8,0.2,1,0.7,1,1.8
	c0,1,0,1.9,0,6.8L222.6,87.4L222.6,87.4z"/>
<path class="st0" d="M241.9,78.9L241.9,78.9c0.5,0.6,3.1,4.6,5.6,8.1c2.4,3.3,5.4,7.5,6.9,9.4c0.3,0.4,0.5,0.7,0.8,0.7
	c0.2,0,0.3-0.3,0.3-1l0.3-20.2c0-1.8,0.2-2.5,0.9-2.7c0.3-0.1,0.5-0.1,0.7-0.1c0.3,0,0.4-0.1,0.4-0.3c0-0.3-0.2-0.3-0.5-0.3
	c-1.1,0-2,0.1-2.3,0.1c-0.5,0-1.6-0.1-2.8-0.1c-0.4,0-0.6,0-0.6,0.3c0,0.2,0.1,0.3,0.4,0.3c0.3,0,0.9,0,1.2,0.2
	c0.6,0.3,0.8,0.9,0.8,2.9l0.2,14.4H254c-0.4-0.5-3.6-5.1-5.1-7.3c-3.4-4.6-7-9.8-7.2-10.3c-0.4-0.6-0.6-1-0.9-1
	c-0.2,0-0.3,0.5-0.3,1.1L240.2,92c0,2.8-0.1,3.7-0.7,4c-0.3,0.1-0.8,0.2-1.1,0.2c-0.2,0-0.4,0.1-0.4,0.3c0,0.3,0.2,0.3,0.5,0.3
	c1.2,0,2.3-0.1,2.5-0.1c0.4,0,1.4,0.1,2.9,0.1c0.3,0,0.5-0.1,0.5-0.3c0-0.2-0.1-0.3-0.4-0.3c-0.4,0-0.8,0-1.2-0.2
	c-0.5-0.2-0.8-1.1-0.8-3.5L241.9,78.9L241.9,78.9z"/>
<path class="st0" d="M267.4,87.4c0,2.9,0,5.5-0.1,6.8c-0.1,0.9-0.2,1.6-0.7,1.8c-0.2,0.1-0.5,0.1-0.8,0.1c-0.3,0-0.4,0.1-0.4,0.3
	c0,0.2,0.2,0.3,0.5,0.3c0.9,0,2.4-0.1,2.9-0.1c0.7,0,2.1,0.1,3.7,0.1c0.3,0,0.4-0.1,0.4-0.3c0-0.2-0.1-0.3-0.4-0.3
	c-0.4,0-0.9-0.1-1.2-0.1c-0.7-0.1-0.8-0.8-0.9-1.7c-0.1-1.4-0.1-3.9-0.1-6.8V74.3l2.9,0.1c2.1,0.1,2.7,1,2.8,1.8l0,0.4
	c0,0.5,0.1,0.6,0.3,0.6c0.1,0,0.2-0.2,0.2-0.5c0-0.8,0.1-3,0.1-3.7c0-0.5,0-0.7-0.2-0.7c-0.2,0-0.7,0.3-2.2,0.3h-9.2
	c-0.8,0-1.7-0.1-2.3-0.2c-0.6-0.1-0.8-0.4-1-0.4c-0.1,0-0.2,0.2-0.3,0.6c0,0.3-0.5,3.2-0.5,3.7c0,0.3,0,0.5,0.2,0.5
	c0.1,0,0.2-0.1,0.3-0.4c0-0.3,0.2-0.6,0.4-1.1c0.4-0.7,0.9-0.9,2.3-0.9l3.5-0.1L267.4,87.4L267.4,87.4z"/>
<path class="st0" d="M303.3,81.8c0-4.9,0-5.8,0-6.8c0-1.1,0.2-1.7,0.9-1.8c0.3-0.1,0.7-0.1,0.9-0.1c0.3,0,0.4-0.1,0.4-0.3
	c0-0.2-0.2-0.3-0.5-0.3c-0.9,0-2.6,0.1-3.2,0.1c-0.6,0-2.1-0.1-3.2-0.1c-0.3,0-0.5,0.1-0.5,0.3c0,0.2,0.1,0.3,0.4,0.3
	c0.3,0,0.6,0,0.8,0.1c0.8,0.2,1,0.7,1,1.8c0,1,0,1.9,0,6.8v5.6c0,2.9,0,5.5-0.1,6.8c-0.1,0.9-0.2,1.6-0.7,1.8
	c-0.2,0.1-0.5,0.1-0.8,0.1c-0.3,0-0.4,0.1-0.4,0.3c0,0.2,0.2,0.3,0.5,0.3c0.9,0,2.4-0.1,2.9-0.1c1.9,0,3.4,0.2,6.8,0.2
	c1.2,0,1.3-0.2,1.5-0.9c0.2-0.9,0.4-3.3,0.4-3.7c0-0.4,0-0.5-0.2-0.5c-0.2,0-0.2,0.2-0.3,0.5c-0.1,0.6-0.3,1.5-0.6,1.9
	c-0.6,0.9-1.5,0.9-2.7,0.9c-1.8,0-2.4-0.2-2.8-0.7c-0.5-0.6-0.5-2.8-0.5-6.9L303.3,81.8L303.3,81.8z"/>
<path class="st0" d="M127.9,95.5c1.6,0,5.4-1.1,5.4-10.3c0-7.2-3-11.6-6.8-11.6c-2.7,0-5.7,2-5.7,10
	C120.7,90.2,123.4,95.5,127.9,95.5L127.9,95.5z M126.9,97.1c-6.7,0-9.4-6.9-9.4-12.5c0-5.5,2.6-12.5,9.6-12.5c5.8,0,9.4,4.6,9.4,12
	C136.6,91.3,132.9,97.1,126.9,97.1L126.9,97.1z"/>
<path class="st0" d="M4.3,86.1c0,3.5,0,6.4-0.1,7.9c-0.1,1.1-0.2,1.7-0.8,1.8c-0.2,0.1-0.6,0.1-1,0.1c-0.3,0-0.4,0.1-0.4,0.3
	c0,0.3,0.2,0.4,0.5,0.4c1.1,0,2.7-0.1,3.4-0.1c0.7,0,2.4,0.1,4.1,0.1c0.3,0,0.5-0.1,0.5-0.4c0-0.2-0.1-0.3-0.4-0.3
	c-0.4,0-1-0.1-1.4-0.1c-0.8-0.1-1-0.8-1.1-1.8c-0.1-1.6-0.1-4.4-0.1-8v-6.4c0-5.5,0-6.6,0.1-7.7c0.1-1.3,0.3-1.9,1-2.1
	c0.3-0.1,0.5-0.1,0.8-0.1c0.3,0,0.4-0.1,0.4-0.4c0-0.2-0.2-0.3-0.6-0.3c-1,0-2.6,0.1-3.2,0.1c-0.8,0-2.4-0.1-3.5-0.1
	c-0.4,0-0.6,0.1-0.6,0.3c0,0.3,0.2,0.4,0.4,0.4c0.3,0,0.7,0,1,0.1c0.6,0.2,0.9,0.8,0.9,2c0.1,1.2,0.1,2.2,0.1,7.7L4.3,86.1L4.3,86.1
	z"/>
<path class="st0" d="M18.6,78.9L18.6,78.9c0.5,0.6,3.1,4.6,5.6,8.1c2.4,3.3,5.4,7.5,6.9,9.4c0.3,0.4,0.5,0.7,0.8,0.7
	c0.2,0,0.3-0.3,0.3-1l0.3-20.2c0-1.8,0.2-2.5,0.9-2.7C33.6,73,33.8,73,34,73c0.3,0,0.4-0.1,0.4-0.3c0-0.3-0.2-0.3-0.5-0.3
	c-1.1,0-2,0.1-2.3,0.1c-0.5,0-1.6-0.1-2.8-0.1c-0.3,0-0.6,0-0.6,0.3c0,0.2,0.1,0.3,0.4,0.3c0.3,0,0.9,0,1.2,0.2
	c0.5,0.3,0.8,0.9,0.8,2.9l0.2,14.4h-0.1c-0.4-0.5-3.6-5.1-5.1-7.3c-3.4-4.6-7-9.8-7.2-10.3c-0.4-0.6-0.6-1-0.9-1
	c-0.2,0-0.3,0.5-0.3,1.1L17,92c0,2.8-0.1,3.7-0.7,4c-0.3,0.1-0.8,0.2-1.1,0.2c-0.2,0-0.4,0.1-0.4,0.3c0,0.3,0.2,0.3,0.5,0.3
	c1.2,0,2.3-0.1,2.5-0.1c0.4,0,1.4,0.1,2.9,0.1c0.3,0,0.5-0.1,0.5-0.3c0-0.2-0.1-0.3-0.4-0.3c-0.4,0-0.8,0-1.2-0.2
	c-0.5-0.2-0.8-1.1-0.8-3.5L18.6,78.9L18.6,78.9z"/>
<path class="st0" d="M44.1,87.4c0,2.9,0,5.5-0.1,6.8c-0.1,0.9-0.2,1.6-0.7,1.8c-0.2,0.1-0.5,0.1-0.8,0.1c-0.3,0-0.4,0.1-0.4,0.3
	c0,0.2,0.2,0.3,0.5,0.3c0.9,0,2.4-0.1,2.9-0.1c0.7,0,2.1,0.1,3.7,0.1c0.3,0,0.4-0.1,0.4-0.3c0-0.2-0.1-0.3-0.4-0.3
	c-0.3,0-0.9-0.1-1.2-0.1c-0.7-0.1-0.8-0.8-0.9-1.7C47,92.8,47,90.3,47,87.4V74.3l2.9,0.1c2.1,0.1,2.7,1,2.8,1.8l0,0.4
	c0,0.5,0.1,0.6,0.3,0.6c0.1,0,0.2-0.2,0.2-0.5c0-0.8,0.1-3,0.1-3.7c0-0.5,0-0.7-0.2-0.7c-0.2,0-0.7,0.3-2.2,0.3h-9.2
	c-0.8,0-1.7-0.1-2.3-0.2c-0.6-0.1-0.8-0.4-1-0.4c-0.1,0-0.2,0.2-0.3,0.6c0,0.3-0.5,3.2-0.5,3.7c0,0.3,0,0.5,0.2,0.5
	c0.1,0,0.2-0.1,0.3-0.4c0-0.3,0.2-0.6,0.4-1.1c0.4-0.7,0.9-0.9,2.3-0.9l3.5-0.1L44.1,87.4L44.1,87.4z"/>
<path class="st0" d="M59.1,87.4c0,2.9,0,5.5-0.1,6.8c-0.1,0.9-0.2,1.6-0.7,1.8c-0.2,0.1-0.5,0.1-0.8,0.1c-0.3,0-0.4,0.1-0.4,0.3
	c0,0.2,0.2,0.3,0.5,0.3c0.9,0,2.4-0.1,2.9-0.1c1.4,0,4.2,0.2,7.8,0.2c0.9,0,1.1,0,1.3-0.8c0.1-0.6,0.3-2.8,0.3-3.5
	c0-0.3,0-0.6-0.2-0.6c-0.2,0-0.2,0.1-0.3,0.5c-0.2,1.3-0.4,2-1,2.4C67.7,95,65.4,95,64.8,95c-2.4,0-2.8-0.5-2.8-2.7c0-0.9,0-3.9,0-5
	v-2.5c0-0.2,0-0.3,0.1-0.3c0.6,0,4.2,0,4.6,0.1c0.9,0.1,1.2,0.6,1.3,1.3c0.1,0.4,0.1,0.8,0.1,1.1c0,0.2,0,0.3,0.2,0.3
	c0.2,0,0.2-0.4,0.2-0.6c0-0.2,0-1.5,0.1-2.1c0.1-1.6,0.2-2.1,0.2-2.3c0-0.2-0.1-0.3-0.2-0.3c-0.1,0-0.2,0.2-0.4,0.4
	c-0.2,0.3-0.6,0.4-1.1,0.5c-0.5,0.1-4.5,0.1-5,0.1c-0.1,0-0.2-0.1-0.2-0.3v-8.1c0-0.2,0-0.3,0.2-0.3c0.5,0,4.2,0.1,4.6,0.1
	c1.2,0.2,1.4,0.6,1.6,1.1c0.1,0.4,0.1,0.9,0.1,1.2c0,0.3,0,0.4,0.2,0.4c0.2,0,0.2-0.2,0.2-0.3c0-0.4,0.1-1.8,0.1-2.1
	c0.1-1.5,0.2-1.9,0.2-2.1c0-0.2,0-0.3-0.1-0.3c-0.1,0-0.3,0.1-0.4,0.1c-0.2,0.1-0.6,0.1-1,0.2c-0.4,0-6.4,0-7.1,0
	c-0.6,0-2.1-0.1-3.4-0.1c-0.3,0-0.5,0.1-0.5,0.3c0,0.2,0.1,0.3,0.4,0.3c0.3,0,0.7,0,0.9,0.1c0.8,0.2,1,0.7,1,1.8c0,1,0,1.9,0,6.8
	L59.1,87.4L59.1,87.4z"/>
<path class="st0" d="M76.9,87.4c0,2.9,0,5.5-0.1,6.8c-0.1,0.9-0.2,1.6-0.7,1.8c-0.2,0.1-0.5,0.1-0.8,0.1c-0.3,0-0.4,0.1-0.4,0.3
	c0,0.2,0.2,0.3,0.5,0.3c0.9,0,2.4-0.1,2.8-0.1c0.3,0,2.1,0.1,3.4,0.1c0.3,0,0.5-0.1,0.5-0.3c0-0.2-0.1-0.3-0.3-0.3
	c-0.3,0-0.8-0.1-1.1-0.1c-0.7-0.1-0.8-0.8-0.9-1.8c-0.1-1.3-0.1-3.9-0.1-6.8v-0.5c0-0.2,0.1-0.3,0.2-0.3l2,0.1c0.2,0,0.3,0,0.4,0.2
	c0.3,0.5,1.4,2.6,2.3,4.4c1.3,2.5,2.2,4,3.2,4.7c0.6,0.4,1.2,0.6,2.5,0.6h2.2c0.3,0,0.4-0.1,0.4-0.3c0-0.2-0.1-0.3-0.3-0.3
	c-0.2,0-0.4,0-0.7-0.1c-0.4-0.1-1.3-0.3-2.6-2.2c-1.4-2-3-4.8-5.1-8.4c2.4-2.6,3.1-4.8,3.1-7.2c0-2.1-0.9-3.8-1.6-4.4
	c-1.3-1.2-2.8-1.4-4.3-1.4c-0.7,0-2.5,0.1-3.3,0.1c-0.5,0-2-0.1-3.2-0.1c-0.4,0-0.5,0.1-0.5,0.3c0,0.2,0.1,0.3,0.4,0.3
	c0.3,0,0.7,0,0.9,0.1c0.8,0.2,1,0.7,1,1.8c0,1,0,1.9,0,6.8L76.9,87.4L76.9,87.4z M79.7,74.6c0-0.3,0.1-0.4,0.2-0.4
	c0.2-0.1,0.7-0.1,1.2-0.1c1.4,0,3.6,1.3,3.6,5.8c0,2.6-0.7,4.1-1.4,4.8c-0.4,0.4-0.7,0.5-1.7,0.5c-0.6,0-1.3-0.1-1.8-0.3
	c-0.2-0.1-0.2-0.2-0.2-0.6V74.6L79.7,74.6z"/>
<path class="st0" d="M107,97c1.7,0,3.7-0.3,4.8-0.8c0.5-0.3,0.6-0.4,0.7-1c0.3-1.2,0.6-4.3,0.6-4.7c0-0.3-0.1-0.5-0.2-0.5
	c-0.2,0-0.3,0.1-0.3,0.7c-0.1,0.6-0.5,1.7-0.9,2.3c-1.1,1.6-2.5,2-4.9,2c-3.6,0-8.4-4.2-8.4-12.7c0-3.4,0.5-6.8,2.5-9.2
	c1.2-1.4,2.7-2.2,5-2.2c2.5,0,4.5,1,5.4,2.2c0.7,0.9,1,2.2,1,3.3c0,0.5,0.1,0.8,0.3,0.8c0.2,0,0.3-0.3,0.3-0.8
	c0.1-0.7,0-2.7,0.1-3.8c0.1-1.2,0.1-1.7,0.1-2c0-0.2-0.1-0.4-0.4-0.4c-0.8-0.1-1.7-0.4-2.7-0.6c-1.2-0.2-2.2-0.4-3.9-0.4
	c-4,0-6.5,1.4-8.4,3.8c-2.6,3.1-3.1,7.3-3.1,9.7c0,3.5,0.7,7.4,3.3,10.5C100.3,95.9,103.4,97,107,97L107,97z"/>
<g>
	<path class="st0" d="M63.2,122.7h-1.7v-5.3h-6.8v5.3h-1.7v-12.2h1.7v5.3h6.8v-5.3h1.7V122.7z"/>
	<path class="st0" d="M76.4,110.3c4,0,6.6,2.9,6.6,6.2c0,3.3-2.5,6.2-6.6,6.2c-4,0-6.5-2.9-6.5-6.2
		C69.8,113.2,72.4,110.3,76.4,110.3z M76.4,121.2c2.7,0,4.7-2,4.7-4.6c0-2.7-2-4.6-4.7-4.6c-2.7,0-4.7,2-4.7,4.6
		C71.6,119.2,73.6,121.2,76.4,121.2z"/>
	<path class="st0" d="M97.5,112.1h-4.2v10.6h-1.7v-10.6h-4.2v-1.6h10.2C97.5,110.5,97.5,112.1,97.5,112.1z"/>
	<path class="st0" d="M110.5,112.1h-5.2v3.7h5v1.6h-5v3.8h5.3v1.6h-7.1v-12.2h6.9V112.1z"/>
	<path class="st0" d="M118.7,121.1h5.5v1.6H117v-12.2h1.7V121.1z"/>
	<path class="st0" d="M136,113.2c-1-1-2-1.3-2.9-1.3c-1.1,0-1.9,0.6-1.9,1.4c0,2.3,5.3,2.3,5.3,6.2c0,1.9-1.4,3.3-3.4,3.3
		c-1.3,0-2.4-0.4-3.4-1.1v-2.2c0.9,1.1,2,1.8,3.2,1.8c1.4,0,2-0.9,2-1.5c0-2.5-5.3-2.8-5.3-6.1c0-2,1.5-3.2,3.7-3.2
		c0.9,0,1.9,0.3,2.7,0.9L136,113.2L136,113.2z"/>
	<path class="st0" d="M161.5,116.6c-0.3,1-1.1,2.2-2,3.2l2.5,2.9h-2.2l-1.4-1.7c-1.5,1.4-2.7,1.8-3.9,1.8c-1.7,0-3.1-1.3-3.1-2.9
		c0-1.5,1.2-2.6,2.9-3.6c-0.7-0.8-1.4-1.8-1.4-2.8c0-1.7,1.2-2.8,3.1-2.8c1.7,0,2.9,1.2,2.9,2.6c0,1.2-0.7,2.1-2.2,3.2l1.7,2
		c0.5-0.5,1-1.4,1.3-2L161.5,116.6L161.5,116.6z M155.3,117.5c-1.4,0.9-2.1,1.5-2.1,2.4c0.1,0.7,0.7,1.3,1.5,1.3
		c0.9,0,1.8-0.6,2.6-1.4L155.3,117.5z M155.7,115.4c1.3-0.8,1.6-1.4,1.6-2c0-0.7-0.6-1.2-1.4-1.2c-0.8,0-1.3,0.5-1.3,1.2
		C154.6,114.1,155.2,114.9,155.7,115.4z"/>
	<path class="st0" d="M180.4,110.5c2.5,0,4,1.3,4,3.4c0,1.4-0.7,2.5-2,3c1.1,0.7,1.8,1.9,2.7,3.4c0.5,0.8,0.8,1.2,1.7,2.4h-2.1
		l-1.6-2.5c-1.6-2.5-2.3-2.8-3.2-2.8h-0.7v5.3h-1.7v-12.2L180.4,110.5L180.4,110.5z M179.1,115.8h1.1c1.9,0,2.4-1,2.4-2
		c0-1.1-0.7-1.8-2.4-1.8h-1.1V115.8z"/>
	<path class="st0" d="M199.4,112.1h-5.2v3.7h5v1.6h-5v3.8h5.3v1.6h-7.1v-12.2h6.9L199.4,112.1L199.4,112.1z"/>
	<path class="st0" d="M211.7,113.2c-1-1-2-1.3-2.9-1.3c-1.1,0-1.9,0.6-1.9,1.4c0,2.3,5.3,2.3,5.3,6.2c0,1.9-1.4,3.3-3.4,3.3
		c-1.3,0-2.4-0.4-3.4-1.1v-2.2c0.9,1.1,2,1.8,3.2,1.8c1.4,0,2-0.9,2-1.5c0-2.5-5.3-2.8-5.3-6.1c0-2,1.5-3.2,3.7-3.2
		c0.9,0,1.9,0.3,2.7,0.9V113.2z"/>
	<path class="st0" d="M224.5,110.3c4,0,6.6,2.9,6.6,6.2c0,3.3-2.5,6.2-6.6,6.2c-4,0-6.5-2.9-6.5-6.2
		C218,113.2,220.6,110.3,224.5,110.3z M224.5,121.2c2.7,0,4.7-2,4.7-4.6c0-2.7-2-4.6-4.7-4.6c-2.7,0-4.7,2-4.7,4.6
		C219.8,119.2,221.8,121.2,224.5,121.2z"/>
	<path class="st0" d="M240.8,110.5c2.5,0,4,1.3,4,3.4c0,1.4-0.7,2.5-2,3c1.1,0.7,1.8,1.9,2.7,3.4c0.5,0.8,0.8,1.2,1.7,2.4H245
		l-1.6-2.5c-1.6-2.5-2.3-2.8-3.2-2.8h-0.7v5.3h-1.8v-12.2L240.8,110.5L240.8,110.5z M239.5,115.8h1.1c1.9,0,2.4-1,2.4-2
		c0-1.1-0.7-1.8-2.4-1.8h-1.1V115.8z"/>
	<path class="st0" d="M260.5,112.1h-4.2v10.6h-1.8v-10.6h-4.2v-1.6h10.2L260.5,112.1L260.5,112.1z"/>
	<path class="st0" d="M272.3,113.2c-1-1-2-1.3-2.9-1.3c-1.1,0-1.9,0.6-1.9,1.4c0,2.3,5.3,2.3,5.3,6.2c0,1.9-1.4,3.3-3.4,3.3
		c-1.3,0-2.4-0.4-3.4-1.1v-2.2c0.9,1.1,2,1.8,3.2,1.8c1.4,0,2-0.9,2-1.5c0-2.5-5.3-2.8-5.3-6.1c0-2,1.5-3.2,3.7-3.2
		c0.9,0,1.9,0.3,2.7,0.9L272.3,113.2L272.3,113.2z"/>
</g>
<g>
	<path class="st0" d="M156.5,0c-4,3.4-18.8,10.8-18.8,27.8c0,16.9,14.8,24.4,18.8,27.8c4-3.4,18.6-10.8,18.6-27.8
		C175.2,10.8,160.5,3.4,156.5,0z M156.5,52.7v1.4c-3.8-3.2-17.5-10.3-17.5-26.3c0-16,13.7-23.1,17.5-26.3v1.4
		c3.6,3,16.2,9.7,16.2,24.9C172.7,43,160.1,49.7,156.5,52.7z"/>
	<path class="st0" d="M156.5,4.4c-3.4,2.8-15,9.1-15,23.4c0,14.2,11.7,20.5,15,23.4c3.3-2.8,14.9-9.1,14.9-23.4
		C171.4,13.5,159.9,7.2,156.5,4.4z M163.8,14.8c-2.4,0-4.5,2-4.5,5.4v15.3c0,3.3,2.3,5.4,4.5,5.4v0.5h-14.5v-0.5
		c2.3,0,4.5-2,4.5-5.4V20.1c0-3.3-2.2-5.4-4.5-5.4v-0.5h14.5V14.8z"/>
</g>
</svg>
