<?xml version="1.0" encoding="utf-8"?>
<!-- Generator: Adobe Illustrator 20.0.0, SVG Export Plug-In . SVG Version: 6.00 Build 0)  -->
<svg version="1.1" id="Layer_1" xmlns="http://www.w3.org/2000/svg" xmlns:xlink="http://www.w3.org/1999/xlink" x="0px" y="0px"
	 viewBox="0 0 150 102.8" style="enable-background:new 0 0 150 102.8;" xml:space="preserve">
<style type="text/css">
	.st0{fill:none;stroke:white;stroke-width:0.7087;}
	.st1{fill:white;}
</style>
<g id="Lines">
	<line class="st0" x1="0" y1="84.6" x2="150" y2="84.6"/>
	<line class="st0" x1="0" y1="102.5" x2="150" y2="102.5"/>
</g>
<g id="Letters">
	<path class="st1" d="M9.8,97.7c0.1,0.1,0.1,0.3,0,0.4c-0.5,0-0.9,0-1.4,0c-0.5,0-1,0-1.5,0c-0.1-0.1-0.1-0.3,0-0.4l0.3-0.1
		c0.5-0.1,0.5-0.2,0.5-1.1v-4.3V91h0c-0.3,0.7-0.5,1.1-0.7,1.7l-1,2.4c-0.4,0.9-1,2.4-1.2,3.1c0,0.1-0.2,0.1-0.3,0
		c-0.2-0.7-0.7-2-1-2.7l-1-2.6C2.3,92.2,2,91.4,1.8,91h0c0,0.7,0,1.7-0.1,2.3c0,0.8,0,2,0,3.1c0,0.9,0,1.1,0.5,1.2l0.4,0.1
		c0.1,0.1,0.1,0.3,0,0.4c-0.4,0-0.8,0-1.2,0c-0.4,0-0.8,0-1.2,0C0,98,0,97.7,0.1,97.7l0.2,0c0.5-0.1,0.6-0.3,0.7-1.1
		c0.1-0.8,0.1-1.7,0.2-3.1c0-0.9,0.1-2,0.1-2.9c0-0.6-0.2-0.9-0.6-1l-0.4-0.1c-0.1-0.1-0.1-0.4,0-0.4c0.3,0,0.7,0,1.1,0
		c0.4,0,0.8,0,1.2,0c0,0.8,0.3,1.5,0.6,2.2l1.3,3.1c0.1,0.2,0.4,0.9,0.5,1.2c0.2-0.4,0.3-0.8,0.6-1.4l1.1-2.6
		c0.4-0.9,0.7-1.7,0.9-2.6c0.3,0,0.7,0,0.9,0c0.5,0,0.9,0,1.2,0c0.1,0.1,0.1,0.3,0,0.4l-0.4,0.1c-0.5,0.1-0.6,0.3-0.6,1
		c0,2,0,4,0.1,6c0,0.9,0.2,1,0.5,1.1L9.8,97.7z"/>
	<path class="st1" d="M14.3,94.7c-0.3,0-0.3,0-0.4,0.4l-0.5,1.6c-0.2,0.8-0.2,0.8,0.2,0.9l0.3,0.1c0.1,0.1,0.1,0.3,0,0.4
		c-0.4,0-0.7,0-1.2,0c-0.4,0-0.7,0-1.1,0c-0.1-0.1-0.1-0.3,0-0.4l0.3-0.1c0.3-0.1,0.5-0.2,0.6-0.6c0.1-0.4,0.3-0.9,0.6-1.6l1.6-4.8
		c0.1-0.4,0.3-0.8,0.2-1c0.4-0.1,0.8-0.6,0.8-0.6c0.1,0,0.1,0,0.2,0.1c0.2,0.6,0.3,1.2,0.5,1.8l1.6,5.6c0.3,0.9,0.3,1,0.9,1.1l0.2,0
		c0.1,0.1,0.1,0.3,0,0.4c-0.5,0-0.9,0-1.5,0c-0.5,0-1,0-1.4,0c-0.1-0.1-0.1-0.3,0-0.4l0.3,0c0.4-0.1,0.4-0.1,0.3-0.7l-0.5-1.8
		c-0.1-0.4-0.1-0.4-0.5-0.4C15.8,94.7,14.3,94.7,14.3,94.7z M15.6,94.1c0.3,0,0.4,0,0.3-0.4l-0.5-1.6c-0.2-0.7-0.3-1-0.3-1.1h0
		c0,0.1-0.1,0.4-0.3,1.1l-0.5,1.6c-0.1,0.4-0.1,0.4,0.2,0.4L15.6,94.1L15.6,94.1z"/>
	<path class="st1" d="M28,95.7c0,0.4,0,2.1,0,2.4c-0.1,0.1-0.3,0.2-0.4,0.2c-0.2-0.3-0.5-0.7-1.3-1.8l-2.7-3.6
		c-0.7-1-1.1-1.5-1.3-1.7c0,0,0,0.1,0,0.9v2.6c0,1,0,2.3,0.2,2.7c0.1,0.2,0.3,0.3,0.6,0.3l0.3,0c0.1,0.1,0.1,0.3,0,0.4
		c-0.4,0-0.9,0-1.3,0c-0.5,0-0.8,0-1.2,0c-0.1-0.1-0.1-0.3,0-0.4l0.3-0.1c0.2,0,0.4-0.1,0.5-0.3c0.1-0.4,0.1-1.6,0.1-2.7v-3.2
		c0-1.1,0-1.3-0.4-1.7c-0.1-0.1-0.4-0.2-0.6-0.3l-0.2,0c-0.1-0.1-0.1-0.4,0-0.4c0.4,0.1,1.1,0,1.4,0c0.2,0,0.5,0,0.8,0
		c0.2,0.6,1.4,2.3,1.8,2.8l1.1,1.5c0.5,0.6,1.5,2,1.7,2.1c0,0,0-0.1,0-0.3v-2.6c0-1,0-2.2-0.2-2.7c-0.1-0.2-0.3-0.3-0.6-0.3l-0.3,0
		c-0.1-0.1-0.1-0.4,0-0.4c0.4,0,0.9,0,1.3,0c0.5,0,0.8,0,1.2,0c0.1,0.1,0.1,0.3,0,0.4l-0.3,0.1c-0.2,0-0.4,0.1-0.5,0.3
		C28,90.3,28,91.4,28,92.5L28,95.7L28,95.7z"/>
	<path class="st1" d="M32.2,91.1c0-1.3,0-1.5-0.5-1.5l-0.2,0c-0.1-0.1-0.1-0.3,0-0.4c0.8-0.1,1.7-0.1,2.9-0.1c1.1,0,1.9,0.1,2.7,0.5
		c1.4,0.6,2.3,2,2.3,4c0,1.5-0.6,3-2,3.9c-0.8,0.5-1.8,0.6-2.8,0.6c-0.7,0-1.2-0.1-1.7-0.1c-0.4,0-1,0-1.5,0c-0.1-0.1-0.1-0.3,0-0.4
		l0.3,0c0.5-0.1,0.6-0.1,0.6-1.5V91.1z M33.6,95.5c0,1.3,0.1,2,1.3,2c2,0,3-1.7,3-4c0-2.7-1.3-4-3.2-4c-0.5,0-0.8,0.1-0.9,0.2
		c-0.1,0.1-0.1,0.4-0.1,1L33.6,95.5L33.6,95.5z"/>
	<path class="st1" d="M42.8,94.7c-0.3,0-0.3,0-0.4,0.4l-0.5,1.6c-0.2,0.8-0.2,0.8,0.2,0.9l0.3,0.1c0.1,0.1,0.1,0.3,0,0.4
		c-0.4,0-0.7,0-1.2,0c-0.4,0-0.7,0-1.1,0c-0.1-0.1-0.1-0.3,0-0.4l0.3-0.1c0.3-0.1,0.5-0.2,0.6-0.6c0.1-0.4,0.3-0.9,0.6-1.6l1.6-4.8
		c0.1-0.4,0.3-0.8,0.2-1c0.4-0.1,0.8-0.6,0.8-0.6c0.1,0,0.1,0,0.2,0.1c0.2,0.6,0.3,1.2,0.5,1.8l1.6,5.6c0.3,0.9,0.3,1,0.9,1.1l0.2,0
		c0.1,0.1,0.1,0.3,0,0.4c-0.5,0-0.9,0-1.5,0c-0.5,0-1,0-1.4,0c-0.1-0.1-0.1-0.3,0-0.4l0.3,0c0.4-0.1,0.4-0.1,0.3-0.7l-0.5-1.8
		c-0.1-0.4-0.1-0.4-0.5-0.4C44.3,94.7,42.8,94.7,42.8,94.7z M44.2,94.1c0.3,0,0.4,0,0.3-0.4l-0.5-1.6c-0.2-0.7-0.3-1-0.3-1.1h0
		c0,0.1-0.1,0.4-0.3,1.1l-0.5,1.6c-0.1,0.4-0.1,0.4,0.2,0.4L44.2,94.1L44.2,94.1z"/>
	<path class="st1" d="M49.9,91.1c0-1.3,0-1.5-0.5-1.5l-0.3,0c-0.1-0.1-0.1-0.3,0-0.4c0.7-0.1,1.7-0.1,2.6-0.1c0.9,0,1.7,0.1,2.2,0.5
		c0.6,0.4,1,1,1,2c0,1.2-0.8,1.9-1.4,2.1c-0.1,0,0,0.1,0,0.2c0.9,1.8,1.5,3,2,3.5c0.3,0.3,0.5,0.3,0.6,0.3c0.1,0.1,0,0.4,0,0.4l-2,0
		c0,0-0.3-0.4-1-1.7c-0.3-0.6-0.6-1.3-0.9-1.8C52.1,94.1,52,94,51.6,94c-0.3,0-0.4,0-0.4,0.3v1.7c0,1.4,0.1,1.5,0.6,1.5l0.3,0
		c0.1,0.1,0.1,0.3,0,0.4c-0.5,0-1,0-1.5,0s-1,0-1.5,0c-0.1-0.1-0.1-0.3,0-0.4l0.3,0c0.5-0.1,0.6-0.1,0.6-1.5V91.1z M51.2,93.1
		c0,0.4,0,0.5,0.6,0.5c1.1,0,1.6-0.6,1.6-1.9c0-1.1-0.6-2-1.6-2c-0.6,0-0.6,0-0.6,0.7L51.2,93.1L51.2,93.1z"/>
	<path class="st1" d="M90.1,91.1c0-1.3,0-1.5-0.5-1.5l-0.3,0c-0.1-0.1-0.1-0.3,0-0.4c0.7-0.1,1.7-0.1,2.6-0.1c0.9,0,1.7,0.1,2.2,0.5
		c0.6,0.4,1,1,1,2c0,1.2-0.8,1.9-1.4,2.1c-0.1,0,0,0.1,0,0.2c0.9,1.8,1.5,3,2,3.5c0.3,0.3,0.5,0.3,0.6,0.3c0.1,0.1,0,0.4,0,0.4l-2,0
		c0,0-0.3-0.4-1-1.7c-0.3-0.6-0.6-1.3-0.9-1.8c-0.2-0.4-0.3-0.5-0.7-0.5c-0.3,0-0.4,0-0.4,0.3v1.7c0,1.4,0.1,1.5,0.6,1.5l0.3,0
		c0.1,0.1,0.1,0.3,0,0.4c-0.5,0-1,0-1.5,0c-0.5,0-1,0-1.5,0c-0.1-0.1-0.1-0.3,0-0.4l0.3,0c0.5-0.1,0.6-0.1,0.6-1.5L90.1,91.1
		L90.1,91.1z M91.5,93.1c0,0.4,0,0.5,0.5,0.5c1.1,0,1.6-0.6,1.6-1.9c0-1.1-0.6-2-1.6-2c-0.6,0-0.6,0-0.6,0.7L91.5,93.1L91.5,93.1z"
		/>
	<path class="st1" d="M60.1,96.1c0,1.4,0.1,1.5,0.6,1.5l0.3,0c0.1,0.1,0.1,0.3,0,0.4c-0.5,0-1,0-1.5,0s-1,0-1.5,0
		c-0.1-0.1-0.1-0.3,0-0.4l0.3,0c0.5-0.1,0.6-0.1,0.6-1.5v-5c0-1.4-0.1-1.5-0.6-1.5l-0.3,0c-0.1-0.1-0.1-0.3,0-0.4c0.5,0,1,0,1.5,0
		c0.5,0,1,0,1.5,0c0.1,0.1,0.1,0.3,0,0.4l-0.3,0c-0.5,0.1-0.6,0.1-0.6,1.5V96.1z"/>
	<path class="st1" d="M71.1,95.7c0,0.4,0,2.1,0,2.4c-0.1,0.1-0.3,0.2-0.4,0.2c-0.2-0.3-0.5-0.7-1.3-1.8l-2.7-3.6
		c-0.7-1-1.1-1.5-1.3-1.7c0,0,0,0.1,0,0.9v2.6c0,1,0,2.3,0.2,2.7c0.1,0.2,0.3,0.3,0.6,0.3l0.3,0c0.1,0.1,0.1,0.3,0,0.4
		c-0.4,0-0.9,0-1.3,0c-0.5,0-0.8,0-1.2,0c-0.1-0.1-0.1-0.3,0-0.4l0.3-0.1c0.2,0,0.4-0.1,0.5-0.3c0.1-0.4,0.1-1.6,0.1-2.7v-3.2
		c0-1.1,0-1.3-0.4-1.7c-0.1-0.1-0.4-0.2-0.6-0.3l-0.2,0c-0.1-0.1-0.1-0.4,0-0.4c0.4,0.1,1.1,0,1.4,0c0.2,0,0.5,0,0.8,0
		c0.2,0.6,1.4,2.3,1.8,2.8l1.1,1.5c0.5,0.6,1.5,2,1.7,2.1c0,0,0-0.1,0-0.3v-2.6c0-1,0-2.2-0.2-2.7c-0.1-0.2-0.3-0.3-0.6-0.3l-0.3,0
		c-0.1-0.1-0.1-0.4,0-0.4c0.4,0,0.9,0,1.3,0c0.5,0,0.8,0,1.2,0c0.1,0.1,0.1,0.3,0,0.4l-0.3,0.1c-0.2,0-0.4,0.1-0.5,0.3
		c-0.2,0.4-0.2,1.6-0.2,2.7L71.1,95.7L71.1,95.7z"/>
	<path class="st1" d="M86.8,93.6c0,2.7-1.7,4.6-4,4.6c-2.6,0-4.1-2.1-4.1-4.5c0-2.8,1.7-4.8,4.1-4.8C85.4,88.9,86.8,91.1,86.8,93.6
		 M80.2,93.3c0,1.9,0.7,4.4,2.6,4.4c1.3,0,2.4-1.1,2.4-3.9c0-2-0.8-4.4-2.6-4.4C81.5,89.4,80.2,90.4,80.2,93.3"/>
	<path class="st1" d="M101.2,96.1c0,1.4,0.1,1.5,0.6,1.5l0.3,0c0.1,0.1,0.1,0.3,0,0.4c-0.5,0-1,0-1.5,0c-0.5,0-1,0-1.5,0
		c-0.1-0.1-0.1-0.3,0-0.4l0.3,0c0.5-0.1,0.6-0.1,0.6-1.5v-5c0-1.4-0.1-1.5-0.6-1.5l-0.3,0c-0.1-0.1-0.1-0.3,0-0.4c0.5,0,1,0,1.5,0
		c0.5,0,1,0,1.5,0c0.1,0.1,0.1,0.3,0,0.4l-0.3,0c-0.5,0.1-0.6,0.1-0.6,1.5V96.1z"/>
	<path class="st1" d="M106.5,91.1c0-1.4-0.1-1.5-0.6-1.6l-0.2,0c-0.1-0.1-0.1-0.3,0-0.4c0.4,0,1,0,1.5,0h2.2c0.7,0,1.4,0,1.5,0
		c0,0.2,0.1,1.3,0.2,1.9c0,0.1-0.3,0.1-0.4,0.1c-0.2-0.8-0.4-1.1-0.7-1.2c-0.3-0.1-0.6-0.1-0.9-0.1h-0.8c-0.5,0-0.5,0-0.5,0.8v2.3
		c0,0.3,0,0.4,0.3,0.4h0.6c1,0,1.2,0,1.3-0.6L110,92c0.1-0.1,0.3-0.1,0.4,0c0,0.4,0,0.8,0,1.3c0,0.5,0,1,0,1.4
		c-0.1,0.1-0.3,0.1-0.4,0l-0.1-0.5c-0.1-0.6-0.3-0.6-1.3-0.6h-0.6c-0.3,0-0.3,0-0.3,0.4v1.7c0,0.7,0,1.2,0.2,1.4
		c0.1,0.2,0.3,0.3,1.3,0.3c1.5,0,1.7-0.4,2.1-1.5c0.1-0.1,0.3-0.1,0.4,0.1c-0.1,0.6-0.3,1.6-0.5,2c-0.5,0-1.5,0-2.8,0h-1.3
		c-0.5,0-1.2,0-1.7,0c-0.1-0.1-0.1-0.3,0-0.4l0.4-0.1c0.5-0.1,0.6-0.1,0.6-1.5L106.5,91.1L106.5,91.1z"/>
	<path class="st1" d="M121.8,95.7c0,0.4,0,2.1,0,2.4c-0.1,0.1-0.3,0.2-0.4,0.2c-0.2-0.3-0.5-0.7-1.3-1.8l-2.7-3.6
		c-0.7-1-1.1-1.5-1.3-1.7c0,0,0,0.1,0,0.9v2.6c0,1,0,2.3,0.2,2.7c0.1,0.2,0.3,0.3,0.6,0.3l0.3,0c0.1,0.1,0.1,0.3,0,0.4
		c-0.4,0-0.9,0-1.3,0c-0.5,0-0.8,0-1.2,0c-0.1-0.1-0.1-0.3,0-0.4l0.3-0.1c0.2,0,0.4-0.1,0.5-0.3c0.1-0.4,0.1-1.6,0.1-2.7v-3.2
		c0-1.1,0-1.3-0.4-1.7c-0.1-0.1-0.4-0.2-0.6-0.3l-0.2,0c-0.1-0.1-0.1-0.4,0-0.4c0.4,0.1,1.1,0,1.4,0c0.2,0,0.5,0,0.8,0
		c0.2,0.6,1.4,2.3,1.8,2.8l1.1,1.5c0.5,0.6,1.5,2,1.7,2.1c0,0,0-0.1,0-0.3v-2.6c0-1,0-2.2-0.2-2.7c-0.1-0.2-0.3-0.3-0.6-0.3l-0.3,0
		c-0.1-0.1-0.1-0.4,0-0.4c0.4,0,0.9,0,1.3,0c0.5,0,0.8,0,1.2,0c0.1,0.1,0.1,0.3,0,0.4l-0.3,0.1c-0.2,0-0.4,0.1-0.5,0.3
		c-0.2,0.4-0.2,1.6-0.2,2.7L121.8,95.7L121.8,95.7z"/>
	<path class="st1" d="M128.3,90.3c0-0.6,0-0.6-0.3-0.6h-0.6c-1.1,0-1.4,0.1-1.8,1.2c-0.1,0.1-0.3,0-0.4-0.1c0.2-0.7,0.4-1.6,0.4-2
		c0,0,0.1-0.1,0.1-0.1c0,0,0.1,0,0.1,0.1c0.1,0.3,0.2,0.4,1,0.4h4.7c0.6,0,0.7,0,0.9-0.4c0,0,0.1-0.1,0.1-0.1c0.1,0,0.1,0,0.1,0.1
		c-0.1,0.6-0.2,1.7-0.2,2.1c-0.1,0.1-0.3,0.1-0.4,0c-0.1-1.1-0.4-1.3-1.6-1.3H130c-0.3,0-0.3,0-0.3,0.6v5.8c0,1.4,0.1,1.5,0.6,1.5
		l0.4,0.1c0.1,0.1,0.1,0.3,0,0.4c-0.7,0-1.2,0-1.7,0c-0.5,0-1,0-1.8,0c-0.1-0.1-0.1-0.3,0-0.4l0.5-0.1c0.5-0.1,0.6-0.1,0.6-1.5
		L128.3,90.3L128.3,90.3z"/>
	<path class="st1" d="M136.6,94.7c-0.3,0-0.3,0-0.4,0.4l-0.5,1.6c-0.2,0.8-0.2,0.8,0.2,0.9l0.3,0.1c0.1,0.1,0.1,0.3,0,0.4
		c-0.4,0-0.7,0-1.2,0c-0.4,0-0.7,0-1.1,0c-0.1-0.1-0.1-0.3,0-0.4l0.3-0.1c0.3-0.1,0.5-0.2,0.6-0.6c0.1-0.4,0.3-0.9,0.6-1.6l1.6-4.8
		c0.1-0.4,0.3-0.8,0.2-1c0.4-0.1,0.8-0.6,0.8-0.6c0.1,0,0.1,0,0.2,0.1c0.2,0.6,0.3,1.2,0.5,1.8l1.6,5.6c0.3,0.9,0.3,1,0.9,1.1l0.2,0
		c0.1,0.1,0.1,0.3,0,0.4c-0.5,0-0.9,0-1.5,0c-0.5,0-1,0-1.4,0c-0.1-0.1-0.1-0.3,0-0.4l0.3,0c0.4-0.1,0.4-0.1,0.3-0.7l-0.5-1.8
		c-0.1-0.4-0.1-0.4-0.5-0.4C138.1,94.7,136.6,94.7,136.6,94.7z M138,94.1c0.3,0,0.4,0,0.3-0.4l-0.5-1.6c-0.2-0.7-0.3-1-0.3-1.1h0
		c0,0.1-0.1,0.4-0.3,1.1l-0.5,1.6c-0.1,0.4-0.1,0.4,0.2,0.4L138,94.1L138,94.1z"/>
	<path class="st1" d="M146.2,95.8c0,0.7,0,1.2,0.2,1.4c0.1,0.2,0.3,0.3,1.2,0.3c1.3,0,1.5-0.1,2-1.5c0.1-0.1,0.3,0,0.4,0.1
		c-0.1,0.6-0.3,1.6-0.5,2c-0.5,0-1.5,0-2.8,0h-1.2c-0.6,0-1.2,0-1.6,0c-0.1-0.1-0.1-0.3,0-0.4l0.3-0.1c0.5-0.1,0.6-0.1,0.6-1.5v-5
		c0-1.4-0.1-1.4-0.6-1.5l-0.3-0.1c-0.1-0.1-0.1-0.3,0-0.4c0.6,0,1.1,0,1.6,0c0.5,0,1,0,1.5,0c0.1,0.1,0.1,0.3,0,0.4l-0.3,0.1
		c-0.5,0.1-0.6,0.1-0.6,1.5L146.2,95.8L146.2,95.8z"/>
</g>
<g id="Fan">
	<path class="st1" d="M78.2,56c-0.7-0.1-1.4-0.1-2-0.1c-0.7,0-1.4,0-2.1,0.1l1.8,16.9h0.7L78.2,56z"/>
	<path class="st1" d="M78.3,54.6c-0.7-0.1-1.4-0.1-2.2-0.1c-0.8,0-1.5,0-2.3,0.1L67.9,0l15.5,2.1L78.3,54.6z"/>
	<path class="st1" d="M83.7,57c-0.6-0.2-1.3-0.4-2-0.5c-0.7-0.2-1.4-0.3-2.1-0.4L77.9,73l0.7,0.2L83.7,57z"/>
	<path class="st1" d="M84.2,55.7c-0.7-0.2-1.4-0.4-2.1-0.5c-0.8-0.2-1.5-0.3-2.3-0.4l5.7-54.6l14.7,5.2L84.2,55.7z"/>
	<path class="st1" d="M72.5,56.2c-0.7,0.1-1.3,0.2-2,0.4c-0.7,0.2-1.4,0.3-2.1,0.5l5.3,16.1l0.7-0.2L72.5,56.2z"/>
	<path class="st1" d="M72.3,54.8c-0.7,0.1-1.4,0.2-2.1,0.4c-0.8,0.2-1.5,0.4-2.2,0.6L50.8,3.5l15.6-1.2L72.3,54.8z"/>
	<path class="st1" d="M67,57.5c-0.6,0.2-1.3,0.5-1.9,0.8c-0.7,0.3-1.3,0.6-1.9,1l8.5,14.6l0.7-0.3L67,57.5z"/>
	<path class="st1" d="M66.5,56.2c-0.7,0.2-1.4,0.5-2,0.8c-0.7,0.3-1.4,0.7-2.1,1L34.7,10.6l15-4.4L66.5,56.2z"/>
	<path class="st1" d="M61.8,60c-0.6,0.4-1.1,0.7-1.7,1.1c-0.6,0.4-1.1,0.9-1.7,1.3L69.9,75l0.6-0.4L61.8,60z"/>
	<path class="st1" d="M61.1,58.8c-0.6,0.4-1.2,0.8-1.8,1.2c-0.6,0.5-1.2,0.9-1.8,1.4l-37-40.6l13.7-7.5L61.1,58.8z"/>
	<path class="st1" d="M57.4,63.5c-0.5,0.5-1,1-1.4,1.5c-0.5,0.5-0.9,1.1-1.4,1.7l13.8,9.9l0.5-0.5L57.4,63.5z"/>
	<path class="st1" d="M56.4,62.4c-0.5,0.5-1,1-1.5,1.6c-0.5,0.6-1,1.2-1.5,1.8L8.8,33.8l11.8-10.2L56.4,62.4z"/>
	<path class="st1" d="M53.7,67.8c-0.4,0.6-0.7,1.1-1.1,1.7c-0.4,0.6-0.7,1.3-1,1.9l15.5,6.8l0.4-0.6L53.7,67.8z"/>
	<path class="st1" d="M52.6,67c-0.4,0.6-0.8,1.2-1.2,1.8c-0.4,0.7-0.7,1.4-1.1,2L0,49l9.4-12.4L52.6,67z"/>
	<path class="st1" d="M89,59.2c-0.6-0.3-1.2-0.6-1.8-0.9c-0.7-0.3-1.3-0.6-2-0.8l-5.2,16.1l0.7,0.3L89,59.2z"/>
	<path class="st1" d="M89.7,58c-0.6-0.3-1.3-0.7-2-1c-0.7-0.3-1.4-0.6-2.1-0.9l17-52.2l13.3,8.2L89.7,58z"/>
	<path class="st1" d="M93.7,62.4c-0.5-0.4-1-0.9-1.6-1.3c-0.6-0.4-1.2-0.8-1.8-1.2l-8.5,14.7l0.6,0.4L93.7,62.4z"/>
	<path class="st1" d="M94.6,61.3c-0.5-0.5-1.1-0.9-1.7-1.4c-0.6-0.5-1.3-0.9-1.9-1.3l27.5-47.5L129.8,22L94.6,61.3z"/>
	<path class="st1" d="M97.6,66.5c-0.4-0.5-0.8-1.1-1.3-1.6c-0.5-0.5-1-1.1-1.5-1.5L83.4,76l0.5,0.5L97.6,66.5z"/>
	<path class="st1" d="M98.7,65.7c-0.4-0.6-0.9-1.1-1.4-1.7c-0.5-0.6-1-1.1-1.6-1.6l36.8-40.7l8.8,12.9L98.7,65.7z"/>
	<path class="st1" d="M100.5,71.4c-0.3-0.6-0.6-1.2-0.9-1.8c-0.4-0.6-0.7-1.2-1.1-1.8l-13.8,9.9l0.4,0.6L100.5,71.4z"/>
	<path class="st1" d="M101.8,70.8c-0.3-0.7-0.6-1.3-1-1.9c-0.4-0.7-0.8-1.3-1.2-1.9l44.5-32.1l5.9,14.5L101.8,70.8z"/>
</g>
</svg>
