<?xml version="1.0" encoding="utf-8"?>
<!-- Generator: Adobe Illustrator 20.0.0, SVG Export Plug-In . SVG Version: 6.00 Build 0)  -->
<svg version="1.1" id="svg20392" xmlns:svg="http://www.w3.org/2000/svg"
	 xmlns="http://www.w3.org/2000/svg" xmlns:xlink="http://www.w3.org/1999/xlink" x="0px" y="0px" viewBox="0 0 708.7 348.8"
	 style="enable-background:new 0 0 708.7 348.8;" xml:space="preserve">
<style type="text/css">
	.st0{fill:#FFFFFF;}
</style>
<path id="path13762" class="st0" d="M655,241.8c-8.9-4.6-10.3-17.7-10.1-49.6l0.2-48.8l-17,0l3.9-9h13v-23.1l31.1-11.6v33.9l14.4,0
	l-3.7,10l-10.6,0v84.4c0.6,6.8,3,10.8,6.1,13.7H655"/>
<path id="path13764" class="st0" d="M193.8,319.2c-1-2.7-3-4.5-5.9-4.5c-4.1,0-5.7,2.1-5.7,5.1c0,7,15.8,5.7,15.8,17.6
	c0,6.6-5.7,11.4-13.8,11.4c-2.8,0-5.9-0.7-8.3-2.2c0.6-2.2,1.2-4.4,1.6-6.6h1c0.6,3.6,3.5,5.7,7.1,5.7c3.2,0,6.1-1.8,6.1-5.4
	c0-8.3-15.6-5.3-15.6-17.8c0-6,4.1-10.9,12-10.9c3.7,0,7.1,1.4,8.1,2.5c-0.6,1.7-1,3.4-1.6,5.1H193.8"/>
<path id="path13766" class="st0" d="M348.1,33.2c2.4,6.5,7.9,13.3,3.9,20.8c-1.8,7.7-9.1,13.9-16.8,15.2c-8.1,0.7-15.6-0.6-21.7-5.5
	c-4.1-22.2,4.9-42.7,22.5-55L348.1,33.2"/>
<g id="g13772" transform="matrix(19.71242,0,0,-19.71242,-3374.102,1993.491)">
	<path id="path13774" class="st0" d="M190.4,96c-0.2-0.7-2.2-0.2-2.8,0.9c0.8-0.1,1.8,0.6,1.8,1.5L190.4,96"/>
</g>
<g id="g13780" transform="matrix(19.71242,0,0,-19.71242,-3374.102,1993.491)">
	<path id="path13782" class="st0" d="M191.2,96.1c0.1,0,0.3,0.1,0.3,0.3l-2.2,4.7c-0.1,0-0.2,0-0.4-0.1L191.2,96.1"/>
</g>
<path id="path13784" class="st0" d="M414.6,79c18.1-27.5,3-72.6-36.3-78.9L414.6,79"/>
<path id="path13786" class="st0" d="M0,287.3h684.8v-5.2H0V287.3z"/>
<path id="path13788" class="st0" d="M221.6,329.6c0-2-1.8-3.6-3.7-3.6s-3.5,1.6-3.5,3.6c0,2,1.6,3.6,3.5,3.6
	S221.6,331.6,221.6,329.6"/>
<path id="path13790" class="st0" d="M410.6,138.2c5.7-4.8,15.8-4.9,22.3-1.8c2.8,1.4,5.3,3.2,7.1,5.6l-12.6,19.6
	c-1.6-1.3-2.8-1.8-4.7-2.9c-6.3-2.7-12.8-1.1-16.6,2.3V218c-0.2,9.9,1.6,18.9,6.7,23.6h-28.6c-6.1-4.6-7.5-11.9-8.1-18.3l-0.2-75.9
	c0.2-6.2-1.4-8.9-3.7-12.3l29.6,0.1c2.4,1.7,2.6,4.7,3.7,7L410.6,138.2"/>
<path id="path13792" class="st0" d="M446.7,157c-0.2-7.2,1.4-15.8-3.4-22.1h27.4c2,1.4,3,3.7,3.5,5.8c1.6,1.9,1.4,4.7,2,7l0.4,80.9
	c1,4.8,3,9.7,6.5,13.4l-29.4,0.1c-9.7-9.3-6.5-24.6-7.3-40.4L446.7,157"/>
<path id="path13794" class="st0" d="M490.2,157.8c3-8.2,12.2-12.3,18.9-16.8c10.3-3.8,21.7-13.1,33.1-5.5
	c9.7,6.3,18.1,13.4,24.2,23.1c1.4,3.8,2.2,8,3.2,12c0,5.4,1.2,9.4,1,14.8c0.4,5.8,0.4,11.1,0,16.8c-0.4,9.7-4.9,18.4-12.6,25.2
	c-11.4,10.2-25.8,21.7-41.4,13.8c-14-6.5-30.4-19.4-29.4-37.2c-0.6-12.6-1.2-23.4,0.6-35.7C488.5,164.7,488.3,160.9,490.2,157.8z
	 M518.8,214.9c1.4,5,3.9,11.2,10.1,11.9c3.5,0.1,6.1-2.9,8.3-5.4c6.3-12.6,5.3-26.3,5.3-40.6c-2-10.6,0.6-25.2-10.8-31.7
	c-4.1-1.5-7.1,1.3-9.7,3.8c-4.5,6.7-4.9,14.5-5.3,23C515.3,189.7,516.9,201.1,518.8,214.9"/>
<path id="path13796" class="st0" d="M591,241.8c-8.9-4.6-10.3-17.7-10.1-49.6l0.2-48.8l-16.8,0l3.7-9h13v-23.1l31.3-11.6v33.9
	l14.2,0l-3.7,10l-10.4,0v84.4c0.6,6.8,3,10.8,6.1,13.7H591"/>
<path id="path13798" class="st0" d="M305.5,147.4c-0.2-6.2-1.4-8.9-3.7-12.3l29.6,0.1c2.4,1.7,2.6,4.7,3.7,7l5.1-4
	c5.7-4.8,15.8-4.9,22.3-1.8c2.8,1.4,5.3,3.2,7.1,5.6L357,161.5c-1.6-1.3-2.8-1.8-4.7-2.9c-6.3-2.7-12.8-1.1-16.6,2.3V218
	c-0.2,9.9,1.6,18.9,6.7,23.6h-28.6c-5.9-4.6-7.7-11.4-8.1-18.3L305.5,147.4"/>
<path id="path13800" class="st0" d="M81.4,177.4l-10.6,22.2c-7.5,13.1-17.7,29.1-33.5,33.1c-6.1,2.1-11.6,0.2-17.5-0.2L0.6,263.7
	c1.6,1.5,3.5,2.8,5.5,3.6c33.5,12.8,47.1-1,80-75.7l31.3,66.6h41.6l-19.7-44.9l11.2-23.2l30.8,67.1l39.8,0.3l-69.8-153.1l-32.1,15.9
	l25.2,57.1l-11,22.5l-46.1-99.5l-33.7,17.2L81.4,177.4"/>
<path id="path13802" class="st0" d="M209.3,204.4c0.8-11.1,6.9-21.5,17.1-27.1c10.3-6.3,22.1-8.8,32.7-14.3c1.8-1.5,3.9-3.3,4.1-5.7
	c0.2-3-1.4-5.3-3.9-6.3c-16.2-3.4-29.4,6.6-41,16.6c1.4-7.3,2.6-15.3,6.1-22.2c1.6-1.8,2.8-4.4,4.9-5.7c11.4-5.6,25.6-7.2,38.2-6.3
	c10.4,0.7,20.1,8.1,23.7,17.6c1.8,4.5,1.6,9.5,2,14.1l0.2,62c0,5.4,2.6,10.4,5.7,14.7h-29.6c-3.5-3.2-5.3-7.2-6.3-12.2
	c-8.3,7.3-25.6,18.2-35.9,11C216.8,235.8,207,219.6,209.3,204.4z M261.8,182.9c-0.2-4.3-3.2-4.8-5.3-4.8c-7.1,1-13.2,7-16.8,13
	c-3,5.4-3.7,10-3.9,14.7c0,5.1-0.4,8.9,1.8,12.8c1.2,2.5,3.5,3.7,6.1,4.3c4.5,0.9,8.7-0.3,12.2-2.7c8.5-4.7,6.9-14.1,7.1-22.4
	L261.8,182.9"/>
<path id="path13804" class="st0" d="M491.2,329.6c0-2-1.8-3.6-3.7-3.6s-3.5,1.6-3.5,3.6c0,2,1.6,3.6,3.5,3.6
	S491.2,331.6,491.2,329.6"/>
<path id="path13806" class="st0" d="M243.1,312.5h11c2.4,0,6.3-0.1,8.5,1c3,1.6,4.3,3.9,4.3,7.4c0,5.1-3.2,8.3-8.1,9.3
	c3,5,6.1,9.7,9.3,14.6l2,3.2c-1.6-0.1-3.2-0.3-4.7-0.3c-1.6,0-3,0.1-4.5,0.3l-6.3-10.9c-0.8-1.4-2.2-3.8-3.4-5.8h-0.4v16.6
	c-1.2-0.1-2.6-0.3-3.7-0.3c-1.4,0-2.6,0.1-3.9,0.3V312.5z M250.7,329.2c5.5,0.5,8.3-2.1,8.3-7.4c0-0.7-0.2-1.5-0.4-2.6
	c-0.8-4.3-4.7-3.9-7.9-3.9V329.2"/>
<path id="path13808" class="st0" d="M297.7,312.5c-0.2,0.7-0.4,1.5-0.4,2.2c0,0.7,0.2,1.5,0.4,2.2c-3.4-0.4-6.7-0.8-12-0.7v11.1h5.3
	c2.4,0,4.5-0.2,6.5-0.5c-0.2,0.7-0.4,1.5-0.4,2.2c0,0.7,0.2,1.5,0.4,2.2c-2-0.3-4.1-0.5-6.5-0.5h-5.3v13.1c5.3,0,8.7-0.3,12-0.7
	c-0.2,0.7-0.4,1.5-0.4,2.2c0,0.7,0.2,1.5,0.4,2.2h-19.9v-35.3H297.7"/>
<path id="path13810" class="st0" d="M322.9,319.2c-1.2-2.7-3.2-4.5-6.1-4.5c-3.9,0-5.7,2.1-5.7,5.1c0,7,15.8,5.7,15.8,17.6
	c0,6.6-5.5,11.4-13.6,11.4c-3,0-5.9-0.7-8.3-2.2c0.6-2.2,1.2-4.4,1.4-6.6h1c0.8,3.6,3.5,5.7,7.1,5.7c3.4,0,6.1-1.8,6.1-5.4
	c0-8.3-15.4-5.3-15.4-17.8c0-6,3.9-10.9,12-10.9c3.5,0,6.9,1.4,8.1,2.5c-0.6,1.7-1.2,3.4-1.6,5.1H322.9"/>
<path id="path13812" class="st0" d="M352.5,348.8c-11.4,0-19.1-6.7-19.1-18.5c0-10.3,7.5-18.6,20.5-18.6c14.8,0,19.1,10.4,19.1,18.5
	C373,340.2,365.3,348.8,352.5,348.8z M342,331.8c0,6.7,3,13.9,10.8,13.9c7.9,0,11.4-8,11.4-16.6c0-6.7-3.2-14.4-10.8-14.4
	C346.3,314.7,342,320.2,342,331.8"/>
<path id="path13814" class="st0" d="M381.6,312.5h11c2.4,0,6.1-0.1,8.3,1c3,1.6,4.5,3.9,4.5,7.4c0,5.1-3.4,8.3-8.1,9.3
	c3,5,6.1,9.7,9.3,14.6l2,3.2c-1.6-0.1-3.2-0.3-4.7-0.3c-1.6,0-3.2,0.1-4.7,0.3l-6.1-10.9c-0.8-1.4-2.2-3.8-3.4-5.8h-0.4v16.6
	c-1.4-0.1-2.6-0.3-3.9-0.3c-1.2,0-2.6,0.1-3.7,0.3V312.5z M389.3,329.2c5.5,0.5,8.1-2.1,8.1-7.4c0-0.7,0-1.5-0.2-2.6
	c-0.8-4.3-4.7-3.9-7.9-3.9V329.2"/>
<path id="path13816" class="st0" d="M430.7,348.1c-1.2-0.1-2.6-0.3-3.9-0.3c-1.2,0-2.6,0.1-3.7,0.3v-31.9c-3.7,0-6.9,0.4-9.7,0.7
	c0-0.7,0.2-1.5,0.2-2.2c0-0.7-0.2-1.5-0.2-2.2H440c0,0.7-0.2,1.5-0.2,2.2c0,0.8,0.2,1.5,0.2,2.2c-3-0.4-6.1-0.7-9.3-0.7V348.1"/>
<path id="path13818" class="st0" d="M464.2,319.2c-1-2.7-3-4.5-5.9-4.5c-4.1,0-5.7,2.1-5.7,5.1c0,7,15.8,5.7,15.8,17.6
	c0,6.6-5.7,11.4-13.8,11.4c-2.8,0-5.9-0.7-8.3-2.2c0.6-2.2,1.2-4.4,1.6-6.6h1c0.6,3.6,3.5,5.7,7.1,5.7c3.2,0,5.9-1.8,5.9-5.4
	c0-8.3-15.4-5.3-15.4-17.8c0-6,4.1-10.9,12-10.9c3.7,0,7.1,1.4,8.1,2.5c-0.6,1.7-1,3.4-1.6,5.1H464.2"/>
<path id="path13820" class="st0" d="M527.9,319.2c-1.2-2.7-3.2-4.5-6.1-4.5c-3.9,0-5.7,2.1-5.7,5.1c0,7,15.8,5.7,15.8,17.6
	c0,6.6-5.5,11.4-13.6,11.4c-3,0-5.9-0.7-8.3-2.2c0.6-2.2,1-4.4,1.4-6.6h1c0.8,3.6,3.5,5.7,7.1,5.7c3.4,0,6.1-1.8,6.1-5.4
	c0-8.3-15.4-5.3-15.4-17.8c0-6,4.1-10.9,11.8-10.9c3.7,0,7.1,1.4,8.3,2.5c-0.6,1.7-1.2,3.4-1.6,5.1H527.9"/>
<path id="path13822" class="st0" d="M541.1,312.5c1.4,0.1,2.6,0.3,3.9,0.3c1.4,0,2.6-0.2,3.9-0.3v14.7c0,2.9-0.2,7.1,0.4,9.8
	c0.4,2.5,0.8,4.1,2.6,6c1.8,1.6,3.7,2.2,6.1,2.2c4.7,0,7.3-1.8,9.1-6.3c1-2.3,1-8.2,1-10.7v-15.7c0.6,0.1,1.4,0.2,2,0.2
	c0.8,0,1.6,0,2.2-0.2V331c-0.2,5.9,0,11.3-5.5,15c-2.8,2-6.3,2.7-9.9,2.7c-6.1,0-13-2-14.8-8.7c-0.6-2-1-4.3-1-6.4V312.5"/>
<path id="path13824" class="st0" d="M584.5,312.5c1.4,0.1,2.8,0.3,3.9,0.3c1.4,0,2.6-0.2,3.9-0.3v35.6c-1.4-0.1-2.6-0.3-3.9-0.3
	c-1.2,0-2.6,0.1-3.9,0.3V312.5"/>
<path id="path13826" class="st0" d="M618.6,348.1c-1.4-0.1-2.8-0.3-3.9-0.3c-1.4,0-2.6,0.1-3.9,0.3v-31.9c-3.5,0-6.9,0.4-9.7,0.7
	c0.2-0.7,0.4-1.5,0.4-2.2c0-0.7-0.2-1.5-0.4-2.2h26.8c-0.2,0.7-0.4,1.5-0.4,2.2c0,0.8,0.2,1.5,0.4,2.2c-3.2-0.4-6.1-0.7-9.3-0.7
	V348.1"/>
<path id="path13828" class="st0" d="M655.6,312.5c-0.2,0.7-0.2,1.5-0.2,2.2c0,0.7,0,1.5,0.2,2.2c-3.2-0.4-6.7-0.8-12-0.7v11.1h5.3
	c2.4,0,4.5-0.2,6.5-0.5c-0.2,0.7-0.2,1.5-0.2,2.2c0,0.7,0,1.5,0.2,2.2c-2-0.3-4.1-0.5-6.5-0.5h-5.3v13.1c5.3,0,8.9-0.3,12-0.7
	c-0.2,0.7-0.2,1.5-0.2,2.2c0,0.7,0,1.5,0.2,2.2h-19.7v-35.3H655.6"/>
<path id="path13830" class="st0" d="M680.9,319.2c-1-2.7-3-4.5-5.9-4.5c-4.1,0-5.7,2.1-5.7,5.1c0,7,15.8,5.7,15.8,17.6
	c0,6.6-5.7,11.4-13.8,11.4c-2.8,0-5.9-0.7-8.3-2.2c0.6-2.2,1.2-4.4,1.4-6.6h1c0.8,3.6,3.5,5.7,7.3,5.7c3.2,0,5.9-1.8,5.9-5.4
	c0-8.3-15.4-5.3-15.4-17.8c0-6,4.1-10.9,12-10.9c3.7,0,7.1,1.4,8.1,2.5c-0.6,1.7-1,3.4-1.6,5.1H680.9"/>
<path id="path13832" class="st0" d="M1,312.5c1.4,0.1,2.6,0.3,3.9,0.3c1.2,0,2.6-0.2,3.9-0.3v14.1c2.6,0.1,5.3,0.3,7.9,0.3
	c2.6,0,5.3-0.2,7.9-0.3v-14.1c1.4,0.1,2.6,0.3,3.9,0.3c1.2,0,2.6-0.2,3.9-0.3v35.6c-1.4-0.1-2.8-0.3-3.9-0.3c-1.4,0-2.6,0.1-3.9,0.3
	v-17.4c-2.6-0.1-5.3-0.3-7.9-0.3c-2.6,0-5.3,0.2-7.9,0.3v17.4c-1.4-0.1-2.8-0.3-3.9-0.3c-1.4,0-2.6,0.1-3.9,0.3V312.5"/>
<path id="path13834" class="st0" d="M60.9,348.8c-11.4,0-19.3-6.7-19.3-18.5c0-10.3,7.7-18.6,20.5-18.6c14.8,0,19.1,10.4,19.1,18.5
	C81.2,340.2,73.5,348.8,60.9,348.8z M50.3,331.8c0,6.7,3.2,13.9,10.8,13.9c7.9,0,11.6-8,11.6-16.6c0-6.7-3.2-14.4-11-14.4
	C54.6,314.7,50.3,320.2,50.3,331.8"/>
<path id="path13836" class="st0" d="M100.5,348.1c-1.2-0.1-2.6-0.3-3.7-0.3c-1.4,0-2.6,0.1-3.9,0.3v-31.9c-3.7,0-6.9,0.4-9.7,0.7
	c0.2-0.7,0.2-1.5,0.2-2.2c0-0.7,0-1.5-0.2-2.2h26.6c0,0.7-0.2,1.5-0.2,2.2c0,0.8,0.2,1.5,0.2,2.2c-3-0.4-6.1-0.7-9.3-0.7V348.1"/>
<path id="path13838" class="st0" d="M137.4,312.5c0,0.7-0.2,1.5-0.2,2.2c0,0.7,0.2,1.5,0.2,2.2c-3.2-0.4-6.7-0.8-12-0.7v11.1h5.5
	c2.4,0,4.3-0.2,6.3-0.5c-0.2,0.7-0.2,1.5-0.2,2.2c0,0.7,0,1.5,0.2,2.2c-2-0.3-3.9-0.5-6.3-0.5h-5.5v13.1c5.3,0,8.9-0.3,12-0.7
	c0,0.7-0.2,1.5-0.2,2.2c0,0.7,0.2,1.5,0.2,2.2h-19.7v-35.3H137.4"/>
<path id="path13840" class="st0" d="M155.1,344.1c4.5,0,8.3-0.4,11.8-0.7c-0.2,0.7-0.4,1.5-0.4,2.2c0,0.7,0.2,1.5,0.4,2.2h-19.7
	v-35.3c1.4,0.1,2.6,0.3,3.9,0.3c1.4,0,2.6-0.2,3.9-0.3V344.1"/>
<path id="path13842" class="st0" d="M686.2,232.5c0-6.3,5.1-11,11.2-11c6.1,0,11.2,4.7,11.2,11c0,6.4-5.1,11.1-11.2,11.1
	C691.3,243.6,686.2,238.9,686.2,232.5z M697.4,241.8c5.1,0,9.1-3.9,9.1-9.2c0-5.2-3.9-9.2-9.1-9.2c-4.9,0-9.1,4-9.1,9.2
	C688.4,237.9,692.5,241.8,697.4,241.8z M695.1,238.9h-1.8v-12.7h4.7c3,0,4.5,1.1,4.5,3.6c0,2.3-1.4,3.3-3.4,3.5l3.7,5.6h-2.2
	l-3.4-5.5h-2.4V238.9z M697.4,231.8c1.6,0,3.2-0.1,3.2-2.1c0-1.6-1.4-1.9-2.8-1.9h-2.8v3.9H697.4"/>
</svg>
