<?xml version="1.0" encoding="utf-8"?>
<!-- Generator: Adobe Illustrator 20.0.0, SVG Export Plug-In . SVG Version: 6.00 Build 0)  -->
<svg version="1.1" id="Layer_1" xmlns="http://www.w3.org/2000/svg" xmlns:xlink="http://www.w3.org/1999/xlink" x="0px" y="0px"
	 viewBox="0 0 175.7 40.6" style="enable-background:new 0 0 175.7 40.6;" xml:space="preserve" fill="white">
<style type="text/css">
	.st0{fill-rule:evenodd;clip-rule:evenodd;}
</style>
<path class="st0" d="M5.9,2.1c0-0.9,0.1-1,2.2-1c3.9,0,5.7,2.5,5.7,5.4c0,2.2-0.9,3.6-1.8,4.2c-1,0.9-2.4,0.9-3.6,0.9
	c-1.8,0-2.2,0-2.4-0.1c-0.1-0.1-0.1-0.4-0.1-1V2.1L5.9,2.1z M3,17.8c0,3.6,0,4-2.1,4.3l-0.7,0.1C-0.1,22.4,0,23,0.2,23
	c1.6,0,2.8,0,4.3,0c1.3,0,2.5,0,4.2,0c0.1,0,0.3-0.6,0-0.7l-0.7-0.1c-1.9-0.3-2.1-0.7-2.1-4.3v-4.3c0-0.7,0.1-0.9,1.6-0.9
	c1.5,0,1.9,0.4,2.5,1.2c1,1.5,2.4,3.9,3.3,5.2c2.5,3.4,4.3,4.3,7.2,4.3c0.7,0,1.2,0,1.6-0.1c0.1-0.1,0-0.4-0.1-0.4
	c-0.9-0.1-1.8-0.4-2.4-1c-2.2-1.9-4.2-4.6-6.9-9.1c-0.1-0.3-0.4-0.7-0.1-0.9c1.6-0.7,4.3-2.5,4.3-5.8c0-2.4-1.3-3.9-3-4.8
	c-1.5-0.9-3.6-1-5.7-1C4.8,0,2.4,0.1,0.5,0.3c-0.3,0.1-0.3,0.6,0,0.9h1C3,1.5,3,2.1,3,5.4V17.8L3,17.8z"/>
<path class="st0" d="M33,22.6c-5.8,0-7.9-5.7-7.9-10c0-6.6,4-8.7,7-8.7c5.7,0,7.9,5.4,7.9,10.2C40.1,19.9,36.6,22.6,33,22.6L33,22.6
	z M32.7,23.5c5.7,0,10.2-4.3,10.2-10.3C42.9,7.9,39.5,3,32.7,3c-6.1,0-10.6,4.6-10.6,10.5C22.1,18.7,26.2,23.5,32.7,23.5L32.7,23.5z
	"/>
<path class="st0" d="M51.7,23.5c-2.5,0-4.2-0.7-4.6-1.2c-0.4-0.6-0.7-2.7-0.9-4c0.1-0.3,0.6-0.3,0.7-0.1c0.4,1.5,1.6,4.5,5.1,4.5
	c2.5,0,3.7-1.6,3.7-3.4c0-1.3-0.3-2.7-2.4-4.2l-2.8-1.8c-1.5-0.9-3.3-2.7-3.3-5.1c0-2.7,2.2-5.1,6.1-5.1c0.9,0,1.9,0.1,2.7,0.4
	c0.4,0.1,0.7,0.1,1,0.1c0.3,0.7,0.6,2.4,0.6,3.6c-0.1,0.1-0.6,0.3-0.7,0.1c-0.4-1.5-1.2-3.4-4-3.4c-3,0-3.6,1.9-3.6,3.3
	c0,1.8,1.5,3,2.5,3.7l2.4,1.3c1.8,1.2,3.6,3,3.6,5.7C57.9,21.2,55.5,23.5,51.7,23.5L51.7,23.5z"/>
<path class="st0" d="M65.5,7.9c0-3,0-3.4-1.8-3.7h-0.4c-0.1-0.1-0.1-0.7,0-0.7c1.3,0,2.2,0,3.6,0h5.5c1.8,0,3.6,0,3.9,0
	c0.3,0.4,0.4,2.5,0.6,3.9c-0.1,0.1-0.6,0.3-0.7,0c-0.4-1.3-0.7-2.4-2.2-2.7c-0.6-0.1-1.6-0.1-3-0.1h-2.1c-0.9,0-0.9,0-0.9,1v6
	c0,0.7,0.1,0.7,1,0.7h1.6c1.3,0,2.2,0,2.5-0.1c0.4-0.1,0.6-0.3,0.7-1l0.3-1.2c0-0.1,0.6-0.1,0.7,0c0,0.7-0.1,1.9-0.1,3
	s0.1,2.2,0.1,2.8c-0.1,0.3-0.7,0.3-0.9,0l-0.1-1c-0.1-0.6-0.3-1-0.9-1.2c-0.4-0.1-1.2-0.1-2.4-0.1h-1.6c-0.9,0-1,0-1,0.7v4.2
	c0,1.6,0.1,2.7,0.6,3.1c0.3,0.3,1,0.6,3.6,0.6c2.2,0,3.1,0,3.7-0.3c0.6-0.3,1.3-1.3,2.1-3c0.3-0.1,0.6,0,0.7,0.3
	c-0.1,1-0.9,3.3-1.3,4c-2.5,0-5.2,0-7.9,0h-2.5c-1.3,0-2.4,0-4,0c-0.3,0-0.3-0.6-0.1-0.7h1c1.6-0.1,1.8-0.6,1.8-3.7V7.9L65.5,7.9z"
	/>
<path class="st0" d="M78.9,4c-0.1-0.1-0.1-0.6,0.1-0.6c0.7,0,2.1,0,3,0c0.9,0,2.4,0,3.3,0c0.3,0,0.3,0.4,0.1,0.6l-0.7,0.1
	c-0.6,0-0.9,0.1-0.9,0.4c0,0.4,0.6,1.9,1.5,4c1.6,3.6,3.4,7.3,5.1,10.9c0.7-1.5,1.5-3.1,2.2-4.8c0.3-0.4,0.4-1,0.4-1.2
	c0.1-0.1,0-0.3-0.1-0.7c-1-2.4-2.1-4.6-3.3-7c-0.4-0.9-0.9-1.6-1.8-1.6L87.1,4c-0.3-0.1-0.1-0.6,0-0.6c0.9,0,1.9,0,3.1,0
	c1.5,0,2.7,0,3.3,0c0.1,0,0.3,0.4,0,0.6l-0.7,0.1c-1,0-1.2,0.3-0.6,1.6c0.6,1.3,1.5,3.3,2.2,5.1c0.6-1.2,1.2-2.2,1.8-3.9
	c1-2.5,0.9-2.8,0-2.8L95.4,4c-0.1-0.3-0.1-0.6,0-0.6c0.9,0,1.8,0,2.8,0c0.9,0,2.1,0,2.8,0c0.1,0,0.1,0.4,0,0.6l-0.7,0.1
	c-1.3,0-1.8,1.3-2.5,2.5c-0.6,1.2-1.8,3.7-2.2,4.8c-0.1,0.3-0.3,0.6-0.3,0.7c0,0,0.1,0.3,0.3,0.6c0.9,2.2,1.9,4.5,3,6.7
	c0.9-2.1,1.8-4,2.5-6.1c0.6-1.5,2.2-5.4,2.4-6c0.4-1,0.9-2.2,0.9-2.7c0-0.3-0.3-0.6-0.9-0.6L102.5,4c-0.3-0.1-0.3-0.6,0-0.6
	c1.2,0,1.9,0,2.8,0c1.2,0,1.9,0,2.7,0c0.3,0,0.3,0.4,0.1,0.6l-0.6,0.1c-1.5,0.1-1.8,1-3.4,5.1l-2.2,5.1c-1.2,3-2.4,5.8-3.6,9
	c-0.1,0.1-0.3,0.1-0.4,0.1s-0.3,0-0.4-0.1c-0.9-2.5-2.5-6.3-3.6-8.4c-1,2.1-2.8,6-3.6,8.4c-0.1,0.1-0.3,0.1-0.4,0.1
	c-0.1,0-0.3,0-0.4-0.1c-0.4-1.2-1.6-3.9-1.9-4.8c-1.9-4-3.7-8.1-5.7-12.3c-0.6-1.2-0.9-1.9-2.1-2.1L78.9,4L78.9,4z"/>
<path class="st0" d="M119.3,22.6c-5.8,0-7.9-5.7-7.9-10c0-6.6,4-8.7,7-8.7c5.7,0,7.9,5.4,7.9,10.2C126.3,19.9,122.9,22.6,119.3,22.6
	L119.3,22.6z M119,23.5c5.7,0,10.2-4.3,10.2-10.3C129.1,7.9,125.7,3,119,3c-6.1,0-10.6,4.6-10.6,10.5
	C108.4,18.7,112.4,23.5,119,23.5L119,23.5z"/>
<path class="st0" d="M142.9,22.6c-5.8,0-7.9-5.7-7.9-10c0-6.6,4-8.7,7-8.7c5.7,0,7.9,5.4,7.9,10.2C149.9,19.9,146.5,22.6,142.9,22.6
	L142.9,22.6z M142.6,23.5c5.7,0,10.2-4.3,10.2-10.3c0-5.2-3.3-10.2-10.2-10.2C136.4,3,132,7.6,132,13.4
	C132,18.7,136,23.5,142.6,23.5L142.6,23.5z"/>
<path class="st0" d="M160.4,7c0-1.3,0-2.1,0.3-2.2c0.3-0.3,1.2-0.4,3-0.4c7.6,0,9.3,5.5,9.3,8.7c0,5.5-2.5,9.3-8.4,9.3
	c-1.8,0-3-0.3-3.6-1.2c-0.4-0.7-0.6-1.6-0.6-3.3V7L160.4,7z M158,18.5c0,3.1-0.1,3.4-1.8,3.7h-0.7c-0.1,0.1,0,0.7,0.1,0.7
	c1.3,0,2.4,0,3.7,0c0.9,0,2.8,0.1,4.8,0.1c2.2,0,4.6-0.3,6.6-1.3c3.3-1.9,5.1-5.1,5.1-8.8c0-3.9-1.9-7.3-6-8.7
	c-1.8-0.7-3.9-0.9-6.4-0.9c-2.5,0-4.9,0-7.5,0.1c-0.3,0.1-0.1,0.6,0,0.7l0.7,0.1c1.2,0.1,1.3,0.7,1.3,2.8V18.5L158,18.5z"/>
<path class="st0" d="M7.9,33c0-0.9,0-1.6-0.1-1.8c-0.1-0.1-0.4-0.3-0.7-0.3l-0.3-0.1c-0.1,0-0.1-0.1,0-0.1c0.6,0,1,0,1.6,0
	c0.6,0,1.2,0,1.8,0c0.1,0,0.1,0.1,0,0.1L10,30.9c-0.4,0-0.6,0.1-0.7,0.3c-0.1,0.1-0.1,0.9-0.1,1.8v1.6c0,0.4,0,0.4,0.6,0.4h4.5
	c0.6,0,0.7,0,0.7-0.4V33c0-0.9-0.1-1.6-0.3-1.8c-0.1-0.1-0.4-0.3-0.6-0.3l-0.3-0.1c-0.1,0-0.1-0.1,0-0.1c0.6,0,1,0,1.6,0
	c0.7,0,1.2,0,1.8,0c0,0,0.1,0.1,0,0.1l-0.3,0.1c-0.1,0-0.6,0.1-0.7,0.3C16,31.4,16,32.1,16,33v5.1c0,0.9,0,1.6,0.1,1.9
	c0.1,0.1,0.6,0.1,0.7,0.1l0.3,0.1c0.1,0,0.1,0.1,0,0.1c-0.6,0-1.2,0-1.8,0c-0.6,0-1.2,0-1.6,0c-0.1,0-0.1-0.1,0-0.1l0.3-0.1
	c0.3,0,0.4,0,0.6-0.3c0.1-0.1,0.3-0.9,0.3-1.8V36c0-0.4-0.1-0.4-0.7-0.4H9.7c-0.6,0-0.6,0-0.6,0.4v2.1c0,0.9,0,1.6,0.1,1.8
	c0.1,0.3,0.4,0.3,0.7,0.3l0.4,0.1v0.1c-0.7,0-1.3,0-2.1,0c-0.6,0-0.9,0-1.5,0c-0.1,0-0.1-0.1,0-0.1H7c0.3-0.1,0.6-0.1,0.7-0.4
	c0.1-0.1,0.1-0.9,0.1-1.8V33L7.9,33z"/>
<path class="st0" d="M25.6,32c2.7,0,3.6,2.4,3.6,4.5c0,2.8-1.5,3.9-3.3,3.9c-2.5,0-3.4-2.5-3.4-4.5C22.4,32.9,24.2,32,25.6,32
	L25.6,32z M25.9,31.7c-2.7,0-4.6,1.9-4.6,4.6c0,2.2,1.6,4.3,4.6,4.3c2.5,0,4.5-1.8,4.5-4.5C30.4,33.8,28.9,31.7,25.9,31.7L25.9,31.7
	z"/>
<path class="st0" d="M40.4,31.8c0.4,0,0.6,0,0.9,0c0.1,0,0.1-0.1,0.3-0.3h0.1c-0.1,0.6-0.3,1.6-0.1,1.9c-0.1,0-0.1,0-0.3,0
	c-0.1-0.4-0.1-0.7-0.3-0.9c-0.4-0.3-0.9-0.4-1.6-0.4h-0.9c-0.3,0-0.3,0-0.3,0.6v5.7c0,0.7,0,1.5,0.1,1.6c0.1,0.1,0.4,0.1,0.6,0.3
	h0.4v0.1c-0.6,0-1,0-1.8,0c-0.7,0-1.2,0-1.8,0v-0.1l0.6-0.1c0.1,0,0.4,0,0.6-0.1c0.1-0.1,0.1-0.9,0.1-1.6v-5.7c0-0.6,0-0.6-0.4-0.6
	h-0.7c-0.7,0-1.3,0.1-1.6,0.4c-0.3,0.3-0.4,0.6-0.6,0.9c0,0-0.1,0-0.3-0.1c0.3-0.4,0.4-1.3,0.6-1.8h0.1c0,0.1,0.1,0.1,0.3,0.3
	c0,0,0.6,0,0.9,0H40.4L40.4,31.8z"/>
<path class="st0" d="M46.2,33.9c0-0.9,0-1.3-0.1-1.5s-0.3-0.3-0.6-0.3L45.3,32c-0.1,0-0.1-0.1,0-0.1c0.6,0,1,0,1.5,0h2.4
	c0.9,0,1.6,0,1.8,0c0,0.3,0.1,1.2,0.1,1.6c0,0-0.1,0.1-0.1,0c-0.1-0.6-0.4-1-1-1.2c-0.3,0-0.7-0.1-1.3-0.1h-0.7
	c-0.4,0-0.4,0.1-0.4,0.1c-0.1,0.1-0.1,0.4-0.1,1v2.1c0,0.3,0,0.4,0.4,0.4h0.7c0.4,0,0.9-0.1,1.2-0.1c0.1,0,0.1-0.1,0.3-0.4l0.1-0.6
	c0,0,0.1,0,0.3,0.1c0,0.1-0.1,0.7-0.1,1.2c0,0.4,0.1,1,0.1,1.2c-0.1,0.1-0.3,0.1-0.3,0.1l-0.1-0.6c-0.1-0.3-0.1-0.4-0.3-0.4
	c-0.3-0.1-0.7-0.1-1.2-0.1h-0.7c-0.4,0-0.4,0-0.4,0.4v1.8c0,0.6,0,1.2,0.3,1.5c0.1,0.1,0.3,0.3,1.5,0.3c1.5,0,2.1-0.1,2.7-1.5
	c0.1,0,0.3,0,0.3,0c-0.1,0.4-0.3,1.5-0.6,1.8c-1.2,0-2.2,0-3.3,0h-1.3c-0.6,0-1.2,0-1.8,0c-0.1,0-0.1-0.1,0-0.1l0.4-0.1
	c0.3,0,0.4-0.1,0.6-0.1c0.1-0.3,0.1-0.9,0.1-1.6V33.9L46.2,33.9z"/>
<path class="st0" d="M57.4,38.4c0,0.6,0,1.2,0.3,1.5c0.1,0.1,0.3,0.3,1.5,0.3c1.5,0,1.9-0.1,2.5-1.5h0.1c0,0.4-0.3,1.5-0.4,1.8
	c-0.9,0-1.9,0-3.4,0h-1c-0.6,0-0.9,0-1.6,0c-0.1,0-0.1-0.1,0-0.1l0.3-0.1c0.3,0,0.6,0,0.6-0.1c0.1-0.3,0.3-0.9,0.3-1.6v-4.5
	c0-0.7-0.1-1.3-0.3-1.6c0-0.1-0.3-0.1-0.6-0.1L55.3,32c-0.1,0-0.1-0.1,0-0.1c0.7,0,1,0,1.6,0c0.6,0,1,0,1.5,0c0.1,0,0.1,0.1,0.1,0.1
	l-0.3,0.1c-0.3,0-0.6,0-0.7,0.1c-0.1,0.3-0.1,0.9-0.1,1.6V38.4L57.4,38.4z"/>
<path class="st0" d="M69.5,31.8c0.1,0,0.3,0,0.4,0c0.1,0.4,0.3,1.2,0.3,1.6c-0.1,0-0.3,0-0.3,0c-0.1-0.6-0.6-1.5-1.8-1.5
	c-1.3,0-1.6,1-1.6,1.5c0,0.9,0.7,1.3,1.2,1.6l1.2,0.7c0.6,0.4,1.3,1.2,1.3,2.4c0,1.5-1,2.4-2.7,2.4c-1,0-1.6-0.3-1.9-0.4
	c-0.1-0.3-0.3-1-0.3-1.8h0.1c0.3,0.7,0.9,1.9,2.4,1.9c1,0,1.6-0.7,1.6-1.6c0-0.6-0.1-1.2-1.2-1.8l-1-0.7c-0.9-0.4-1.5-1.2-1.5-2.2
	c0-1.2,0.9-2.2,2.5-2.2C68.8,31.7,69.2,31.7,69.5,31.8L69.5,31.8z"/>
<path class="st0" d="M81.8,35.7c0.9,0.6,2.2,1.9,2.7,3.1C84,39.4,83.3,40,82.2,40c-1.2,0-1.9-1-1.9-2.1
	C80.3,37.1,80.9,36.3,81.8,35.7L81.8,35.7z M81.9,40.6c1,0,2.1-0.7,2.7-1.5c0.3,0.1,0.6,1,0.9,1.2c0.1,0.1,0.7,0.3,1.3,0.3
	c0.7,0,1.5-0.1,2.1-0.9c0,0,0-0.1-0.1-0.1C88.5,39.9,88,40,87.6,40c-0.6,0-1.2-0.1-1.9-1.2c-0.1-0.1-0.3-0.3-0.4-0.6
	c0.7-1,1.3-1.8,1.5-2.2c0.4-0.6,0.7-1,0.9-1.2c0.1-0.1,0.3-0.1,0.4-0.3l0.7-0.1v-0.1c-0.3,0-1.2,0-1.8,0h-1c-0.1,0.1-0.1,0.1,0,0.3
	h0.4c0.3,0,0.3,0.1,0.3,0.1c0,0.1,0,0.4-0.3,0.9c-0.3,0.7-0.7,1.5-1.3,2.4c-0.7-1.3-1.6-2.1-2.4-2.7c0.4-0.4,1.2-0.9,1.2-1.6
	c0-0.7-0.7-1.5-1.6-1.5s-1.8,0.7-1.8,1.8c0,0.6,0.4,1.2,1,1.5c-1,0.7-2.1,1.6-2.1,2.8S80.1,40.6,81.9,40.6L81.9,40.6z M82.4,35
	c-0.6-0.3-1.2-0.7-1.2-1.5c0-0.6,0.4-1,0.9-1c0.7,0,1,0.6,1,1.2C83.1,34.1,82.8,34.7,82.4,35L82.4,35z"/>
<path class="st0" d="M98.3,31.8c0-0.4,0-0.7,0.1-0.7c0.1-0.1,0.4-0.1,0.9-0.1c1.6,0,2.4,1.2,2.4,2.4s-0.3,1.6-0.7,1.9
	c-0.4,0.3-1,0.4-1.6,0.4c-0.6,0-0.9-0.1-0.9-0.1c-0.1,0-0.1-0.1-0.1-0.4V31.8L98.3,31.8z M97.3,38.1c0,0.9-0.1,1.6-0.3,1.8
	c-0.1,0.3-0.4,0.3-0.6,0.3L96,40.3v0.1c0.9,0,1.2,0,1.8,0c0.6,0,1,0,1.8,0c0.1,0,0.1-0.1,0-0.1l-0.3-0.1c-0.1,0-0.4,0-0.6-0.3
	c-0.1-0.1-0.3-0.9-0.3-1.8v-1.6c0-0.4,0-0.4,0.9-0.4c0.6,0,0.7,0.1,0.9,0.4c0.6,0.7,1.2,1.8,1.5,2.4c1,1.5,1.8,1.8,3.1,1.8
	c0.3,0,0.4,0,0.7,0c0-0.1,0-0.1,0-0.3c-0.6,0-0.9,0-1.2-0.3c-1-0.9-1.8-2.1-3-4c-0.1-0.1-0.1-0.3-0.1-0.4c0.7-0.1,1.9-1,1.9-2.4
	c0-1-0.6-1.8-1.3-2.1c-0.6-0.4-1.5-0.4-2.4-0.4c-1.2,0-2.1,0-3.3,0.1c-0.1,0-0.1,0.1,0,0.1h0.3c0.4,0.1,0.6,0.3,0.7,0.4
	c0,0.1,0.1,0.7,0.1,1.6V38.1L97.3,38.1z"/>
<path class="st0" d="M109.6,33.9c0-0.9,0-1.3-0.1-1.5c-0.1-0.1-0.3-0.3-0.6-0.3l-0.3-0.1v-0.1c0.6,0,1,0,1.6,0h2.4
	c0.7,0,1.5,0,1.8,0c0,0.3,0,1.2,0.1,1.6c0,0-0.1,0.1-0.3,0c-0.1-0.6-0.3-1-1-1.2c-0.3,0-0.7-0.1-1.2-0.1h-0.7
	c-0.4,0-0.6,0.1-0.6,0.1c0,0.1,0,0.4,0,1v2.1c0,0.3,0,0.4,0.3,0.4h0.7c0.6,0,1-0.1,1.2-0.1s0.3-0.1,0.4-0.4v-0.6
	c0.1,0,0.3,0,0.3,0.1c0,0.1,0,0.7,0,1.2c0,0.4,0,1,0,1.2s-0.1,0.1-0.3,0.1l-0.1-0.6c0-0.3-0.1-0.4-0.3-0.4c-0.1-0.1-0.6-0.1-1.2-0.1
	h-0.7c-0.3,0-0.3,0-0.3,0.4v1.8c0,0.6,0,1.2,0.1,1.5c0.1,0.1,0.4,0.3,1.5,0.3c1.6,0,2.2-0.1,2.8-1.5h0.1c0,0.4-0.3,1.5-0.4,1.8
	c-1.2,0-2.4,0-3.4,0h-1.2c-0.7,0-1.3,0-1.9,0v-0.1l0.6-0.1c0.1,0,0.4-0.1,0.6-0.1c0.1-0.3,0.1-0.9,0.1-1.6V33.9L109.6,33.9z"/>
<path class="st0" d="M122.9,31.8c0.1,0,0.3,0,0.4,0c0.1,0.4,0.3,1.2,0.3,1.6c-0.1,0-0.1,0-0.3,0c-0.1-0.6-0.6-1.5-1.8-1.5
	c-1.3,0-1.6,1-1.6,1.5c0,0.9,0.7,1.3,1.2,1.6l1.2,0.7c0.6,0.4,1.5,1.2,1.5,2.4c0,1.5-1.2,2.4-2.8,2.4c-1,0-1.6-0.3-1.9-0.4
	c-0.1-0.3-0.3-1-0.3-1.8h0.1c0.3,0.7,0.9,1.9,2.4,1.9c1,0,1.6-0.7,1.6-1.6c0-0.6-0.1-1.2-1.2-1.8l-1-0.7c-0.7-0.4-1.5-1.2-1.5-2.2
	c0-1.2,0.9-2.2,2.5-2.2C122.1,31.7,122.6,31.7,122.9,31.8L122.9,31.8z"/>
<path class="st0" d="M132.1,32c2.7,0,3.6,2.4,3.6,4.5c0,2.8-1.5,3.9-3.3,3.9c-2.5,0-3.4-2.5-3.4-4.5C129,32.9,130.8,32,132.1,32
	L132.1,32z M132.4,31.7c-2.7,0-4.6,1.9-4.6,4.6c0,2.2,1.6,4.3,4.6,4.3c2.5,0,4.5-1.8,4.5-4.5C136.9,33.8,135.3,31.7,132.4,31.7
	L132.4,31.7z"/>
<path class="st0" d="M142.6,32.9c0-0.4,0-0.6,0.1-0.6c0-0.1,0.4-0.1,0.7-0.1c1.5,0,2.1,1,2.1,2.1c0,0.9-0.3,1.3-0.6,1.6
	c-0.4,0.3-0.9,0.4-1.5,0.4c-0.6,0-0.7-0.1-0.9-0.1c0,0,0-0.1,0-0.3V32.9L142.6,32.9z M141.5,38.4c0,0.7,0,1.3-0.1,1.6
	c-0.1,0.1-0.4,0.1-0.6,0.3h-0.3v0.1c0.7,0,1,0,1.6,0c0.4,0,0.9,0,1.5,0v-0.1h-0.3c-0.1-0.1-0.4-0.1-0.6-0.3
	c-0.1-0.3-0.1-0.9-0.1-1.6v-1.5c0-0.3,0-0.3,0.7-0.3c0.4,0,0.6,0.1,0.9,0.4c0.4,0.6,0.9,1.5,1.2,1.9c1,1.3,1.6,1.6,2.8,1.6
	c0.1,0,0.4,0,0.6,0c0-0.1,0-0.1,0-0.3c-0.4,0-0.7,0-1-0.3c-0.9-0.7-1.6-1.8-2.7-3.4c0-0.1-0.1-0.3,0-0.4c0.6-0.1,1.6-0.9,1.6-2.1
	c0-0.9-0.6-1.5-1.2-1.8c-0.6-0.3-1.3-0.4-2.1-0.4c-1,0-1.9,0-2.8,0.1c-0.1,0-0.1,0.1-0.1,0.1h0.4c0.3,0,0.4,0.1,0.4,0.3
	c0.1,0.3,0.1,0.7,0.1,1.5V38.4L141.5,38.4z"/>
<path class="st0" d="M157.7,31.8c0.4,0,0.7,0,0.9,0s0.1-0.1,0.3-0.3h0.1c-0.1,0.6-0.1,1.6-0.1,1.9c0,0-0.1,0-0.3,0
	c0-0.4-0.1-0.7-0.3-0.9c-0.3-0.3-0.9-0.4-1.5-0.4h-0.9c-0.4,0-0.4,0-0.4,0.6v5.7c0,0.7,0,1.5,0.1,1.6c0.1,0.1,0.4,0.1,0.6,0.3h0.4
	v0.1c-0.6,0-1,0-1.6,0c-0.7,0-1.3,0-1.9,0v-0.1l0.6-0.1c0.3,0,0.4,0,0.6-0.1c0.1-0.1,0.1-0.9,0.1-1.6v-5.7c0-0.6,0-0.6-0.4-0.6h-0.7
	c-0.7,0-1.3,0.1-1.6,0.4c-0.3,0.3-0.4,0.6-0.6,0.9c0,0-0.1,0-0.1-0.1c0.1-0.4,0.4-1.3,0.4-1.8c0.1,0,0.1,0,0.1,0
	c0,0.1,0.1,0.1,0.3,0.3c0.1,0,0.6,0,0.9,0H157.7L157.7,31.8z"/>
<path class="st0" d="M166.8,31.8c0.1,0,0.3,0,0.4,0c0.1,0.4,0.1,1.2,0.1,1.6h-0.1c-0.3-0.6-0.6-1.5-1.9-1.5c-1.2,0-1.5,1-1.5,1.5
	c0,0.9,0.6,1.3,1.2,1.6l1.2,0.7c0.6,0.4,1.3,1.2,1.3,2.4c0,1.5-1,2.4-2.7,2.4c-1,0-1.6-0.3-1.9-0.4c-0.3-0.3-0.4-1-0.4-1.8
	c0.1,0,0.3,0,0.3,0c0.1,0.7,0.9,1.9,2.2,1.9c1.2,0,1.6-0.7,1.6-1.6c0-0.6-0.1-1.2-1-1.8l-1.2-0.7c-0.7-0.4-1.3-1.2-1.3-2.2
	c0-1.2,0.9-2.2,2.5-2.2C165.9,31.7,166.5,31.7,166.8,31.8L166.8,31.8z"/>
</svg>
