<?xml version="1.0" encoding="utf-8"?>
<!-- Generator: Adobe Illustrator 20.0.0, SVG Export Plug-In . SVG Version: 6.00 Build 0)  -->
<svg version="1.1" id="svg6264" xmlns:svg="http://www.w3.org/2000/svg"
	 xmlns="http://www.w3.org/2000/svg" xmlns:xlink="http://www.w3.org/1999/xlink" x="0px" y="0px" viewBox="0 0 708.7 355"
	 style="enable-background:new 0 0 708.7 355;" xml:space="preserve">
<style type="text/css">
	.st0{fill:#FFFFFF;}
</style>
<path id="path12394" class="st0" d="M1,239.1c2.6,7.1,9.2,12.4,16.5,12.4c7.7,0,15.7-5.9,15.7-16.2c0-17.7-30.6-10.7-30.6-33.9
	c0-13.2,10.8-19.7,22.2-19.7c4.3,0,11.4,1.5,14.9,4.9c0,4,0,8.9,0,8.9C37.1,189,32,185,26.5,185c-6.5,0-12.6,3.8-13.1,13.2
	c-0.8,17.1,30.8,11.3,30.8,33.1c0,14.7-13.9,23.4-26.7,23.4c-4.5,0-13.3-2.2-16.5-5.9C1,244.4,1,239.1,1,239.1z"/>
<path id="path12396" class="st0" d="M528.2,215.2h29v6.4h-29V215.2z"/>
<path id="path12398" class="st0" d="M113.8,215.4c0,0,0,32,0,35.1c-0.4,1.6-3.1,3-3.1,3c4.7,0,15.3,0,18.4,0c0,0-2.7-1.5-2.9-3
	c0-3.7,0-60.4,0-64.2c0.2-1.5,2.9-3,2.9-3c-3.1,0-13.7,0-18.4,0c0,0,2.7,1.4,3.1,3c0,3.1,0,25.7,0,25.7c-5.3-0.1-24.9-0.1-29.8,0
	c0,0,0-22.6,0-25.7c0.2-1.6,2.9-3,2.9-3c-4.7,0-15.3,0-18.4,0c0,0,2.7,1.5,2.9,3c0,3.7,0,60.4,0,64.2c-0.2,1.5-2.9,3-2.9,3
	c3.1,0,13.7,0,18.4,0c0,0-2.7-1.4-2.9-3c0-3.1,0-35.1,0-35.1C91,215.3,106.3,215.3,113.8,215.4z"/>
<path id="path12400" class="st0" d="M497,213.7c0,0,0-24.3,0-27.4c0.2-1.6,2.9-3,2.9-3c-4.7,0-15.3,0-18.4,0c0,0,2.7,1.5,2.9,3
	c0,3.7,0,60.4,0,64.2c-0.2,1.5-2.9,3-2.9,3c3.1,0,13.7,0,18.4,0c0,0-2.7-1.4-2.9-3C497,247.4,497,213.7,497,213.7z"/>
<path id="path12402" class="st0" d="M585.8,253.5c0,0,2.7-1.5,2.9-3c0-3.7,0-60.4,0-64.2c-0.2-1.5-2.9-3-2.9-3c3.1,0,13.7,0,18.4,0
	c0,0-2.7,1.4-3.1,3c0,3.1,0,27.4,0,27.4s0,33.5,0,36.6l0.2,0c5.7,0.2,14.5-0.6,20.2-0.5c1.6,0,4.5-0.5,5.5-1.7
	c0,1.5-0.4,3.9-1.2,5.5C625.9,253.5,589,253.5,585.8,253.5z"/>
<path id="path12404" class="st0" d="M281.1,230c-1.8-2.1-39.2-46.6-39.2-46.6s-10,0-12.8,0c0,0,2.6,0.6,4.3,4.2c0,0,0,59.9,0,63
	c-0.4,1.6-2.9,3-2.9,3c4.5,0,5.9,0,9,0c0,0-2.9-1.5-2.9-3c0-3.7,0-53.6,0-53.6s-0.6-3.6,2.2,0c3.3,4.2,49.6,59.1,49.6,59.1
	s0.2-65.9,0.2-69.6c0-1.5,2.9-3,2.9-3c-3.1,0-7.8,0-12.6,0c0,0,2.7,1.4,2.9,3c0,3.1,0,43.5,0,43.5H281.1z"/>
<path id="path12406" class="st0" d="M180.7,181.1c0,0,26.5,66.9,27.9,69.2c1.4,2.3,3.7,3.2,3.7,3.2c-2.6,0-15.5,0-18.1,0
	c0-0.2,2.4-1.2,1.6-3.2c-1.8-4.8-5.9-14.1-7.7-19.1h-23.3c-1.8,4.7-6.1,16.9-6.9,19.2c-0.6,2.3,1.2,2.7,2,3.1c-2,0-9.4,0-11.4,0
	c0,0,2.6-1,2.9-3.1c0.4-2.1,27.1-69.3,27.1-69.3H180.7z M166,227.7h21L176.4,201L166,227.7z"/>
<path id="path12408" class="st0" d="M674.5,181.1c0,0,26.5,66.9,27.9,69.2c1.6,2.3,3.7,3.2,3.7,3.2c-2.6,0-15.5,0-18.1,0
	c0-0.2,2.4-1.2,1.6-3.2c-1.8-4.8-5.7-14.1-7.7-19.1h-23.3c-1.6,4.7-5.9,16.9-6.7,19.2c-0.8,2.3,1,2.7,1.8,3.1c-2,0-9.6,0-11.4,0
	c0,0,2.7-1,2.9-3.1c0.4-2.1,27.1-69.3,27.1-69.3H674.5z M659.8,227.7h21L670.2,201L659.8,227.7z"/>
<path id="path12410" class="st0" d="M368.5,247.6c-4.7,2.8-10.6,3.5-16.3,3.5c-12.6,0-25.7-12.6-25.7-32.9
	c0-20.7,11.2-32.2,24.7-32.2c9,0,19.8,5.3,24.5,14.4c0,0,0-7.8,0-11.3c-5.1-2.2-12-6.3-24.1-6.3c-20.8,0-37.5,11.9-37.5,35.9
	c0,20.8,14.5,35.6,35.5,35.6c9.6,0,18.2-1,26.3-4c0,0,0-18.8,0-22.6c0-1.5,2.9-3,2.9-3c-3.1,0-8.6,0-13.3,0c0,0,2.7,1.4,2.9,3
	C368.5,230.8,368.5,247.6,368.5,247.6z"/>
<path id="path12412" class="st0" d="M420.3,250.5c0.2,1.5,2.9,3,2.9,3c-3.1,0-8.8-0.1-10.4,0c-1.4-0.1-5.1,0-8,0c0,0,2.7-1.5,2.9-3
	c0-3.7,0-60.4,0-64.2c-0.2-1.5-2.9-3-2.9-3c3.7,0,19.4,0,19.4,0c14.3,0,25.3,6.8,25.3,17.2c0,11.9-11.2,17.4-14.1,18.6
	c2.9,1.8,6.5,6.2,7.8,8.1c3.9,5.5,6.9,11.1,8.6,14.1c6.3,10.3,9.8,11.3,9.8,11.3c-4.3,1.3-8.2,1.7-10.8,1.1
	c-8.4-2-16.5-29.8-22.4-31.8c-1.8-0.6-8.2-0.5-8.2-0.5V250.5z M420.3,218c2.2,0.2,6.1,0.6,10-0.5c7.5-2.1,10.2-7.7,10.2-15.7
	c0-7.1-3.7-14-10.6-15.3c-5.3-1-6.1-0.8-9.6-0.1V218z"/>
<path id="path12414" class="st0" d="M93.2,339.7v13.8h2.7v0.9h-9.8v-0.9h2.6v-27.4h-2.6v-0.9h9.8v0.9h-2.7v12.7h11.2v-12.7h-2.7
	v-0.9h9.8v0.9h-2.6v27.4h2.6v0.9h-9.8v-0.9h2.7v-13.8H93.2z"/>
<path id="path12416" class="st0" d="M164,353.5h3.1v-27.4h-2.7c-1.8,0-2.4,0.4-4.1,8.4h-0.8v-9.3h20.2v9.3h-1
	c-1.8-8-2.2-8.4-4.1-8.4h-2.7v27.4h3.1v0.9h-11V353.5z"/>
<path id="path12418" class="st0" d="M192.5,354.5v-0.9h2.6v-27.4h-2.6v-0.9H214v9.4h-1c-2.4-7.9-2.9-8.5-5.1-8.5h-8.4v12.7h3.3
	c2.2,0,3.1-1.3,3.9-5.8h1v12.6h-1c-0.8-4.5-1.8-5.8-3.9-5.8h-3.3v13.8h7.5c3.1,0,3.9-1.1,6.5-9.9h1v10.8H192.5z"/>
<path id="path12420" class="st0" d="M236.2,353.5h6.3c2.7,0,3.5-0.5,6.1-10.8h1v11.8H229v-0.9h2.6v-27.4H229v-0.9h11.4v0.9h-4.1
	V353.5z"/>
<path id="path12422" class="st0" d="M262.9,343.4c1.8,7.9,3.5,10.8,7.7,10.8c3.7,0,6.9-2.6,6.9-6.2c0-8.4-15.9-5.1-15.9-15.2
	c0-5,3.9-8.4,9.8-8.4c3.1,0,5.7,0.7,7.8,1.7v8.5h-1c0,0-0.4-1.5-1.4-4.9c-1.2-3.4-3.1-4.3-5.9-4.3c-3.7,0-6.5,2.5-6.5,5.6
	c0,3.2,2.2,4,8,6.2c6.3,2.4,8.4,4,8.4,8.6c0,5.3-4.5,9.3-11,9.3c-2.6,0-6.1-1.1-7.8-2.4v-9.3H262.9z"/>
<path id="path12424" class="st0" d="M330.2,337.6h4.7l-0.6,2.3h0.2c1-1.4,2.9-2.8,5.3-2.8c2.6,0,4.1,1.3,3.3,4.9l-2.6,11.8h1.8v0.7
	h-6.9l0.2-0.7h1.8l2.7-12.2c0.4-2.5-0.2-3.3-1.8-3.3c-1.8,0-3.7,1.6-4.5,5l-2.2,10.4h2l-0.2,0.7h-6.9l0.2-0.7h1.8l3.1-15.4H330
	L330.2,337.6z"/>
<path id="path12426" class="st0" d="M359.6,354.5l0.4-2l0,0c-1,1.5-2.4,2.6-4.7,2.6c-2.9,0-5.3-3.2-4.1-8.9c1.2-5.8,4.7-9,8-9
	c1.8,0,2.9,0.9,3.3,2.6l0,0l1.6-7.4h-1.6l0.2-0.7h4.7l-4.7,22.2h1.6l-0.2,0.7H359.6z M356.3,354.3c2.2,0,3.9-2.6,5.1-7.9
	c1.2-6,0.4-8.4-1.8-8.4c-2,0-3.7,1.6-5.1,8.4C353.4,352.4,354.1,354.3,356.3,354.3z"/>
<path id="path12428" class="st0" d="M308,343.7l1.2-5.4c1.8-0.7,3.5-1.2,5.3-1.2c4.1,0,5.5,2.2,5.1,4.2l-2.6,12.4h1.6l-0.2,0.7h-4.5
	l0.6-2.9l0,0c-1.2,2.1-3.5,3.5-5.9,3.5c-2.9,0-4.5-1.7-3.9-4.6c1.2-5.8,7.7-4.1,11.4-6.1l0.8-3.5c0.4-2.1-0.6-3-2.4-3
	c-2.4,0-3.1,1.2-5.7,5.8H308z M315.9,345.1c-4.1,1.8-6.9,0.5-7.8,5.3c-0.6,2.5,0.2,3.4,2,3.4c2.4-0.1,4.5-2.5,5.3-6.2L315.9,345.1z"
	/>
<path id="path12430" class="st0" d="M136.4,324.5c6.5,0,12.2,6,12.2,15.3c0,9.3-5.7,15.3-12.2,15.3c-6.5,0-12.2-6-12.2-15.3
	C124.2,330.5,129.9,324.5,136.4,324.5z M136.4,354.2c4.7,0,7.1-3.3,7.1-14.4c0-11.1-2.4-14.4-7.1-14.4s-6.9,3.3-6.9,14.4
	C129.5,350.9,131.6,354.2,136.4,354.2z"/>
<path id="path12432" class="st0" d="M392,354.5v-0.9h2.6v-27.4H392v-0.9h12.4c7.3,0,9.6,3.4,9.6,7.1c0,4.1-3.1,6.9-9.2,7.3l10,14
	h2.2v0.9h-6.9l-10.6-14.9h-0.2v14h3.1v0.9H392z M399.3,338.9h2.4c5.1,0,7.7-2.5,7.7-6.7c0-3-1.6-6.1-6.3-6.1h-3.7V338.9z"/>
<path id="path12434" class="st0" d="M465.8,343.4c1.8,7.9,3.3,10.8,7.5,10.8c3.9,0,6.9-2.6,6.9-6.2c0-8.4-15.7-5.1-15.7-15.2
	c0-5,3.9-8.4,9.6-8.4c3.3,0,5.9,0.7,8,1.7v8.5h-1l-1.6-4.9c-1-3.4-3.1-4.3-5.9-4.3c-3.7,0-6.3,2.5-6.3,5.6c0,3.2,2.2,4,7.8,6.2
	c6.3,2.4,8.6,4,8.6,8.6c0,5.3-4.5,9.3-11.2,9.3c-2.4,0-5.9-1.1-7.8-2.4v-9.3H465.8z"/>
<path id="path12436" class="st0" d="M508.3,324.6c6.5,0,12.2,6,12.2,15.3c0,9.3-5.7,15.3-12.2,15.3c-6.3,0-12.2-6-12.2-15.3
	C496.2,330.6,502.1,324.6,508.3,324.6z M508.3,354.3c4.7,0,7.1-3.3,7.1-14.4c0-11.1-2.4-14.4-7.1-14.4c-4.7,0-6.9,3.3-6.9,14.4
	C501.5,351,503.6,354.3,508.3,354.3z"/>
<path id="path12438" class="st0" d="M532.5,354.5v-0.9h2.6v-27.4h-2.6v-0.9h12.4c7.1,0,9.6,3.4,9.6,7.1c0,4.1-3.3,6.9-9.4,7.3
	l10.2,14h2v0.9h-6.7l-10.8-14.9h-0.2v14h3.3v0.9H532.5z M539.5,338.9h2.6c5.1,0,7.5-2.5,7.5-6.7c0-3-1.4-6.1-6.1-6.1h-3.9V338.9z"/>
<path id="path12440" class="st0" d="M571.7,353.5h3.3v-27.4h-2.9c-1.8,0-2.4,0.4-3.9,8.4h-1v-9.3h20.2v9.3h-1
	c-1.8-8-2.2-8.4-4.1-8.4h-2.7v27.4h3.1v0.9h-11V353.5z"/>
<path id="path12442" class="st0" d="M601.7,343.4c1.8,7.9,3.3,10.8,7.5,10.8c3.9,0,6.9-2.6,6.9-6.2c0-8.4-15.7-5.1-15.7-15.2
	c0-5,3.9-8.4,9.6-8.4c3.1,0,5.9,0.7,8,1.7v8.5h-1l-1.6-4.9c-1-3.4-3.1-4.3-5.9-4.3c-3.7,0-6.5,2.5-6.5,5.6c0,3.2,2.4,4,8,6.2
	c6.3,2.4,8.4,4,8.4,8.6c0,5.3-4.5,9.3-11,9.3c-2.4,0-5.9-1.1-7.8-2.4v-9.3H601.7z"/>
<path id="path12444" class="st0" d="M427.5,354.5v-0.9h2.6v-27.4h-2.6v-0.9h21.4v9.4h-0.8c-2.4-7.9-3.1-8.5-5.1-8.5h-8.4v12.7h3.3
	c2.2,0,3.1-1.3,3.9-5.8h1v12.6h-1c-0.8-4.5-1.8-5.8-3.9-5.8h-3.3v13.8h7.5c2.9,0,3.9-1.1,6.5-9.9h0.8v10.8H427.5z"/>
<path id="path12446" class="st0" d="M393.2,78.3c-11.6,4.3-27.9,11.7-37.5,24.4c-1,1.5-2.6,1.6-3.9-0.1
	c-2.7-3.2-16.5-17.5-35.9-17.5c-4.7,0-12,1.2-16.9,2.7c0,6.7,0,33.1,0,47.6c3.1-2.2,9.6-4.5,16.1-4.5c9.8,0,28.8,8.5,35.7,14.8
	c2.6,2.3,4.5,2.2,6.7,0c10.2-9.9,28.4-18.6,51.4-18.6c0-8.1,0-58.1,0-58.1s-84.8,0-94,0c11.6-4.3,27.9-11.7,37.3-24.4
	c1.2-1.5,2.7-1.6,4.1,0.1C359,48,372.8,62.2,392,62.2c4.9,0,12.2-1.2,16.9-2.7c0-6.7,0-33.1,0-47.6c-2.9,2.2-9.6,4.5-16.1,4.5
	c-9.6,0-28.6-8.5-35.5-14.8c-2.6-2.3-4.5-2.2-6.9,0c-10.2,9.9-28.3,18.6-51.2,18.6c0,8.1,0,58.1,0,58.1S384,78.3,393.2,78.3"/>
<path id="path12448" class="st0" d="M0,290.7h708.7v-2.5H0V290.7z"/>
<g id="layer1" transform="translate(-1700.8643,-473.28618)">
</g>
</svg>
