<?xml version="1.0" encoding="utf-8"?>
<!-- Generator: Adobe Illustrator 20.0.0, SVG Export Plug-In . SVG Version: 6.00 Build 0)  -->
<svg version="1.1" id="Layer_1" xmlns="http://www.w3.org/2000/svg" xmlns:xlink="http://www.w3.org/1999/xlink" x="0px" y="0px"
	 viewBox="0 0 240 198.7" style="enable-background:new 0 0 240 198.7;" xml:space="preserve">
<style type="text/css">
	.st0{fill:#FFFFFF;}
</style>
<g>
	<path class="st0" d="M16.3,198.7c-2.5,0-4.7-0.3-6.5-0.9c-2.7-0.9-4.9-2.7-6.4-2.7c-1,0-1.7,0.8-1.9,2.7H0v-13.4h1.4
		c2.1,8.2,7,12.6,14.5,12.6c7.2,0,11-2.7,11-7.1c0-4.4-3-5.7-13.7-6.2c-8.4-0.4-12.7-4.8-12.7-11.7c0-7,5.5-12.2,13.1-12.2H14
		c2.1-0.1,4.1,0.4,6,0.9c1.7,0.5,5.9,2.7,6.6,2.7c1,0,1.3-0.5,1.4-2.7h1.4v12.2H28c-1.7-6.8-7.2-11.4-14-11.4
		c-6.1,0-9.1,2.8-9.1,6.3c0,5.7,7.2,5,13.6,5.6c8.1,0.8,13.4,4.3,13.4,12.5C31.9,193.5,25.6,198.7,16.3,198.7"/>
	<path class="st0" d="M52.3,197.8v-1.7h3.2v-17.8c0-3.5-1.7-5.6-5.1-5.6c-2.8,0-5.8,2.8-5.8,5.6v17.8h3.3v1.7H32.7v-1.7h3.2v-33.7
		h-3.2v-1.7h11.9v13.2c1.7-1.9,4.1-3.6,8.2-3.6c8.8,0,11.4,4.3,11.4,9.8v16h3.3v1.7L52.3,197.8"/>
	<path class="st0" d="M88.2,182.7c0-5.4-0.8-10.9-5.5-10.9c-3.5,0-6.3,5.5-6.3,10.9H88.2 M67.6,184.8c0-9.1,6.2-14.6,15.1-14.6
		c8.3,0,12.8,5.5,13.1,14.2H76.3c0,7.8,3.1,11.9,8.3,11.9c3.4,0,9.7-2.2,9.7-8.8v-0.1h1.5v0.4c0,5.8-4.8,11-13.4,11
		C73.9,198.7,67.6,193.9,67.6,184.8"/>
	<path class="st0" d="M118.4,172.3c0.1,0,0.2,0,0.4,0.1c-0.5-0.3-1.1-0.6-1.9-0.6c-6.1,0-8.1,6-8.1,11.8V196h3.3v1.7H96.8V196h3.2
		v-23.2h-3.2v-1.7h11.9v2.7c1.7-2,3.7-3.6,7.8-3.6c2.7,0,5.9,1.7,5.9,6.1c0,2.2-1.8,4-4.1,4c-2.2,0-4-1.8-4-4
		C114.4,174.2,116.2,172.3,118.4,172.3"/>
	<path class="st0" d="M140.1,182.4c-0.6,0.7-2,1.4-3.7,2.2c-4,1.8-5,3.2-5,6.4c0,2.8,1.1,5.3,4,5.3c2.3,0,4.7-2.2,4.7-4.5V182.4
		 M132.2,177.8c0,2.2-1.8,3.9-4,3.9c-2.7,0-4-2-4-4.5c0-4.2,4.9-7,12.4-7c10.7,0,12.7,3.8,12.7,11.8v9.9c0,2.2,0.1,3.6,1.9,3.6
		c1.7,0,2.3-1.9,2.3-5.7v-0.6h1.4v0.8c0,7.8-3.2,8.7-7.7,8.7c-3.1,0-5.3-1.3-6.4-4.4c-1.4,2.9-5.2,4.4-9,4.4c-6.6,0-9.2-3.3-9.2-7.5
		c0-7.3,7.7-7.3,13.1-8.7c3.1-0.8,4.6-2.4,4.6-4.9c0-3.4-2.5-5.4-6.4-5.4c-2.2,0-4.2,0.9-5.3,1.8C130.6,174,132.2,175.7,132.2,177.8
		"/>
	<path class="st0" d="M157.4,190.1v-17.2h-3.2v-1.7c5,0,8.6-3.6,9.7-9.2h2v9.2h4.9v1.7H166V192c0,2.4,1.3,3.6,3,3.6
		c1.7,0,3-1.9,3-5.7v-0.6h1.5v0.8c0,6.9-3.2,8.7-8.3,8.7C160.1,198.7,157.4,197,157.4,190.1"/>
	<path class="st0" d="M189.5,171.8c-4.4,0-6.1,4.7-6.1,13c0,8.4,1.7,12.3,6.1,12.3c4.1,0,6.1-3.9,6.1-12.3
		C195.6,176.5,193.6,171.8,189.5,171.8 M189.5,198.7c-8.4,0-14.8-4.9-14.8-13.9c0-9.1,6.4-14.6,14.8-14.6c9.3,0,14.8,5.5,14.8,14.6
		C204.3,193.9,198.1,198.7,189.5,198.7"/>
	<path class="st0" d="M224.8,197.8v-1.7h3.2v-17.8c0-3.5-1.8-5.6-5.1-5.6c-2.7,0-5.8,2.8-5.8,5.6v17.8h3.3v1.7h-15.2v-1.7h3.2v-23.2
		h-3.2v-1.7h11.9v2.7c1.7-1.9,4.1-3.6,8.2-3.6c8.8,0,11.4,4.3,11.4,9.8v16h3.3v1.7L224.8,197.8"/>
	<path class="st0" d="M105.2,129.4c-3.9,0-7.1,1.6-9.2,2.1c-1.2,0.3-4.6,1.3-7.3,0c-0.5-0.2-2.2-0.3-0.2,1.9
		c0.5,0.6,1.6,1.3,2.9,1.9c6.8,3.3,12.8,1.9,20.2-1.4c1.8-0.8,4.8-0.7,4.8-1.7c-0.1-1-1.6-1.6-2.7-3.1c-4-5.7-9-10.5-15.1-12.7
		c-3.2-1.3-4.7-0.3-3.7,0.5c2.3,2.2,3.5,6.4,6.6,9.9C102.3,127.9,103.7,128.9,105.2,129.4"/>
	<path class="st0" d="M115.6,126.3c0-2.2,3.4-5.6,4-7.6c0.7,2,4,5.4,4,7.6c0,2.2-1.8,4-4,4C117.4,130.3,115.6,128.5,115.6,126.3"/>
	<path class="st0" d="M115.6,137.3c0,2.2,3.4,5.7,4,7.8c0.7-2,4-5.5,4-7.8s-1.8-4-4-4C117.4,133.3,115.6,135.1,115.6,137.3"/>
	<path class="st0" d="M85.1,121c-3.6-1.3-7-1-9.2-1.2c-1.2-0.2-4.5-0.3-6.6-2.3c-0.4-0.4-1.9-1.2-0.8,1.7c0.2,0.6,1,1.5,1.9,2.5
		c5.2,5.3,11.2,6.1,18.8,5.4c2-0.1,5.3,0.6,5.5-0.3c0.2-0.8-1.4-1.7-1.9-3.3c-1.8-6.6-4.7-12.6-9.4-16.7c-2.4-2.1-4.2-1.7-3.6-0.6
		c1.4,2.8,1.1,6.9,2.8,11.2C83,118.6,83.9,120,85.1,121"/>
	<path class="st0" d="M68.7,106c-2.9-2.2-6.2-2.9-8.1-3.6c-1.2-0.5-4-1.6-5.4-4c-0.3-0.5-1.5-1.6-1.4,1.3c0.1,0.6,0.5,1.7,1.2,3.1
		c3.2,6.2,8.5,8.6,15.7,10.1c1.8,0.5,4.7,2,5.1,1.3c0.5-0.6-0.8-1.9-0.7-3.6c0.1-6.5-0.9-12.8-4.1-17.8c-1.5-2.8-3.3-2.9-3-1.6
		c0.4,2.9-1,6.6-0.6,10.9C67.4,103.4,67.9,104.8,68.7,106"/>
	<path class="st0" d="M58.7,88c-2-2.9-4.8-4.5-6.3-5.7c-1-0.7-3.3-2.7-3.7-5.3c-0.2-0.5-1-1.8-1.7,0.9c0,0.6,0,1.7,0.2,3.1
		c1.1,6.7,5.2,10.4,11.3,13.9c1.6,1.1,3.7,3.2,4.4,2.8c0.6-0.5-0.2-2,0.3-3.5c2.1-5.9,3.1-12.1,1.6-17.6c-0.6-3-2.2-3.5-2.2-2.3
		c-0.5,2.8-2.9,5.7-3.8,9.9C58.4,85.1,58.4,86.7,58.7,88"/>
	<path class="st0" d="M55.3,67.5c-0.8-3.1-2.8-5.4-3.6-7.1c-0.4-1-1.9-3.4-1.4-5.9c0-0.4-0.2-1.9-1.7,0.2c-0.3,0.5-0.6,1.6-1,2.8
		c-1.3,6.2,1.2,10.8,5.2,16c1.1,1.4,2.1,4.1,2.8,3.8c0.7-0.2,0.6-1.8,1.6-2.9c3.7-4.6,6.7-9.7,7.1-15c0.4-2.8-0.7-3.9-1.1-2.9
		c-1.4,2.3-4.6,4.1-6.6,7.4C55.9,64.8,55.3,66.3,55.3,67.5"/>
	<path class="st0" d="M57.9,48.2c0-3.1-1.2-5.7-1.6-7.4c-0.2-1.1-0.9-3.6,0.2-5.7c0.1-0.5,0.2-1.9-1.7-0.3c-0.3,0.4-0.9,1.3-1.5,2.3
		c-2.7,5.3-1.6,10.3,0.8,16c0.6,1.5,1,4.2,1.6,4.1c0.7,0,1.1-1.5,2.1-2.3c4.6-3.3,8.5-7.1,10.3-11.9c1.1-2.4,0.2-3.8-0.3-3
		c-1.8,1.8-5.1,2.7-7.9,5.3C59.1,45.9,58.3,47.2,57.9,48.2"/>
	<path class="st0" d="M65.6,31.2c1-3,0.5-5.8,0.6-7.6c0-1.1,0.1-3.7,1.7-5.5c0.3-0.3,0.7-1.6-1.4-0.6c-0.5,0.2-1.3,0.8-2.1,1.8
		c-4.1,4.4-4.5,9.5-3.7,15.6c0.2,1.7-0.2,4.4,0.4,4.5c0.7,0.2,1.4-1.2,2.8-1.7c5.2-1.8,10.1-4.5,13.1-8.5c1.7-2.1,1.4-3.6,0.5-3
		c-2.2,1.2-5.6,1.2-9,2.9C67.4,29.2,66.2,30.2,65.6,31.2"/>
	<path class="st0" d="M77.4,17.6c1.7-2.2,2.3-4.7,2.9-6.2c0.4-0.7,1.3-3,3.2-3.8c0.4-0.3,1.2-1.3-1-1.1c-0.4,0-1.4,0.3-2.3,0.7
		c-4.7,2.3-6.6,6.4-8,11.7c-0.3,1.4-1.5,3.5-1,3.8c0.5,0.3,1.5-0.5,2.7-0.5c5,0.1,9.9-0.5,13.5-3c2-1.2,2.2-2.4,1.4-2.2
		c-2.2,0.3-5-0.7-8.3-0.5C79.4,16.5,78.2,16.9,77.4,17.6"/>
	<path class="st0" d="M90.7,8.5c1.8-1.5,2.8-3.5,3.6-4.7c0.4-0.5,1.6-2.3,3.4-2.8C98.2,1,98.9,0.3,97.1,0c-0.4-0.1-1.2,0-2.1,0.2
		c-4.5,1.1-6.9,4.2-9,8.7c-0.5,1.1-2,2.8-1.5,3.1c0.3,0.3,1.4-0.3,2.4,0c4.1,1.1,8.5,1.4,12.1-0.1c1.9-0.6,2.3-1.7,1.6-1.6
		c-2-0.2-4.1-1.6-7.1-2C92.7,8.1,91.5,8.2,90.7,8.5"/>
	<path class="st0" d="M111.6,1.4c-1.4,3-4.9,3.9-5.9,4.2c-0.8,0.3-4.5,1.3-7.1-0.5c1.4-3,4.9-3.9,5.8-4.2
		C105.3,0.7,108.8-0.4,111.6,1.4"/>
	<path class="st0" d="M141.5,31.7c2.3,0.8,4.3-0.2,5.2-2.1c0.4-0.8,0.6-1.4,0.6-2.2h3.1v25h-2.2c-3.8-10.4-13.4-20.5-24.5-22.9
		c-11-1.7-23.9-1.5-30.3,8.2c-1.8,2.7-0.9,8.1,2.5,10c11.4,6.9,23.8,3.7,38.9,5.8c7.6,1.1,16,5.4,19.4,13.9
		c3.3,8.2,2.7,16.6-0.6,22.1c-7.8,13.3-22.2,14.5-31.4,14.5c-9.7,0-19.3-4.5-27-7.2c-2.3-0.8-4.4,0.2-5.2,2.1
		c-0.4,0.8-0.6,1.5-0.6,2.2h-3.1V74.7c0.8,0,1.8,0,3.1,0.1c3,12.1,12.5,21,22.1,23.8c11,3.3,22.1,2.8,30.7-3.3
		c3.4-2.3,4.7-7.4,3.4-11.9c-1.9-6.7-12.2-8.5-19.6-8.6c-15.9-0.4-35.2-0.2-41-17.7c-2.2-8.4-0.8-17.6,5.2-23.9
		c10-9.8,26.8-10.1,39.5-6.2C134.2,28,137.2,30.4,141.5,31.7"/>
	<path class="st0" d="M134.1,129.4c3.9,0,7.1,1.6,9.3,2.1c1.2,0.3,4.5,1.3,7.2,0c0.5-0.2,2.2-0.3,0.2,1.9c-0.5,0.6-1.6,1.3-2.9,1.9
		c-6.8,3.3-12.8,1.9-20.1-1.4c-1.9-0.8-4.9-0.7-4.8-1.7c0-1,1.5-1.6,2.6-3.1c4-5.7,9-10.5,15.1-12.7c3.2-1.3,4.7-0.3,3.7,0.5
		c-2.3,2.2-3.4,6.4-6.6,9.9C136.9,127.9,135.5,128.9,134.1,129.4"/>
	<path class="st0" d="M154.1,121c3.6-1.3,7-1,9.2-1.2c1.2-0.2,4.6-0.3,6.6-2.3c0.4-0.4,1.9-1.2,0.8,1.7c-0.2,0.6-1,1.5-1.9,2.5
		c-5.2,5.3-11.2,6.1-18.8,5.4c-2-0.1-5.2,0.6-5.5-0.3c-0.2-0.8,1.4-1.7,1.9-3.3c1.8-6.6,4.7-12.6,9.4-16.7c2.4-2.1,4.2-1.7,3.6-0.6
		c-1.4,2.8-1.1,6.9-2.8,11.2C156.2,118.6,155.3,120,154.1,121"/>
	<path class="st0" d="M170.6,106c2.9-2.2,6.2-2.9,8.1-3.6c1.2-0.5,4.1-1.6,5.4-4c0.3-0.5,1.5-1.6,1.4,1.3c-0.1,0.6-0.5,1.7-1.2,3.1
		c-3.2,6.2-8.5,8.6-15.7,10.1c-1.8,0.5-4.7,2-5.1,1.3c-0.4-0.6,0.8-1.9,0.7-3.6c-0.1-6.5,0.8-12.8,4.1-17.8c1.6-2.8,3.3-2.9,3-1.6
		c-0.4,2.9,0.9,6.6,0.6,10.9C171.9,103.4,171.3,104.8,170.6,106"/>
	<path class="st0" d="M180.6,88c2-2.9,4.8-4.5,6.4-5.7c0.8-0.7,3.2-2.7,3.7-5.3c0.1-0.5,0.8-1.8,1.6,0.9c0.1,0.6,0,1.7-0.1,3.1
		c-1.1,6.7-5.3,10.4-11.4,13.9c-1.6,1.1-3.7,3.2-4.2,2.8c-0.6-0.5,0.1-2-0.4-3.5c-2-5.9-3.1-12.1-1.6-17.6c0.7-3,2.2-3.5,2.2-2.3
		c0.5,2.8,3,5.7,3.8,9.9C181,85.1,181,86.7,180.6,88"/>
	<path class="st0" d="M184,67.5c0.8-3.1,2.8-5.4,3.6-7.1c0.4-1,1.9-3.4,1.4-5.9c0-0.4,0.3-1.9,1.8,0.2c0.3,0.5,0.5,1.6,0.9,2.8
		c1.3,6.2-1.2,10.8-5.1,16c-1.2,1.4-2.2,4.1-2.9,3.8c-0.7-0.2-0.5-1.8-1.5-2.9c-3.8-4.6-6.7-9.7-7.2-15c-0.4-2.8,0.7-3.9,1.1-2.9
		c1.4,2.3,4.6,4.1,6.6,7.4C183.4,64.8,184,66.3,184,67.5"/>
	<path class="st0" d="M181.4,48.2c-0.1-3.1,1.1-5.7,1.5-7.4c0.2-1.1,1-3.6-0.1-5.7c-0.2-0.5-0.3-1.9,1.6-0.3
		c0.4,0.4,0.9,1.3,1.5,2.3c2.8,5.3,1.6,10.3-0.7,16c-0.6,1.5-1.1,4.2-1.7,4.1c-0.7,0-1-1.5-2.1-2.3c-4.5-3.3-8.5-7.1-10.3-11.9
		c-1-2.4-0.2-3.8,0.4-3c1.7,1.8,5.1,2.7,7.9,5.3C180.1,45.9,181.1,47.2,181.4,48.2"/>
	<path class="st0" d="M173.7,31.2c-1-3-0.5-5.8-0.5-7.6c-0.1-1.1-0.2-3.7-1.8-5.5c-0.2-0.3-0.8-1.6,1.5-0.6c0.4,0.2,1.2,0.8,2,1.8
		c4.1,4.4,4.5,9.5,3.7,15.6c-0.2,1.7,0.2,4.4-0.4,4.5c-0.7,0.2-1.4-1.2-2.7-1.7c-5.3-1.8-10.2-4.5-13.2-8.5c-1.7-2.1-1.3-3.6-0.5-3
		c2.2,1.2,5.6,1.2,9,2.9C171.9,29.2,173,30.2,173.7,31.2"/>
	<path class="st0" d="M162.1,17.5c-1.6-2.2-2.2-4.7-2.8-6.2c-0.4-0.7-1.4-3-3.2-3.8c-0.4-0.3-1.2-1.3,1-1.1c0.4,0,1.3,0.3,2.3,0.7
		c4.7,2.3,6.6,6.4,7.9,11.7c0.3,1.5,1.6,3.5,1.1,3.8c-0.5,0.4-1.5-0.5-2.8-0.5c-4.9,0.2-9.8-0.5-13.4-2.9c-2.1-1.3-2.2-2.5-1.5-2.3
		c2.3,0.3,5.1-0.7,8.4-0.5C160.1,16.4,161.4,16.8,162.1,17.5"/>
	<path class="st0" d="M148.6,8.5c-1.8-1.5-2.8-3.5-3.6-4.8c-0.4-0.5-1.6-2.2-3.4-2.8c-0.4-0.1-1.2-0.7,0.6-1c0.4-0.1,1.3,0,2.1,0.2
		c4.5,1.1,6.9,4.2,9,8.6c0.5,1.2,2,2.8,1.5,3.1c-0.3,0.4-1.4-0.2-2.4,0.1c-4.1,1.1-8.5,1.3-12-0.1c-2-0.6-2.4-1.8-1.7-1.7
		c2-0.2,4.1-1.6,7.1-2C146.7,8,147.9,8.2,148.6,8.5"/>
	<path class="st0" d="M127.7,1.4c1.4,3,4.9,3.9,5.9,4.2c0.8,0.3,4.5,1.3,7.1-0.5c-1.4-3-4.9-3.9-5.8-4.2
		C134,0.7,130.5-0.4,127.7,1.4"/>
</g>
</svg>
