<?xml version="1.0" encoding="utf-8"?>
<!-- Generator: Adobe Illustrator 20.0.0, SVG Export Plug-In . SVG Version: 6.00 Build 0)  -->
<svg version="1.1"
	 id="svg3443" inkscape:version="0.48.1 " sodipodi:docname="Neues Dokument 3" xmlns:cc="http://creativecommons.org/ns#" xmlns:dc="http://purl.org/dc/elements/1.1/" xmlns:inkscape="http://www.inkscape.org/namespaces/inkscape" xmlns:rdf="http://www.w3.org/1999/02/22-rdf-syntax-ns#" xmlns:sodipodi="http://sodipodi.sourceforge.net/DTD/sodipodi-0.dtd" xmlns:svg="http://www.w3.org/2000/svg"
	 xmlns="http://www.w3.org/2000/svg" xmlns:xlink="http://www.w3.org/1999/xlink" x="0px" y="0px" viewBox="0 0 150.8 89.6"
	 style="enable-background:new 0 0 150.8 89.6;" xml:space="preserve">
<style type="text/css">
	.st0{fill:#FFFFFF;}
</style>
<sodipodi:namedview  bordercolor="#666666" borderopacity="1.0" fit-margin-bottom="0" fit-margin-left="0" fit-margin-right="0" fit-margin-top="0" id="base" inkscape:current-layer="layer1" inkscape:cx="76.400005" inkscape:cy="45.810004" inkscape:document-units="px" inkscape:pageopacity="0.0" inkscape:pageshadow="2" inkscape:window-height="678" inkscape:window-maximized="1" inkscape:window-width="1024" inkscape:window-x="-4" inkscape:window-y="-4" inkscape:zoom="5.1441958" pagecolor="#ffffff" showgrid="false">
	</sodipodi:namedview>
<g id="layer1" transform="translate(-260.66365,-601.05932)" inkscape:groupmode="layer" inkscape:label="Ebene 1">
	<g id="g94" transform="matrix(1.25,0,0,-1.25,337.12452,633.83049)">
		<path id="path96" inkscape:connector-curvature="0" class="st0" d="M-0.8,0.8c-0.8-1.2-1.9-1.6-2.9-1.7c-1.8-0.2-3.2,0.8-4.1,1.6
			c0-0.2,0-0.6-0.1-1.1C-8.4-0.2-8.8,0-9.1,0.1C-9,1.3-9,2.4-9,2.9v0.7h0.6c0.3-1.1,1.4-2.1,2.6-2.6c1.1-0.5,2.4-0.4,3.4,0.4
			c0.7,0.6,1,2.2,0.3,3.2C-2.4,4.8-2.6,5-2.8,5.1h2.1c0.2-0.3,0.4-0.7,0.4-0.9C0,3.2-0.1,1.8-0.8,0.8 M-7-4.2
			c-0.9,1.6-2.7,2.9-4,2.5c-0.4-0.2-0.7-0.6-0.7-1c0-0.5,0.4-1.1,1.2-1c0.2,0,0.4,0.1,0.6,0.2C-9.7-3.3-9.6-3-9.5-2.7
			c0.3-0.1,0.6-0.4,0.9-0.7c-0.5-1.2-2.2-1.5-3.2-0.9c-0.6,0.3-1,1-0.9,2c0.1,0.7,0.5,1.2,1.1,1.5c0.6,0.4,1.4,0.4,2.4,0.2
			c1-0.3,2-0.9,2.3-1.4c0.2,0.2,0.4,0.6,0.6,0.9c0.3-0.2,0.9-0.4,1.5-0.5C-5.2-2.3-6.4-3.8-7-4.2 M-8.1,12.4
			c1.5,1.8,4.3,1.7,5.9,0.5l0.5-0.4l2,0.6L-2,10.7c-1,1.7-4,2.4-4.8,0.5c-0.5-0.9-0.4-2,0.8-2.7V6.8C-6.2,6.9-6.4,7-6.6,7.1
			C-9.4,8.5-9,11.2-8.1,12.4 M3.1,10.2V9.4H2l0-1.3H0.5v1.3h-1.3L2,12.2v-2.1H3.1z M-7.4,17.5c0.2-0.7,0.8-1.5,3.5-1.5
			c2.9,0,5.2,0,5.7,0c4.8,0,5.2-4.1,5.2-5c0-1.1-0.2-3.5-2.6-4.7C4.1,6.1,3.8,5.9,3.3,5.8C4.2,5.3,5,3.5,5.7,1.6
			c0.5-1.2,0.9-2.4,1.4-3.2c0.3-0.5,0.7-1,1.1-1.2C8.5-2.9,8.8-2.9,9-2.9c0.5,0,0.8,0.2,0.9,0.5C9.5-2.7,8.9-2.4,8.8-2
			C8.6-1.6,8.7-1.3,8.9-1c0.2,0.4,0.6,0.5,1.1,0.5c1.4-0.1,1.4-1.6,1.4-1.6c0-0.9-0.3-1.5-0.9-1.9C10-4.3,9.6-4.5,8.9-4.5
			C7.5-4.5,5.8-3.6,4.2,0.9C3.7,2.6,2.8,4.3,1.9,5C1.5,5.4,0.7,5.8-0.4,5.8l-3.3,0c0,0,0-0.9,0-1.2c0-0.5-0.2-3.1-0.3-3.4
			c-0.4-0.1-1.4,0.1-1.6,0.3c0.2,0.9,0.3,2,0.3,3.9c0,0.3,0,0.4,0,0.4l0,5.7c0.3,0.1,1.3,0,1.6-0.3l0-3.9c0,0,4,0,5.7,0
			c2.4,0,3.5,1.4,3.5,3.4c0,2-1.3,3.4-3.7,3.4h-5.7l-0.9,0C-6.3,14.3-8,15.7-7.4,17.5 M8.3,4.2L7,2.9L5.7,4.2L7,5.4L8.3,4.2z
			 M0.4-3.6V5C0.9,5,1.9,4.3,2,4v-4.7l1.1,1l0.7-0.7C3.8-0.3,0.4-3.6,0.4-3.6z M1.9-10.5c1.8,0.8,3.9,0.9,5.4,0.2
			c0.1,0.3,0.1,0.5,0.1,0.5c0.4,0.6,1,1,1.8,1c1,0,1.7-0.7,1.9-1.6c2.2,0.4,4.4,2.9,5.2,5.2c0.3,1,0.7,2.8,0.7,4c0,0.1,0,0.3,0,0.4
			c0,0.7-0.2,1.3-0.3,1.7l-0.2,0c-1.1,0-2,0.9-2,2c0,0.4,0.1,0.8,0.3,1.1c-0.5,0.3-0.9,0.6-1.4,1c-1.3,1.4-1.9,3.6-2.1,5.2
			c-0.1,0.6-0.1,1.1-0.1,1.6c0,0.8,0.1,1.6,0.3,2.3c0.2,0.6,0.4,1,0.6,1.5C11,15.9,9.8,16.6,8.9,18v0c-0.9,1.3-1.2,2.6-1,3.7
			c-0.5,0-1.1,0.1-1.8,0.4c-0.9,0.4-1.4,0.7-1.8,1L3,23.8c-0.3,0.1-0.6,0.2-0.8,0.3c-0.3-0.7-1-1.2-1.8-1.2c-0.5,0-0.9,0.2-1.3,0.5
			c-0.3-0.3-0.8-0.5-1.3-0.5c-0.8,0-1.5,0.5-1.8,1.2c-0.2-0.1-0.5-0.1-0.7-0.3L-6,23c-0.5-0.3-0.9-0.6-1.8-1
			c-0.7-0.3-1.3-0.4-1.8-0.4c0.1-1.1-0.1-2.4-1-3.7c-1-1.4-2.2-2-3.3-2.3c0.2-0.4,0.5-0.9,0.6-1.5c0.3-1.1,0.4-2.4,0.2-3.9
			c-0.2-1.6-0.7-3.8-2.1-5.2c-0.4-0.4-0.9-0.8-1.3-1c0.2-0.3,0.3-0.7,0.3-1.1c0-1.1-0.9-2-2-2l-0.2,0c-0.1-0.4-0.2-1-0.3-1.7
			c0-0.1,0-0.3,0-0.4c0-1.3,0.3-3,0.6-4.1c0.7-2.3,3-4.8,5.2-5.2c0.2,0.9,1,1.6,1.9,1.6c0.7,0,1.4-0.4,1.8-1c0,0,0.1-0.2,0.1-0.5
			c1.5,0.7,3.5,0.7,5.4-0.2c1.2-0.5,2.1-1.4,2.8-2.6C-0.2-11.9,0.8-11,1.9-10.5 M19.1-0.6c-0.1,1.6-0.5,3.2-1.4,4
			C17.5,3.7,17,4,16.5,3.9c-0.5,0-0.9-0.4-0.9-0.9c0-0.5,0.4-0.9,0.9-0.9c0.3,0,0.6,0.1,0.7,0.4c0.4-0.6,0.7-1.7,0.8-3.1
			c0.1-1.5-0.3-3.6-0.7-4.9c-0.9-2.9-3.9-6-6.8-6.1c-0.4,0-0.6,0-0.8,0.1c0.2,0.2,0.3,0.4,0.3,0.6c0,0.5-0.4,0.9-0.9,0.9
			c-0.3,0-0.6-0.2-0.8-0.5c-0.1-0.1-0.1-0.4-0.1-0.5c0-0.1,0-0.3,0.1-0.5c0.1-0.2,0.2-0.5,0.4-0.7c0.4-0.4,1.1-0.6,1.9-0.6
			c3.4,0.1,6.7,3.6,7.7,6.8C18.8-4.5,19.2-2.2,19.1-0.6 M-10.9-9.9c-0.5,0-0.9-0.4-0.9-0.9c0-0.3,0.1-0.5,0.3-0.6
			c-0.2-0.1-0.4-0.1-0.8-0.1c-2.9,0.1-5.8,3.2-6.8,6.1c-0.4,1.3-0.8,3.4-0.7,4.9c0.1,1.4,0.4,2.5,0.8,3.1c0.2-0.2,0.4-0.4,0.7-0.4
			c0.5,0,0.9,0.4,0.9,0.9c0,0.5-0.3,0.9-0.9,0.9c-0.5,0-1-0.2-1.3-0.5c-0.8-0.8-1.3-2.4-1.4-4c-0.1-1.6,0.3-3.9,0.7-5.3
			c1-3.2,4.3-6.7,7.7-6.8c0.8,0,1.5,0.2,1.9,0.6c0.2,0.2,0.4,0.5,0.4,0.7C-10-11.1-10-11-10-10.9c0,0.1,0,0.4-0.1,0.5
			C-10.3-10.1-10.5-9.9-10.9-9.9 M-19.1,5.3c0.1-0.1,0.3-0.3,0.4-0.4c0.2-0.1,0.4-0.1,0.7-0.1c0.2,0,0.4,0.1,0.7,0.1
			c0.5,0.2,1,0.5,1.4,1c1.1,1.2,1.6,3.2,1.8,4.6c0.2,1.4,0.1,2.5-0.2,3.5c-0.4,1.4-1.1,2.3-1.9,2.4c-0.2,0-0.4,0-0.6,0
			c-0.3-0.1-0.6-0.5-0.6-0.8c0-0.5,0.4-0.9,0.9-0.9c0.3,0,0.5,0.1,0.7,0.4c0.2-0.3,0.4-0.7,0.6-1.3c0.2-0.8,0.3-1.8,0.1-3.1
			c-0.2-1.3-0.6-3-1.5-4.1c-0.3-0.3-0.6-0.5-0.9-0.7v0c0,0.5-0.4,0.9-0.9,0.9c-0.4,0-1-0.3-0.9-1.1C-19.3,5.5-19.2,5.4-19.1,5.3
			 M-4.1-11.5c-1.6,0.7-3.4,0.7-4.6,0.1c-0.6-0.3-1-0.8-1.2-1.3c-0.1-0.2-0.1-0.4-0.1-0.6c0,0,0-0.4,0.2-0.7
			c0.2-0.2,0.4-0.3,0.7-0.3c0.5,0,0.9,0.4,0.9,0.9c0,0.4-0.2,0.7-0.5,0.8c0.1,0.1,0.2,0.2,0.4,0.3c0.9,0.5,2.4,0.4,3.7-0.1
			c0.9-0.4,1.6-1.1,2-2c0.1-0.3,0.2-0.6,0.2-0.9l-0.2,0c-0.5,0-0.9-0.4-0.9-0.9c0-0.5,0.4-0.9,0.9-0.9c0.5,0,0.8,0.3,0.9,0.5
			c0.4,0.6,0.3,1.8,0,2.6C-2.1-12.9-3-12-4.1-11.5 M-10.3,23c0.4-0.3,1-0.5,2.1,0c0.8,0.3,1.2,0.6,1.6,0.9l1.4,0.8
			c0.9,0.5,1.8,0.6,2.4,0.5C-2.9,25.2-3,25-3,24.8c0-0.5,0.4-0.8,0.8-0.8c0.5,0,0.8,0.4,0.8,0.8c0,0.2,0,0.4-0.1,0.6
			c-0.1,0.2-0.2,0.3-0.5,0.5c-0.8,0.5-2.3,0.3-3.7-0.4l-1.5-0.9c-0.4-0.3-0.8-0.5-1.5-0.8c-0.3-0.1-0.6-0.2-0.9-0.2
			c0.1,0.1,0.2,0.3,0.2,0.5c0,0.5-0.4,0.8-0.8,0.8c-0.4,0-0.8-0.3-0.8-0.9C-10.9,23.7-10.7,23.3-10.3,23 M-15.7,17.1
			c0.1-0.1,0.3-0.2,0.5-0.3c1-0.3,2.6,0.2,3.7,1.8c1.1,1.6,1,3.2,0.4,4c-0.1,0.2-0.3,0.3-0.6,0.4c-0.2,0.1-0.5,0.1-0.7,0
			c-0.3-0.2-0.5-0.4-0.5-0.8c0-0.5,0.4-0.8,0.8-0.8c0.2,0,0.3,0.1,0.5,0.2c0.1-0.6,0-1.5-0.7-2.4c-0.7-1-1.6-1.4-2.2-1.5l0,0.3
			c0,0.5-0.4,0.8-0.9,0.8c-0.2,0-0.4-0.1-0.6-0.2c-0.1-0.1-0.3-0.4-0.3-0.6c0-0.2,0.1-0.5,0.2-0.6L-15.7,17.1 M12.6,13.9
			c-0.3-0.9-0.3-2.1-0.1-3.5c0.2-1.4,0.6-3.4,1.8-4.6c0.4-0.5,0.9-0.8,1.4-1c0.2-0.1,0.5-0.1,0.7-0.1c0.3,0,0.5,0,0.7,0.1
			c0.2,0.1,0.3,0.2,0.4,0.4c0.1,0.1,0.2,0.3,0.2,0.4c0.1,0.8-0.4,1.1-0.9,1.1c-0.5,0-0.9-0.4-0.9-0.9l0,0c-0.3,0.1-0.6,0.3-0.9,0.7
			c-1,1-1.4,2.8-1.5,4.1c-0.2,1.2-0.1,2.3,0.1,3.1c0.2,0.5,0.4,0.9,0.6,1.3c0.2-0.2,0.4-0.4,0.7-0.4c0.5,0,0.9,0.4,0.9,0.9
			c0,0.4-0.3,0.7-0.6,0.8c-0.2,0.1-0.4,0.1-0.6,0C13.7,16.2,13,15.3,12.6,13.9 M9.8,18.6c1.1-1.6,2.7-2.1,3.7-1.8
			c0.2,0.1,0.4,0.1,0.5,0.3l0.2,0.2c0.1,0.1,0.2,0.4,0.2,0.6c0,0.3-0.1,0.5-0.3,0.6c-0.2,0.2-0.4,0.2-0.6,0.2
			c-0.5,0-0.9-0.4-0.9-0.8l0-0.3c-0.6,0-1.5,0.4-2.2,1.5c-0.6,0.9-0.8,1.8-0.7,2.4c0.1-0.1,0.3-0.2,0.5-0.2c0.5,0,0.8,0.4,0.8,0.8
			c0,0.4-0.2,0.7-0.5,0.8c-0.2,0.1-0.4,0.1-0.7,0c-0.2-0.1-0.4-0.2-0.6-0.4C8.8,21.8,8.7,20.2,9.8,18.6 M6.9-11.4
			c-1.2,0.6-3,0.6-4.6-0.1c-1.1-0.5-2-1.4-2.5-2.6c-0.3-0.8-0.5-2,0-2.6c0.1-0.2,0.4-0.5,0.9-0.5c0.5,0,0.9,0.4,0.9,0.9
			c0,0.5-0.4,0.9-0.9,0.9l-0.2,0c0,0.3,0.1,0.6,0.2,0.9c0.4,0.9,1.1,1.6,2,2c1.3,0.6,2.8,0.6,3.7,0.1c0.2-0.1,0.3-0.2,0.4-0.3
			c-0.3-0.2-0.5-0.5-0.5-0.8c0-0.5,0.4-0.9,0.9-0.9c0.3,0,0.5,0.1,0.7,0.3c0.2,0.3,0.2,0.7,0.2,0.7c0,0.2,0,0.4-0.1,0.6
			C8-12.2,7.6-11.7,6.9-11.4 M0.4,24c0.5,0,0.8,0.4,0.8,0.8c0,0.2-0.1,0.3-0.2,0.5c0.6,0.1,1.5-0.1,2.4-0.5L4.9,24
			c0.4-0.3,0.9-0.6,1.6-0.9c1.1-0.5,1.8-0.3,2.1,0c0.3,0.2,0.6,0.6,0.6,1c0,0.6-0.4,0.9-0.8,0.9c-0.5,0-0.8-0.3-0.8-0.8
			c0-0.2,0.1-0.4,0.2-0.5c-0.2,0-0.5,0.1-0.9,0.2c-0.7,0.3-1.1,0.5-1.5,0.8l-1.5,0.9c-1.4,0.7-2.9,0.8-3.7,0.4
			c-0.2-0.1-0.4-0.3-0.5-0.5c-0.1-0.2-0.1-0.4-0.1-0.6C-0.4,24.4,0,24,0.4,24"/>
	</g>
	<g id="g98" transform="matrix(1.25,0,0,-1.25,318.55178,680.6421)">
		<path id="path100" inkscape:connector-curvature="0" class="st0" d="M-0.8,0.8h-2.6v4.9h2.6c2.7,0,3.6-0.2,3.6-2.5
			C2.8,1,1.9,0.8-0.8,0.8 M4.4-1.6L2.1-0.2c2.7,0.1,4.6,0.6,4.6,3.4c0,2.6-2.6,3.6-6.1,3.6h-8.8l1.6-1.4v-9.8l-1.6-1.6h6.5l-1.6,1.6
			v4.3H0l3.5-5.9h4.4L6.1-4.5C6.1-4.5,4.4-1.6,4.4-1.6z M17.1-5.1v5h3.7l1.6-1.4v3.9l-1.6-1.4h-3.7v4.9h5.5l2.9-2.5v3.5H12l1.8-1.6
			v-9.6L12-6.1h13.6v3.5l-3-2.5H17.1z M56.8,6.7h-6.6l1.6-1.4v-10l-1.6-1.4h6.6l-1.6,1.4v10L56.8,6.7z M64.4,4.6
			c0,1.4,1.8,1.9,3.5,1.9C70,6.5,71.8,5,72.2,3h1.5l0,4L72,6.1c-0.8,0.6-2.6,1.2-4.2,1.2c-2.7,0-6-0.8-6-4c0-4.1,10.1-3.7,10.1-7
			c0-1.6-2-2.1-4-2.1c-2.5,0-4.1,1.9-4.5,4h-1.6v-4.6l1.7,0.9c1.5-0.8,2.7-1.3,4.4-1.3c3.6,0,6.5,1.2,6.5,4.2
			C74.3,2.5,64.4,2,64.4,4.6 M39.6,0.2l1.6-1.3v-2.3c0-1.2-1.7-2.2-2.9-2.2c-4,0-4.5,3.5-4.5,5.8c0,3.2,1.2,5.9,4.5,5.9
			c2.8,0,3.9-1.5,4.9-3.7h1.4v4.2l-1.6-0.8c-0.6,0.4-2,1.2-4.6,1.2c-4.9,0-8.3-2.1-8.3-6.7c0-4.9,3.4-6.8,8.2-6.8
			c1.4,0,3,0.5,4.6,1.4l1.8-1.1l0,5.1l1.6,1.3C46.1,0.2,39.6,0.2,39.6,0.2z M-25.7-6.1l2.1-1.9l2.1,1.9l-2.1,1.9
			C-23.5-4.2-25.7-6.1-25.7-6.1z M-30.4,3.2l3,2.5h2.2v-7l-1.6-1.4h6.6l-1.6,1.4v7h2.2l3-2.5v3.5h-13.7C-30.4,6.7-30.4,3.2-30.4,3.2
			z M-43.7,4.6c0,1.4,1.8,1.9,3.5,1.9c2.1,0,3.9-1.4,4.3-3.4h1.5l0,4l-1.6-0.9c-0.8,0.6-2.6,1.2-4.2,1.2c-2.7,0-6-0.8-6-4
			c0-4.1,10.1-3.7,10.1-7c0-1.6-2-2.1-4-2.1c-2.5,0-4.1,1.9-4.5,4h-1.6v-4.6l1.7,0.9c1.5-0.8,2.7-1.3,4.3-1.3c3.6,0,6.5,1.2,6.5,4.2
			C-33.8,2.5-43.7,2-43.7,4.6"/>
	</g>
</g>
</svg>
