<?xml version="1.0" encoding="utf-8"?>
<!-- Generator: Adobe Illustrator 20.0.0, SVG Export Plug-In . SVG Version: 6.00 Build 0)  -->
<svg version="1.1" id="svg2" xmlns:svg="http://www.w3.org/2000/svg"
	 xmlns="http://www.w3.org/2000/svg" xmlns:xlink="http://www.w3.org/1999/xlink" x="0px" y="0px" viewBox="0 0 885.8 736.5"
	 style="enable-background:new 0 0 885.8 736.5;" fill="white" xml:space="preserve">
<path id="path3844" class="st0" d="M223,725.6c-32.9,0-42.4-32.9-42.4-56.8c0-24.6,10-57.1,43.1-57.1c32.8,0,42.3,33.1,42.1,56.4
	C265.8,678.5,263,725.6,223,725.6 M223.6,601.1c-38.4,0-55.9,32-55.9,67.7c0,22.7,7,39.7,16.1,50.3c10.6,12.6,23.8,17.5,39.8,17.5
	c10.6,0,26.2-1.9,38.8-16.8c10.5-12.4,16.4-32.2,16.6-51.8C279.1,638.8,266.5,601.1,223.6,601.1 M91.9,661.8H12.2v-57.6H0v129.1
	h12.2v-60.8h79.8v60.8h12.2V604.3H91.9V661.8z M856.1,663.9c-4-1.5-22.5-6.2-26.1-7.3c-7.3-2.2-21.7-6.8-21.7-22.6
	c0-17.1,16.4-23,30.3-23c11.2,0,21.5,4,28,12.9c2.8,3.9,4.3,8.3,5.4,11.6l11.3-6.3c-2.8-7.1-11.3-28.3-44.3-28.3
	c-20.1,0-42.5,8.2-42.5,33.6c0,24,20.6,30.7,38.8,35.5c16.9,4.4,24.4,6.2,30.4,11.2c3.5,2.6,7.8,8,7.8,17.3
	c0,13.6-11,27.4-35.8,27.4c-13.3,0-26.7-4.6-32.5-16.6c-2.4-4.5-2.9-9.9-3.1-15l-12.3,6.4c2.2,11.8,7.7,21.3,17.5,27.9
	c6.8,4.4,16.6,7.9,30.3,7.9c32.9,0,48.2-20.5,48.2-38.6C885.8,673.5,863.1,666,856.1,663.9 M507.4,672.9h65.3v-11.3h-65.3v-45.9
	h72.1v-11.4h-84.3v129.1h88.9V722h-76.8V672.9z M726.9,15.7l-80.2,0.2L545.2,252.7L425.5,0L307,252.7l-99.5-237h-80.4l178.7,413.5
	L425.9,169L544.2,430L726.9,15.7z M330,615h40.7v118.4h12.2V615h40.8v-10.7H330V615z M673.9,604.3h-12.5v129.1h83.8V722h-71.3V604.3
	z"/>
</svg>
