<?xml version="1.0" encoding="utf-8"?>
<!-- Generator: Adobe Illustrator 20.0.0, SVG Export Plug-In . SVG Version: 6.00 Build 0)  -->
<svg version="1.1" id="Layer_1" xmlns="http://www.w3.org/2000/svg" xmlns:xlink="http://www.w3.org/1999/xlink" x="0px" y="0px"
	 viewBox="0 0 314 315.7" style="enable-background:new 0 0 314 315.7;" xml:space="preserve" fill="white">
<path class="st0" d="M314,196.3v-4.1h-25.3v47.1h4.4v-20.5H309v-4.1h-15.9v-18.3 M272,205.2c0,6.2-4.2,10.3-10.8,10.3h-8l20.6,23.8
	h5.6l-18.2-20.8h2.4c7,0,13-6,13-13c0-7.8-5.9-13.4-14.2-13.4h-14.9v47.2h4.5v-43.1h9.3C268.7,196.3,272,201.5,272,205.2
	 M231.6,215.5c0-11.4-8.2-19.7-19.6-19.7c-11.4,0-19.3,8.1-19.3,19.9c0,11.1,8.8,20.2,19.5,20.2C222,235.8,231.6,228.9,231.6,215.5
	 M236.4,215.8c0,13.7-10.6,24.4-24.2,24.4c-13.8,0-24.3-10.5-24.3-24.5c0-13.9,10.3-24.4,24-24.4
	C226.2,191.3,236.4,201.6,236.4,215.8 M154.4,196.1h-7.9v39.2h7.4c12.7,0,20.3-8.8,20.3-19.8C174.2,204,165.9,196.1,154.4,196.1
	 M153.8,239.4H142v-47.2h12c14.7,0,24.9,9.1,24.9,23.3C178.9,229.6,168.6,239.4,153.8,239.4 M133.6,239.4v-4.2h-19.1v-43h-4.4v47.2
	H133.6z M71.4,226.4h20.1l-10-25L71.4,226.4z M81.5,190.8l20.3,48.5h-4.9l-3.7-8.9H69.7l-3.7,8.9h-4.9L81.5,190.8z M19,240.6
	l12.4-30l12.4,30l19-48.5h-4.9l-14.3,37.4l-12.3-29.3l-12,29.4L4.9,192.2H0L19,240.6z M251.2,301.9h20.1l-10-25L251.2,301.9z
	 M261.3,266.3l20.3,48.5h-4.9l-3.7-8.9h-23.5l-3.6,8.9H241L261.3,266.3z M235.3,267.6h-4.5v47.2h4.5V267.6z M214.1,280.7
	c0,6.2-4.2,10.3-10.8,10.3h-7.9l20.6,23.8h5.6L203.4,294h2.5c7,0,13-6,13-13c0-7.8-6-13.5-14.2-13.5h-14.9v47.2h4.5v-43.1h9.3
	C210.8,271.7,214.1,277,214.1,280.7 M173.8,290.9c0-11.4-8.2-19.7-19.7-19.7c-11.4,0-19.3,8.2-19.3,19.9c0,11.1,8.8,20.2,19.5,20.2
	C164.1,311.3,173.8,304.3,173.8,290.9 M178.6,291.3c0,13.7-10.6,24.4-24.2,24.4c-13.8,0-24.3-10.5-24.3-24.5
	c0-13.9,10.3-24.4,24-24.4C168.3,266.8,178.6,277.1,178.6,291.3 M127.2,271.7v-4.2h-24.7v4.2h10.1v43.1h4.5v-43.1H127.2z
	 M86.4,315.6c6.9,0,12.3-5.2,12.3-12.6c0-6.3-3.9-10.3-10.2-14c-5.3-3.1-8.9-5-8.9-10.6c0-4.7,3.2-7.4,6.8-7.4
	c3.1,0,5.7,1.2,8.5,3.6l2.8-3.3c-3.1-3-6.9-4.5-11.3-4.5c-6.5,0-11.3,4.7-11.3,11.7c0,6.8,4.5,10.4,10.9,14.1
	c5.6,3.3,8.2,5.6,8.2,10.5s-2.9,8.2-7.5,8.2c-4.1,0-6.8-1.4-9.6-3.9l-2.7,3.2C77.7,314,81.3,315.6,86.4,315.6 M40.3,301.9h20.1
	l-10-25L40.3,301.9z M50.4,266.3l20.3,48.5h-4.9l-3.7-8.9H38.6l-3.6,8.9h-4.9L50.4,266.3z"/>
<path class="st0" d="M125.7,104.2l-2,4.2L74.6,2h3.8 M121.7,2h3.8l47.3,102.2l-2,4.2L121.7,2z M173.7,12.5l2-4.2l52.6,113.9h-3.8
	L173.7,12.5z M86.5,0H58.9v2h4.9l57.4,121.7L145,74.3l23.3,49.4L192,74.4l21.7,47.7h-4v2h27.6v-2h-4.9L175,0.3L153.9,45l2.2,4.8
	l12.6-26.7L184.2,57h-24.7l1.7,3.6h24.7l1.5,3.4h-24.6l1.7,3.6h24.6l0.7,1.6l-15.1,31.5L129.6,2h4.5V0h-27.6v2h4.9l31.1,67.3
	l-15.1,31.4L82.5,2h4V0z M201,46.1L221.8,2h-12.1V0h27.6v2h-11l-23,48.9L201,46.1z"/>
<path class="st0" d="M279.5,271.6h-2v-0.7h4.9v0.7h-2v7.1h-0.9 M288,277.3L288,277.3l2.5-6.4h1.2v7.9h-0.9v-5.9l0,0l-2.3,5.9h-0.9
	l-2.4-5.9l0,0v5.9h-1v-7.9h1.3L288,277.3z"/>
</svg>
