<?xml version="1.0" encoding="utf-8"?>
<!-- Generator: Adobe Illustrator 20.0.0, SVG Export Plug-In . SVG Version: 6.00 Build 0)  -->
<svg version="1.1" id="Layer_1" xmlns="http://www.w3.org/2000/svg" xmlns:xlink="http://www.w3.org/1999/xlink" x="0px" y="0px"
	 viewBox="0 0 187.1 95.5" style="enable-background:new 0 0 187.1 95.5;" xml:space="preserve" fill="white">
<g>
	<path d="M3.2,74.4H0v-0.8h17.8l0.2,6.5h-0.8c-0.5-2.1-0.9-4.4-3.1-5.3c-0.7-0.3-2-0.4-3.3-0.4H7.4v9.2c3,0,4.7-0.5,4.9-3.9h0.8v9
		h-0.8c-0.3-3.6-1.4-4.3-4.9-4.2v9.7h3.1V95H0v-0.8h3.2V74.4L3.2,74.4z"/>
	<path d="M18.4,86.6c0-3.9,3.4-7.9,7.5-7.9c3.9,0,7.5,3.9,7.5,7.9c0,4.4-2.7,8.8-7.5,8.8S18.4,91,18.4,86.6L18.4,86.6z M29.8,84.1
		c0-0.9-0.1-1.7-0.4-2.4c-0.4-1.5-1.5-2.5-3.5-2.5c-2.2,0-3.2,1-3.6,2.5c-0.2,0.7-0.3,1.4-0.3,2.4v5.2c0,0.9,0,1.9,0.2,2.7
		c0.5,1.7,1.5,2.8,3.7,2.8s3.2-1.1,3.6-2.8c0.2-0.8,0.3-1.8,0.3-2.7L29.8,84.1L29.8,84.1z"/>
	<path d="M51.8,79v0.6h-2.4v10c0,2.4-0.5,3.5-1.5,4.5c-1,0.8-2.5,1.2-4.7,1.2c-1.7,0-3.2-0.5-4.2-1.3c-1-0.7-1.5-2.3-1.5-5v-9.4
		h-2.4V79H43v0.6h-2.4v8.7c0,3.3-0.3,6.2,4,6.2c2.8,0,3.9-1.8,3.9-4.3V79.7h-2.3V79H51.8L51.8,79z"/>
	<path d="M58.9,94.4h2.4V95h-7.8v-0.6h2.4V79.7h-2.4V79h8c2.6,0,5.7,0.3,5.7,3.6c0,2.7-2.8,3.6-5.1,3.9l0,0c3.7,0.6,4.6,2.6,4.6,6.5
		c0,0.8,0.1,1.8,2.4,1.3V95c-0.6,0.2-1.3,0.3-2,0.3c-2.5,0-3.7-1.2-3.7-3.6c0-2-0.3-3.5-0.9-4c-0.7-0.5-1.5-0.8-2.2-0.8h-1.3
		L58.9,94.4L58.9,94.4z M58.9,86.2h2c2.2,0,3-1,3-3.2c0-2.6-0.7-3.3-2.9-3.3h-2.1L58.9,86.2L58.9,86.2z"/>
	<path d="M79.1,95.2h-0.5v-6.4h0.9c0.6,3.1,2.5,5.9,5.9,5.9c2.5,0,4.8-1.9,4.8-4.5c0-3-2.7-3.6-5.1-4.5c-0.6-0.2-1.2-0.4-2-0.6
		c-2.9-0.9-4.5-3.1-4.5-6.2c0-3.3,2.5-5.8,5.9-5.8c1.9,0,3.2,0.4,4.7,1.6l1.2-1.2h0.5v6h-1c-0.3-3-2.3-5.6-5.5-5.6
		c-2.1,0-4,1.6-4,3.7c0,2.5,1.8,2.7,3.7,3.2c0.8,0.2,1.4,0.5,2,0.6c0.6,0.2,1.4,0.4,2.2,0.7c2.7,1.3,3.6,3.4,3.6,6.3
		c0,4-2.6,7-6.7,7c-1.6,0-3.5-0.6-4.6-1.7L79.1,95.2L79.1,95.2z"/>
	<path d="M100.5,79.7v6.8c2.3,0,3.5-0.3,3.6-2.9h0.6v6.6h-0.6c-0.2-2.6-1-3.2-3.6-3.1v7.2h3.3c3.1,0,3.8-1.8,4.4-4.5h0.6l-0.2,5.1
		H95v-0.6h2.4V79.7H95V79h13.3l0.1,4.3h-0.6c-0.5-2.3-1.4-3.2-2.7-3.5c-0.6-0.2-1.2-0.2-2.1-0.2L100.5,79.7L100.5,79.7z"/>
	<path d="M110.5,95v-0.6h2l5.7-15.6h0.8l5.4,15.6h2V95h-7.6v-0.6h2.5l-1.4-4.1h-5.2l-1.4,4.1h2.4V95H110.5L110.5,95z M114.9,89.6
		h4.7l-2.2-6.7L114.9,89.6L114.9,89.6z"/>
	<path d="M128.9,95.2h-0.4v-4.8h0.6c0.5,2.3,1.9,4.4,4.5,4.4c1.9,0,3.5-1.5,3.5-3.3c0-2.3-2-2.7-3.7-3.3c-0.5-0.2-1-0.3-1.4-0.5
		c-2.3-0.6-3.3-2.3-3.3-4.6c0-2.5,1.9-4.4,4.4-4.4c1.3,0,2.4,0.3,3.4,1.1l0.9-0.9h0.4v4.6h-0.7c-0.3-2.3-1.8-4.2-4.1-4.2
		c-1.6,0-3,1.1-3,2.8c0,1.8,1.3,2,2.8,2.4c0.6,0.2,1,0.3,1.4,0.5c0.5,0.1,1.1,0.3,1.7,0.5c2,0.9,2.7,2.5,2.7,4.7c0,3-2,5.3-5.1,5.3
		c-1.1,0-2.6-0.5-3.4-1.2L128.9,95.2L128.9,95.2z"/>
	<path d="M141.6,86.6c0-3.9,3.4-7.9,7.5-7.9c3.9,0,7.4,3.9,7.4,7.9c0,4.4-2.7,8.8-7.4,8.8C144.3,95.4,141.6,91,141.6,86.6
		L141.6,86.6z M152.9,84.1c0-0.9-0.1-1.7-0.3-2.4c-0.5-1.5-1.5-2.5-3.5-2.5c-2.2,0-3.2,1-3.6,2.5c-0.2,0.7-0.3,1.4-0.3,2.4v5.2
		c0,0.9,0,1.9,0.2,2.7c0.4,1.7,1.4,2.8,3.7,2.8c2.3,0,3.2-1.1,3.6-2.8c0.2-0.8,0.2-1.8,0.2-2.7L152.9,84.1L152.9,84.1z"/>
	<polygon points="172.3,95.3 171.5,95.3 161.5,80.2 161.5,94.4 163.8,94.4 163.8,95 158.4,95 158.4,94.4 160.7,94.4 160.7,79.7
		158.4,79.7 158.4,79 164.5,79 171.5,89.5 171.5,79.7 169.3,79.7 169.3,79 174.7,79 174.7,79.7 172.3,79.7 	"/>
	<path d="M177.6,95.2h-0.4v-4.8h0.7c0.5,2.3,1.9,4.4,4.4,4.4c1.9,0,3.6-1.5,3.6-3.3c0-2.3-2.1-2.7-3.8-3.3c-0.4-0.2-0.9-0.3-1.4-0.5
		c-2.2-0.6-3.3-2.3-3.3-4.6c0-2.5,1.9-4.4,4.4-4.4c1.5,0,2.4,0.3,3.5,1.1l0.9-0.9h0.4v4.6h-0.8c-0.2-2.3-1.7-4.2-4-4.2
		c-1.6,0-3,1.1-3,2.8c0,1.8,1.2,2,2.7,2.4c0.6,0.2,1.1,0.3,1.6,0.5c0.4,0.1,1,0.3,1.6,0.5c2,0.9,2.7,2.5,2.7,4.7c0,3-2,5.3-5,5.3
		c-1.1,0-2.6-0.5-3.4-1.2L177.6,95.2L177.6,95.2z"/>
	<path d="M109.1,44.1c0.4,0,0.7-0.4,0.7-0.7c0-0.4-0.3-0.8-0.7-0.8c-0.4,0-0.7,0.4-0.7,0.8C108.4,43.7,108.7,44.1,109.1,44.1
		L109.1,44.1z"/>
	<polygon points="108.1,42.5 108.8,42.7 109.1,42.1 109.3,42.7 110,42.5 109.7,43.1 110.3,43.4 109.7,43.6 110,44.3 109.3,44
		109.1,44.6 108.8,44 108.1,44.3 108.4,43.6 107.7,43.4 108.4,43.1 	"/>
	<path d="M90.4,11.2c1.1,0.1,2.1,0.6,2.2,2.1C91.3,13.2,90.6,12.3,90.4,11.2L90.4,11.2z"/>
	<path d="M90.4,9c1.1,0.1,2.1,0.6,2.3,2C91.3,11,90.6,10.2,90.4,9L90.4,9z"/>
	<path d="M90.5,6.7c1.1,0.1,2,0.6,2.2,2.1C91.4,8.7,90.7,7.9,90.5,6.7L90.5,6.7z"/>
	<path d="M90.5,4.6c1.1,0.1,2.1,0.6,2.2,2C91.4,6.5,90.7,5.7,90.5,4.6L90.5,4.6z"/>
	<path d="M90.5,2.3c1.1,0.1,2.1,0.7,2.3,2.1C91.4,4.2,90.7,3.4,90.5,2.3L90.5,2.3z"/>
	<path d="M90.6,0.1c1.1,0.1,2,0.6,2.2,2C91.5,2.1,90.8,1.2,90.6,0.1L90.6,0.1z"/>
	<path d="M89.9,61.8H96v-0.2l-2-0.9L93,0.1C93,0,93,0,92.9,0c0,0,0,0,0,0.1l-1,60.6l-2,0.9L89.9,61.8L89.9,61.8z"/>
	<path d="M107.1,19.5c-0.2,1.2-0.8,2.1-2.2,2.1C105,20.2,106,19.6,107.1,19.5L107.1,19.5z"/>
	<path d="M107.2,21.5c-0.2,1.1-0.8,2-2.2,2C105.1,22.2,106.1,21.7,107.2,21.5L107.2,21.5z"/>
	<path d="M100.2,19.4c-1.3,0-2-0.8-2.2-2C99.1,17.5,100.1,18,100.2,19.4L100.2,19.4z"/>
	<path d="M96.4,25.9c-1.4,0-2.1-0.8-2.3-2C95.4,24,96.2,24.6,96.4,25.9L96.4,25.9z"/>
	<path d="M111.3,32.1c-1.1,0.1-2.1,0.6-2.3,2C110.4,34.1,111.1,33.3,111.3,32.1L111.3,32.1z"/>
	<path d="M109.4,40.1c1.2,0.1,2.2,0.6,2.3,2C110.2,42.1,109.6,41.2,109.4,40.1L109.4,40.1z"/>
	<path d="M111.9,37.2c-1.2-0.1-2.2-0.6-2.2-2.1C111.2,35.2,111.8,36,111.9,37.2L111.9,37.2z"/>
	<path d="M74.5,44c-0.2-0.2-0.2-0.4-0.2-0.4l-0.4-11.8c0-0.2-0.1-0.3-0.1-0.3c-0.1,0-0.1,0.1-0.1,0.3l-0.5,12.5c0,0,0,0.3,0.2,0.4
		l19.6,11.5v-2.8L74.5,44L74.5,44z"/>
	<path d="M111.4,44c0.3-0.2,0.3-0.4,0.3-0.4l0.4-11.8c0-0.2,0-0.3,0.1-0.3c0,0,0.1,0.1,0.1,0.3l0.4,12.5c0,0,0.1,0.3-0.1,0.4
		L92.9,56.2v-2.8L111.4,44L111.4,44z"/>
	<path d="M77.9,35.5c-0.2-0.1-0.2-0.2-0.2-0.2l-0.3-9.9c0-0.1,0-0.2-0.1-0.2c0,0-0.1,0.1-0.1,0.2l-0.3,10.5c0,0-0.1,0.2,0.1,0.3
		l16,9.4v-2.3L77.9,35.5L77.9,35.5z"/>
	<path d="M107.9,35.5c0.2-0.1,0.2-0.2,0.2-0.2l0.4-9.9c0-0.1,0-0.2,0-0.2c0.1,0,0.1,0.1,0.1,0.2l0.4,10.5c0,0,0,0.2-0.1,0.3
		l-16.1,9.4v-2.3L107.9,35.5L107.9,35.5z"/>
	<path d="M81.6,27.1c-0.2-0.1-0.2-0.2-0.2-0.2l-0.2-7.5l-0.1-0.1L81,19.5l-0.2,8.1c0,0,0,0.2,0.1,0.3l12,7.1v-2L81.6,27.1L81.6,27.1
		z"/>
	<path d="M104.3,27.1c0.1-0.1,0.1-0.2,0.1-0.2l0.3-7.5v-0.1c0.1,0,0.1,0.1,0.1,0.1l0.3,8.1c0,0,0,0.2-0.1,0.3L92.9,35v-2L104.3,27.1
		L104.3,27.1z"/>
	<path d="M85,19.1c-0.1,0-0.1-0.1-0.1-0.1l-0.2-5.3c0-0.1-0.1-0.1-0.1-0.1s0,0,0,0.1l-0.3,5.7c0,0,0,0.2,0.1,0.2l8.5,5.1v-1.5
		L85,19.1L85,19.1z"/>
	<path d="M87.8,12.3v-0.1l-0.2-3.3c0-0.1,0-0.1-0.1-0.1c0,0,0,0,0,0.1l-0.2,3.7c0,0,0,0.1,0.1,0.1l5.5,3.2V15L87.8,12.3L87.8,12.3z"
		/>
	<path d="M98,12.3c0.1,0,0.1-0.1,0.1-0.1l0.2-3.3c0-0.1,0-0.1,0-0.1s0,0,0,0.1l0.2,3.7v0.1L92.9,16V15L98,12.3L98,12.3z"/>
	<path d="M100.9,19.1c0.1,0,0.1-0.1,0.1-0.1l0.2-5.3c0-0.1,0-0.1,0-0.1c0.1,0,0.1,0,0.1,0.1l0.2,5.7c0,0,0,0.2-0.1,0.2l-8.5,5.1
		v-1.5L100.9,19.1L100.9,19.1z"/>
	<path d="M98.4,10.8c1.4,0,2.1-0.8,2.3-2C99.6,8.8,98.6,9.4,98.4,10.8L98.4,10.8z"/>
	<path d="M98.3,8.8c1.4,0,2.1-0.8,2.3-2C99.4,6.9,98.5,7.5,98.3,8.8L98.3,8.8z"/>
	<path d="M98.2,9.9c-1.3,0-2-0.9-2.2-2.1C97.2,8,98.1,8.6,98.2,9.9L98.2,9.9z"/>
	<path d="M98.1,11.9c-1.3-0.1-2-0.9-2.2-2.1C97.1,9.9,98,10.5,98.1,11.9L98.1,11.9z"/>
	<path d="M103.6,13.7c-0.2,1.2-0.8,2.1-2.2,2.1C101.5,14.4,102.5,13.8,103.6,13.7L103.6,13.7z"/>
	<path d="M103.5,11.6c-1.1,0.1-2.1,0.7-2.2,2.1C102.7,13.7,103.3,12.8,103.5,11.6L103.5,11.6z"/>
	<path d="M78.8,17.5c1.1,0.1,2.1,0.6,2.3,2.1C79.7,19.5,79,18.6,78.8,17.5L78.8,17.5z"/>
	<path d="M78.8,19.5c0.2,1.2,0.8,2.1,2.2,2.1C80.9,20.2,80,19.6,78.8,19.5L78.8,19.5z"/>
	<path d="M78.7,21.5c0.2,1.1,0.8,2,2.2,2C80.8,22.2,79.9,21.7,78.7,21.5L78.7,21.5z"/>
	<path d="M78.6,23.5c0.2,1.2,0.8,2.1,2.3,2.1C80.7,24.2,79.9,23.6,78.6,23.5L78.6,23.5z"/>
	<path d="M80.8,27.6c-1.3,0-2-0.8-2.2-2C79.8,25.7,80.7,26.2,80.8,27.6L80.8,27.6z"/>
	<path d="M84.4,19.4c-1.5,0-2.1-0.8-2.3-2C83.4,17.5,84.2,18,84.4,19.4L84.4,19.4z"/>
	<path d="M83.6,23c-1.1,0.1-2.1,0.7-2.2,2.1C82.8,25.1,83.4,24.2,83.6,23L83.6,23z"/>
	<path d="M81.5,27c1.3-0.1,2-0.9,2.2-2.1C82.6,25.1,81.6,25.6,81.5,27L81.5,27z"/>
	<path d="M85.3,25.9c-0.2,1.1-0.8,2-2.2,2C83.2,26.5,84.1,26,85.3,25.9L85.3,25.9z"/>
	<path d="M86.9,26.7c-0.2,1.1-0.8,2-2.2,2C84.8,27.3,85.8,26.8,86.9,26.7L86.9,26.7z"/>
	<path d="M88.6,27.6c-0.2,1.1-0.8,2-2.3,2C86.5,28.2,87.4,27.7,88.6,27.6L88.6,27.6z"/>
	<path d="M90.2,28.4c-0.2,1.1-0.9,2-2.3,2.1C88.2,29,89,28.5,90.2,28.4L90.2,28.4z"/>
	<path d="M89.6,31.3c1.3-0.1,2-0.9,2.2-2.1C90.6,29.3,89.7,29.8,89.6,31.3L89.6,31.3z"/>
	<path d="M84.9,19c1.4,0,2.1-0.8,2.3-2C86,17.1,85.2,17.6,84.9,19L84.9,19z"/>
	<path d="M88.8,17.8c-0.2,1.1-0.8,2-2.2,2.1C86.7,18.4,87.6,17.9,88.8,17.8L88.8,17.8z"/>
	<path d="M90.4,18.6c-0.2,1.1-0.8,2-2.2,2.1C88.4,19.3,89.3,18.8,90.4,18.6L90.4,18.6z"/>
	<path d="M92.1,19.5c-0.2,1.1-0.8,2.1-2.3,2.1C90,20.2,91,19.6,92.1,19.5L92.1,19.5z"/>
	<path d="M81.9,28.5c-0.2,1.1-0.9,2-2.3,2C79.9,29.1,80.7,28.6,81.9,28.5L81.9,28.5z"/>
	<path d="M81.2,31.4c0.2-1.3,1-2,2.3-2.1C83.3,30.6,82.6,31.4,81.2,31.4L81.2,31.4z"/>
	<path d="M82.8,32.3c0.2-1.3,1-2,2.3-2.1C84.8,31.5,84.1,32.3,82.8,32.3L82.8,32.3z"/>
	<path d="M84.3,33.3c0.2-1.5,1-2,2.3-2.1C86.4,32.3,85.7,33.2,84.3,33.3L84.3,33.3z"/>
	<path d="M87.4,35c0.2-1.3,1-1.9,2.3-2C89.5,34.2,88.8,35,87.4,35L87.4,35z"/>
	<path d="M85.5,20.2c-0.2,1.1-0.8,2-2.3,2.1C83.4,20.8,84.2,20.3,85.5,20.2L85.5,20.2z"/>
	<path d="M84.7,23.1c0.2-1.3,1.1-1.9,2.3-2C86.8,22.3,86.2,23.1,84.7,23.1L84.7,23.1z"/>
	<path d="M86.4,24c0.1-1.3,1-1.9,2.2-2C88.4,23.2,87.7,24,86.4,24L86.4,24z"/>
	<path d="M87.9,25c0.1-1.3,1-1.9,2.2-2C89.9,24.1,89.3,25,87.9,25L87.9,25z"/>
	<path d="M89.5,25.9c1.3,0,2-0.8,2.2-2C90.5,24,89.6,24.6,89.5,25.9L89.5,25.9z"/>
	<path d="M88.4,13.3c-0.2,1.1-0.9,2-2.3,2.1C86.3,13.9,87.1,13.4,88.4,13.3L88.4,13.3z"/>
	<path d="M87.7,16.2c0.1-1.3,1-1.9,2.2-2C89.7,15.3,89.1,16.2,87.7,16.2L87.7,16.2z"/>
	<path d="M89.3,17.1c0.1-1.3,1-1.9,2.2-2C91.3,16.3,90.6,17.1,89.3,17.1L89.3,17.1z"/>
	<path d="M87.3,12.6c-1.3,0-2-0.8-2.2-2C86.3,10.8,87.2,11.3,87.3,12.6L87.3,12.6z"/>
	<path d="M87.4,10.8c-1.3,0-2-0.8-2.2-2C86.4,8.8,87.3,9.4,87.4,10.8L87.4,10.8z"/>
	<path d="M87.5,8.8c-1.3,0-2-0.8-2.2-2C86.5,6.9,87.4,7.5,87.5,8.8L87.5,8.8z"/>
	<path d="M87.6,9.8c1.5,0,2.1-0.8,2.3-2.1C88.8,7.9,87.8,8.5,87.6,9.8L87.6,9.8z"/>
	<path d="M87.8,11.9c1.3-0.1,2-0.9,2.2-2.1C88.9,9.9,87.9,10.5,87.8,11.9L87.8,11.9z"/>
	<path d="M82.3,15.4c0.2,1.1,0.8,2,2.2,2.1C84.3,16.1,83.4,15.5,82.3,15.4L82.3,15.4z"/>
	<path d="M82.4,13.6c0.2,1.1,0.8,2,2.2,2C84.4,14.2,83.5,13.7,82.4,13.6L82.4,13.6z"/>
	<path d="M82.4,11.6c1.2,0.1,2.1,0.7,2.3,2.1C83.2,13.7,82.6,12.8,82.4,11.6L82.4,11.6z"/>
	<path d="M74.7,32.1c1.1,0.1,2.1,0.6,2.2,2C75.5,34.1,74.9,33.3,74.7,32.1L74.7,32.1z"/>
	<path d="M74.9,26.1c1.1,0.1,2.1,0.7,2.2,2.1C75.7,28.2,75.1,27.3,74.9,26.1L74.9,26.1z"/>
	<path d="M74.8,28.2c1.1,0.1,2.1,0.6,2.3,2.1C75.6,30.1,75,29.3,74.8,28.2L74.8,28.2z"/>
	<path d="M99.4,34.1c0.4,0,0.7-0.3,0.7-0.7c0-0.4-0.3-0.7-0.7-0.7c-0.4,0-0.8,0.3-0.8,0.7C98.6,33.8,99,34.1,99.4,34.1L99.4,34.1z"
		/>
	<polygon points="98.5,32.4 99.1,32.6 99.4,32 99.7,32.6 100.4,32.4 100.1,33 100.7,33.4 100.1,33.6 100.4,34.3 99.7,34 99.4,34.6
		99.1,34 98.5,34.3 98.7,33.6 98.1,33.4 98.7,33 	"/>
	<path d="M97,39.8c0.4,0,0.7-0.4,0.7-0.8c0-0.4-0.3-0.7-0.7-0.7c-0.4,0-0.7,0.3-0.7,0.7C96.2,39.4,96.5,39.8,97,39.8L97,39.8z"/>
	<polygon points="96,38 96.8,38.3 97,37.7 97.3,38.3 97.9,38 97.7,38.7 98.3,39 97.7,39.3 97.9,39.9 97.3,39.7 97,40.3 96.8,39.7
		96,39.9 96.3,39.3 95.7,39 96.3,38.7 	"/>
	<path d="M101.7,45.8c0.4,0,0.7-0.4,0.7-0.8c0-0.4-0.3-0.7-0.7-0.7c-0.4,0-0.7,0.3-0.7,0.7C101,45.4,101.3,45.8,101.7,45.8
		L101.7,45.8z"/>
	<polygon points="100.8,44 101.4,44.3 101.7,43.7 102,44.3 102.7,44 102.3,44.8 103.1,45 102.3,45.3 102.7,45.9 102,45.7
		101.7,46.3 101.4,45.7 100.8,45.9 101,45.3 100.4,45 101,44.8 	"/>
	<path d="M103.3,53.5c0.4,0,0.7-0.4,0.7-0.8c0-0.3-0.3-0.7-0.7-0.7c-0.4,0-0.7,0.4-0.7,0.7C102.6,53,102.9,53.5,103.3,53.5
		L103.3,53.5z"/>
	<polygon points="102.3,51.7 103,52 103.3,51.4 103.6,52 104.2,51.7 104,52.4 104.6,52.6 104,52.9 104.2,53.6 103.6,53.3 103.3,54
		103,53.3 102.3,53.6 102.6,52.9 101.9,52.6 102.6,52.4 	"/>
	<path d="M101.3,53.3c0.2,1.1-0.1,2.2-1.3,2.7C99.6,54.7,100.2,53.9,101.3,53.3L101.3,53.3z"/>
	<path d="M110.1,50.1c-1.2-0.1-2.2-0.7-2.2-2.1C109.4,48.1,110,49,110.1,50.1L110.1,50.1z"/>
	<path d="M98.8,45.5c-1.2-0.1-2.2-0.6-2.3-2C98,43.5,98.6,44.3,98.8,45.5L98.8,45.5z"/>
	<path d="M108.3,32.7c-1.3-0.1-2-0.9-2.2-2.1C107.2,30.8,108.1,31.3,108.3,32.7L108.3,32.7z"/>
	<path d="M100.8,39.2c-1.3,0-2.1-0.8-2.3-2C99.8,37.3,100.6,37.8,100.8,39.2L100.8,39.2z"/>
	<path d="M104.5,25.1c-1.5,0-2.1-0.8-2.3-2.1C103.5,23.1,104.3,23.7,104.5,25.1L104.5,25.1z"/>
	<path d="M115.7,41.6c-1.2-0.1-2.2-0.6-2.3-2.1C114.9,39.7,115.5,40.5,115.7,41.6L115.7,41.6z"/>
	<path d="M102.5,32.5c0.2,1.1-0.1,2.2-1.3,2.7C100.7,33.9,101.4,33,102.5,32.5L102.5,32.5z"/>
	<path d="M104.1,40.1c0.2,1.1-0.1,2.2-1.3,2.7C102.3,41.4,103.1,40.6,104.1,40.1L104.1,40.1z"/>
	<path d="M98.5,50.5c-1.3,0-2-0.8-2.2-2.1C97.5,48.5,98.4,49.1,98.5,50.5L98.5,50.5z"/>
	<path d="M107.5,58.9c0-1.6,1.3-2.9,2.9-2.9s2.8,1.3,2.8,2.9c0,1.6-1.2,2.9-2.8,2.9S107.5,60.5,107.5,58.9L107.5,58.9z M112.7,58.9
		c0-1.2-1-2.3-2.3-2.3c-1.3,0-2.4,1-2.4,2.3c0,1.3,1,2.3,2.4,2.3C111.7,61.2,112.7,60.3,112.7,58.9L112.7,58.9z M111.9,60.5h-0.7
		l-0.7-1.3h-0.6v1.3h-0.6v-3.1h1.6c0.2,0,0.6,0,0.8,0.2c0.3,0.1,0.3,0.4,0.3,0.7c0,0.6-0.2,0.8-0.8,0.8L111.9,60.5L111.9,60.5z
		 M110.7,58.7c0.3,0,0.6-0.1,0.6-0.4c0-0.4-0.5-0.4-0.7-0.4h-0.8v0.8L110.7,58.7L110.7,58.7z"/>
</g>
</svg>
