<?xml version="1.0" encoding="utf-8"?>
<!-- Generator: Adobe Illustrator 20.0.0, SVG Export Plug-In . SVG Version: 6.00 Build 0)  -->
<svg version="1.1" id="Layer_1" xmlns="http://www.w3.org/2000/svg" xmlns:xlink="http://www.w3.org/1999/xlink" x="0px" y="0px"
	 viewBox="0 0 117.4 117.4" style="enable-background:new 0 0 117.4 117.4;" xml:space="preserve">
<style type="text/css">
	.st0{fill:#FFFFFF;}
</style>
<path class="st0" d="M0,0v117.4h117.4V0H0z M21.7,85h-1.5v-4.4h-1.8V85h-1.5v-9.5h1.5v4h1.8v-4h1.5V85z M33.2,85h-3.8v-9.5h3.7v1.1
	H31v2.8h1.7v1.1H31v3.2h2.3V85z M43.1,81.8V85h-1.5v-3.2l-2-6.3h1.5l1.2,4.5h0.1l1.2-4.5h1.5L43.1,81.8z M49.2,65.2h-4.1V34.3h4.1
	V65.2z M56.3,83.8c-0.1,0.3-0.3,0.5-0.5,0.7c-0.2,0.2-0.5,0.3-0.8,0.4c-0.3,0.1-0.6,0.2-1,0.2c-0.5,0-0.8-0.1-1.1-0.2
	c-0.3-0.1-0.5-0.3-0.7-0.5c-0.2-0.2-0.3-0.4-0.4-0.6c-0.1-0.2-0.1-0.5-0.1-0.7c0-0.2,0-0.4,0-0.6c0-0.2,0.1-0.4,0.1-0.6h1.2v0.5
	c0,0.3,0,0.5,0,0.7c0,0.2,0.1,0.4,0.2,0.5c0.1,0.1,0.2,0.2,0.3,0.3c0.1,0.1,0.3,0.1,0.5,0.1c0.3,0,0.5-0.1,0.7-0.2
	c0.2-0.1,0.2-0.4,0.2-0.7c0-0.1,0-0.3,0-0.4c0-0.1-0.1-0.2-0.1-0.4s-0.1-0.3-0.2-0.4c-0.1-0.1-0.2-0.3-0.3-0.5l-1.6-1.8
	c-0.3-0.3-0.5-0.7-0.7-1c-0.2-0.3-0.2-0.7-0.2-1.1c0-0.3,0.1-0.6,0.2-0.9c0.1-0.3,0.3-0.5,0.4-0.7c0.2-0.2,0.4-0.3,0.7-0.4
	c0.3-0.1,0.6-0.2,1-0.2c0.4,0,0.8,0.1,1.1,0.2c0.3,0.1,0.5,0.3,0.7,0.5c0.2,0.2,0.3,0.4,0.4,0.6s0.1,0.5,0.1,0.7c0,0.2,0,0.4,0,0.6
	c0,0.2-0.1,0.4-0.1,0.6H55v-0.4c0-0.5-0.1-0.9-0.2-1.2c-0.2-0.3-0.4-0.4-0.7-0.4c-0.3,0-0.5,0.1-0.6,0.2s-0.2,0.4-0.2,0.6
	c0,0.1,0,0.3,0,0.4c0,0.1,0.1,0.2,0.1,0.3c0,0.1,0.1,0.2,0.1,0.3c0.1,0.1,0.1,0.2,0.2,0.3l1.8,2c0.3,0.4,0.6,0.8,0.7,1.1
	s0.3,0.7,0.3,1.2C56.5,83.2,56.4,83.5,56.3,83.8z M68.6,82c0,0.5,0,0.9-0.1,1.2s-0.2,0.6-0.3,0.8c-0.1,0.2-0.3,0.4-0.4,0.5
	c-0.2,0.1-0.3,0.2-0.5,0.3S66.8,85,66.6,85s-0.3,0-0.5,0c-0.1,0-0.3,0-0.5,0s-0.3-0.1-0.5-0.1s-0.3-0.2-0.5-0.3
	c-0.2-0.1-0.3-0.3-0.4-0.5c-0.1-0.2-0.2-0.5-0.3-0.8s-0.1-0.7-0.1-1.2v-6.6h1.5v6.9c0,0.3,0,0.5,0,0.7c0,0.2,0.1,0.4,0.1,0.5
	c0.1,0.1,0.2,0.2,0.3,0.2c0.1,0,0.2,0.1,0.4,0.1c0.1,0,0.3,0,0.4-0.1c0.1,0,0.2-0.1,0.3-0.2c0.1-0.1,0.1-0.3,0.2-0.5
	c0-0.2,0.1-0.4,0.1-0.7v-6.9h1.5V82z M73.3,61.1c0.2-1,0.4-3.2-0.5-4c-0.6-0.5-2-0.5-3.9,0.1v7.9h-4.1v-6.5
	c-2.6,0.6-4.7,0.4-6.3-0.9c-3.2-2.4-2.6-7.3-2.5-7.9l3.6,0.5c-0.1,0.9-0.1,3.6,1.2,4.6c0.8,0.6,2.3,0.6,4.2,0V34.3h4.1v19.2
	c2.7-0.7,4.7-0.4,6.2,0.8c2.8,2.4,1.9,7,1.7,7.5L75,61.5L73.3,61.1z M77.8,85h-1.5v-9.5h1.5V85z M89.7,76.6h-1.6V85h-1.5v-8.3H85
	v-1.1h4.7V76.6z M100.6,85h-3.8v-9.5h3.7v1.1h-2.2v2.8h1.7v1.1h-1.7v3.2h2.3V85z"/>
</svg>
