<?xml version="1.0" encoding="utf-8"?>
<!-- Generator: Adobe Illustrator 20.0.0, SVG Export Plug-In . SVG Version: 6.00 Build 0)  -->
<svg version="1.1" id="Layer_1" xmlns="http://www.w3.org/2000/svg" xmlns:xlink="http://www.w3.org/1999/xlink" x="0px" y="0px"
	 viewBox="0 0 117.4 117.4" style="enable-background:new 0 0 117.4 117.4;" xml:space="preserve">
<style type="text/css">
	.st0{fill:#3F3B3A;}
</style>
<g>
	<rect x="45.2" y="34.3" class="st0" width="4.1" height="30.9"/>
	<path class="st0" d="M75,54.4c-1.5-1.2-3.6-1.5-6.2-0.8V34.3h-4.1V55c-1.9,0.6-3.4,0.6-4.2,0c-1.3-1-1.3-3.7-1.2-4.6L55.9,50
		c-0.1,0.6-0.7,5.5,2.5,7.9c1.6,1.2,3.7,1.5,6.3,0.9v6.5h4.1v-7.9c1.9-0.6,3.3-0.7,3.9-0.1c0.9,0.8,0.8,3,0.5,4l1.7,0.4l1.7,0.4
		C76.9,61.4,77.9,56.8,75,54.4z"/>
	<polygon class="st0" points="20.1,79.4 18.3,79.4 18.3,75.5 16.8,75.5 16.8,85 18.3,85 18.3,80.6 20.1,80.6 20.1,85 21.7,85 
		21.7,75.5 20.1,75.5 	"/>
	<polygon class="st0" points="31,80.6 32.7,80.6 32.7,79.4 31,79.4 31,76.6 33.2,76.6 33.2,75.5 29.5,75.5 29.5,85 33.2,85 
		33.2,83.8 31,83.8 	"/>
	<polygon class="st0" points="42.4,80 42.4,80 41.1,75.5 39.6,75.5 41.6,81.8 41.6,85 43.1,85 43.1,81.8 45.2,75.5 43.6,75.5 	"/>
	<path class="st0" d="M55.5,80.6l-1.8-2c-0.1-0.1-0.1-0.2-0.2-0.3c-0.1-0.1-0.1-0.2-0.1-0.3c0-0.1-0.1-0.2-0.1-0.3
		c0-0.1,0-0.2,0-0.4c0-0.3,0.1-0.5,0.2-0.6s0.4-0.2,0.6-0.2c0.3,0,0.6,0.1,0.7,0.4c0.2,0.3,0.2,0.7,0.2,1.2v0.4h1.2
		c0-0.2,0.1-0.4,0.1-0.6c0-0.2,0-0.4,0-0.6c0-0.2,0-0.5-0.1-0.7s-0.2-0.5-0.4-0.6c-0.2-0.2-0.4-0.3-0.7-0.5
		c-0.3-0.1-0.7-0.2-1.1-0.2c-0.4,0-0.7,0.1-1,0.2c-0.3,0.1-0.5,0.3-0.7,0.4c-0.2,0.2-0.3,0.4-0.4,0.7c-0.1,0.3-0.2,0.6-0.2,0.9
		c0,0.4,0.1,0.8,0.2,1.1c0.2,0.3,0.4,0.7,0.7,1l1.6,1.8c0.1,0.2,0.3,0.3,0.3,0.5c0.1,0.1,0.2,0.3,0.2,0.4s0.1,0.2,0.1,0.4
		c0,0.1,0,0.3,0,0.4c0,0.3-0.1,0.5-0.2,0.7c-0.2,0.1-0.4,0.2-0.7,0.2c-0.2,0-0.3,0-0.5-0.1c-0.1-0.1-0.2-0.2-0.3-0.3
		c-0.1-0.1-0.1-0.3-0.2-0.5c0-0.2,0-0.4,0-0.7v-0.5h-1.2c-0.1,0.2-0.1,0.4-0.1,0.6c0,0.2,0,0.4,0,0.6c0,0.3,0,0.5,0.1,0.7
		c0.1,0.2,0.2,0.5,0.4,0.6c0.2,0.2,0.4,0.3,0.7,0.5c0.3,0.1,0.7,0.2,1.1,0.2c0.4,0,0.7-0.1,1-0.2c0.3-0.1,0.5-0.2,0.8-0.4
		c0.2-0.2,0.4-0.4,0.5-0.7c0.1-0.3,0.2-0.6,0.2-0.9c0-0.4-0.1-0.8-0.3-1.2S55.8,81,55.5,80.6z"/>
	<path class="st0" d="M67,82.4c0,0.3,0,0.5-0.1,0.7c0,0.2-0.1,0.4-0.2,0.5c-0.1,0.1-0.2,0.2-0.3,0.2c-0.1,0-0.2,0.1-0.4,0.1
		c-0.1,0-0.3,0-0.4-0.1c-0.1,0-0.2-0.1-0.3-0.2c-0.1-0.1-0.1-0.3-0.1-0.5c0-0.2,0-0.4,0-0.7v-6.9h-1.5V82c0,0.5,0,0.9,0.1,1.2
		s0.2,0.6,0.3,0.8c0.1,0.2,0.3,0.4,0.4,0.5c0.2,0.1,0.3,0.2,0.5,0.3s0.4,0.1,0.5,0.1s0.3,0,0.5,0c0.1,0,0.3,0,0.5,0s0.4-0.1,0.5-0.1
		s0.3-0.2,0.5-0.3c0.2-0.1,0.3-0.3,0.4-0.5c0.1-0.2,0.2-0.5,0.3-0.8s0.1-0.7,0.1-1.2v-6.6H67V82.4z"/>
	<rect x="76.3" y="75.5" class="st0" width="1.5" height="9.5"/>
	<polygon class="st0" points="85,76.6 86.6,76.6 86.6,85 88.1,85 88.1,76.6 89.7,76.6 89.7,75.5 85,75.5 	"/>
	<polygon class="st0" points="98.3,83.8 98.3,80.6 100,80.6 100,79.4 98.3,79.4 98.3,76.6 100.5,76.6 100.5,75.5 96.8,75.5 96.8,85 
		100.6,85 100.6,83.8 	"/>
</g>
</svg>
